<svg viewBox="0 0 125 98" xmlns="http://www.w3.org/2000/svg"><path d="M66.16 46.61a56.03 56.03 0 0 0 13.27 19.54c5.94 5.7 12.1 9.3 20.28 11.94.42.1.32.95-.1 1.05-2.34.32-4.15 2.33-5.42 6.13-.22.74-.53 1.06-1.17 1.06-.64 0-1.92-.75-3.6-1.9-5.32-3.7-10-8.56-14.35-14.69-3.92-5.49-7.64-12.99-10.72-22.07.64 23.87.96 41.83.96 45.73 0 2.43-1.59 3.7-4.78 3.7-2.54 0-3.5-.95-3.5-3.06 0-4.13.53-20.07.85-36.55-8.07 12.89-19.53 23.13-31.75 28.63-.63.31-1.59-1.06-.95-1.49 12.53-8.76 23.47-22.38 29.94-38.02H44.4c-2.44 0-4.46.11-7.65.53l-1.06-4.01c3.5.63 5.74.84 8.7.84h13.07V24.22H44.4c-2.55 0-4.46.22-7.65.63l-1.16-4.11c3.6.52 5.84.84 8.7.84h13.17v-3.6c0-10.76-.22-14.25-.64-17.42C67.85 1.62 68.5 2.04 68.5 3.4c0 1.06-.75 1.7-3.62 2.75v15.42h45.67c4.35-5.6 5.1-6.13 5.73-6.13.75 0 1.38.53 6.16 4.55 2.01 1.9 2.44 2.64 2.44 3.27 0 .63-.32.95-1.38.95H64.88v19.75h15.83c4.35-5.6 5.09-6.12 5.73-6.12.74 0 1.49.52 6.05 4.54 2.01 1.8 2.54 2.53 2.54 3.17 0 .74-.43 1.05-1.37 1.05h-27.5zm-43.84 6.66c0 26.61.2 30.3.2 34.64 0 2.95-1.05 5.07-2.43 6.44-1.49 1.59-3.83 2.54-7.02 2.54-.94 0-1.37-.53-1.48-2-.31-3.07-1.6-4.23-9.77-6.24-.53-.1-.53-1.37 0-1.37 5.64.53 8.81.84 11.37.84 1.27 0 1.59-.42 1.59-1.69V56.65a79.78 79.78 0 0 1-7.54 3.17c-.42 2.85-.96 3.7-2.02 3.7S3.63 62.55.66 53.26c2.22-.21 4.35-.64 6.8-1.06 2.54-.53 4.88-1.06 7.32-1.69V26.54h-6.8c-1.9 0-3.4.22-5.94.53l-1.06-3.9c2.76.52 4.46.73 7 .73h6.8v-3.49c0-13.82 0-16.15-.53-20.06 9.44.95 11.57 1.48 11.57 3.06 0 .95-.75 1.7-3.5 2.75V23.9h2.55c3.17-4.22 3.92-4.75 4.56-4.75.75 0 1.38.53 4.78 3.59 1.27 1.27 1.8 2.11 1.8 2.75 0 .74-.42 1.05-1.38 1.05h-12.3V48.4c3.27-1.05 6.79-2.32 10.82-3.8.53-.2.95.96.53 1.27a191.19 191.19 0 0 1-11.36 6.76v.64z" fill-rule="evenodd"/></svg>