<svg viewBox="0 0 172 8" xmlns="http://www.w3.org/2000/svg"><path d="M5.84 1.93c.16-.37.29-.72.42-1.16.31.02.56.02.84.02.28 0 .7-.02.98-.04.08 0 .1.02.1.13 0 .1-.02.11-.1.12-.34.04-.55.04-.67.22-.13.2-.13.6-.12 1.16l.04 3.2c.02.9.03 1.01.13 1.2.1.17.36.18.7.22.07 0 .1.02.1.11 0 .1-.03.12-.1.12a20.62 20.62 0 0 0-2.43 0c-.05 0-.07-.03-.07-.12s.02-.1.07-.11c.32-.04.56-.04.66-.22.12-.2.12-.6.11-1.2l-.03-3.86h-.1L5.01 4.89c-.42.96-.67 1.55-.95 2.23-.02.08-.04.11-.15.11-.1 0-.1-.03-.13-.1-.3-.71-.53-1.3-.87-2.07L1.47 1.72h-.11l-.02 3.86c0 .54.03 1 .15 1.18.1.17.4.2.67.24.08 0 .1.02.1.11 0 .1-.03.12-.1.12a12.93 12.93 0 0 0-2.05 0c-.06 0-.08-.03-.08-.12s.02-.1.08-.11c.25-.04.5-.06.61-.25.14-.2.18-.6.2-1.17L1 2.38c0-.58 0-.96-.1-1.16C.76 1.05.47 1.04.17 1 .1 1 .09.98.09.88.1.78.13.75.18.75c.34.02.73.04 1 .04.29 0 .5 0 .86-.02.11.37.23.7.37 1.04l1.26 2.96c.2.43.33.77.5 1.22.2-.43.3-.74.52-1.2l1.15-2.86zm9.74.94c-.2-.58-.3-.9-.43-1.24-.11.34-.23.66-.44 1.23l-.55 1.5c.32.02.68.02 1.01.02l.93-.01-.52-1.5zm.64 1.86c-.3-.02-.7-.04-1.05-.04-.37 0-.73.02-1.13.04l-.37 1c-.19.5-.23.81-.14 1.01.08.18.39.22.72.26.06 0 .09.02.09.11 0 .1-.02.12-.1.12-.33-.02-.78-.03-1.1-.03-.32 0-.64 0-.93.03-.08 0-.1-.02-.1-.12 0-.09.02-.1.1-.11.25-.04.4-.12.51-.24.18-.18.34-.55.55-1.08l1.09-2.86c.44-1.2.53-1.46.67-1.92l.58-.28c.04 0 .08.01.1.08.17.55.32 1 .72 2.16l1.03 2.9c.18.51.3.83.44 1.01.15.18.31.2.64.23.08 0 .1.02.1.11 0 .1-.02.12-.1.12a29.1 29.1 0 0 0-2.41 0c-.07 0-.08-.02-.08-.12 0-.09.01-.1.08-.11.3-.03.6-.05.65-.23.08-.2 0-.45-.17-.93l-.39-1.11zm8.28-2.35c0-.83 0-.96-.1-1.14-.1-.16-.36-.16-.58-.16-.42 0-.82.07-1.07.27-.26.2-.49.62-.6.94-.03.05-.05.08-.14.06-.1-.02-.1-.05-.1-.1.06-.46.12-1.04.16-1.5 1 .04 1.93.04 2.87.04.93 0 1.89 0 2.89-.04.04.46.1 1.04.16 1.5 0 .05-.01.08-.1.1-.1.02-.12-.01-.14-.06-.11-.32-.33-.74-.6-.94-.24-.2-.64-.27-1.1-.27-.22 0-.46-.03-.59.17-.12.2-.11.61-.11 1.13v3.2c0 .9-.01 1 .1 1.2.1.16.4.17.73.2.07.02.09.03.09.12 0 .1-.02.13-.09.13a20.26 20.26 0 0 0-2.44 0c-.07 0-.09-.03-.09-.12 0-.1.02-.11.09-.12.3-.04.56-.05.66-.22.1-.2.1-.59.1-1.19v-3.2zm13.39-.03c0 .06-.02.09-.1.1-.08.02-.1 0-.14-.06a2.8 2.8 0 0 0-.77-1.08c-.35-.26-.81-.39-1.22-.39-1.36 0-2.35 1.2-2.35 3.05 0 1.64 1.01 2.9 2.41 2.9 1.04 0 1.71-.43 2.24-1.26.03-.04.07-.06.18 0 .08.03.1.08.06.16-.51.93-1.3 1.6-2.6 1.6-1.92 0-3.3-1.38-3.3-3.38C32.3 2.02 33.7.6 35.62.6c.42 0 .77.06 1.11.14.35.1.61.15 1.01.1l.15 1.5zm6.21 3.23c0 .9 0 1.04.1 1.22.1.16.38.17.72.2.07.01.1.02.1.11 0 .1-.03.12-.1.12a29.73 29.73 0 0 0-2.44 0c-.05 0-.07-.02-.07-.1 0-.1.02-.12.07-.12.33-.04.57-.04.67-.21.12-.21.11-.6.11-1.22v-3.2c0-.86 0-.97-.1-1.17-.1-.16-.36-.17-.71-.2-.07-.02-.08-.03-.08-.12 0-.12.01-.14.08-.14.38.02.86.05 1.23.05s.83-.03 1.19-.05c.07 0 .1.02.1.14 0 .1-.03.1-.1.11-.31.04-.56.04-.67.21-.1.2-.1.61-.1 1.17v1.25c.61.03 1.15.03 1.72.03.57 0 1.1 0 1.68-.03V2.38c0-.86-.01-.98-.1-1.17-.1-.16-.38-.17-.71-.2-.07-.02-.09-.03-.09-.12 0-.12.02-.14.09-.14.38.02.87.05 1.24.05s.82-.03 1.19-.05c.08 0 .1.02.1.14 0 .1-.02.1-.1.11-.33.04-.56.04-.66.21-.12.2-.12.63-.12 1.17v3.2c0 .9 0 1.03.11 1.22.1.16.38.17.73.2.06.01.07.03.07.12 0 .1 0 .11-.07.11a31.08 31.08 0 0 0-2.45 0c-.06 0-.08-.02-.08-.1 0-.1.02-.12.08-.12.33-.04.56-.04.66-.21.1-.21.1-.6.1-1.22V4.03c-.58-.04-1.1-.04-1.67-.04-.57 0-1.1 0-1.72.04v1.55zm12.52-2.7l-.43-1.25-.45 1.23-.54 1.5c.31.02.67.02 1 .02l.93-.01-.51-1.5zm.63 1.85c-.3-.02-.7-.04-1.04-.04-.38 0-.74.02-1.14.04l-.37 1c-.19.5-.22.81-.14 1.01.08.18.39.22.73.26.05 0 .08.02.08.11 0 .1-.02.12-.1.12-.33-.02-.77-.03-1.1-.03-.32 0-.64 0-.93.03-.07 0-.09-.02-.09-.12 0-.09.02-.1.1-.11.24-.04.39-.12.5-.24.18-.18.35-.55.56-1.08l1.08-2.86c.44-1.2.53-1.46.67-1.92l.58-.28c.05 0 .09.01.1.08.18.55.32 1 .72 2.16l1.03 2.9c.18.51.31.83.45 1.01.14.18.3.2.63.23.09 0 .1.02.1.11 0 .1-.01.12-.1.12a29.09 29.09 0 0 0-2.4 0c-.07 0-.09-.02-.09-.12 0-.09.02-.1.08-.11.3-.03.6-.05.66-.23.07-.2 0-.45-.17-.93l-.4-1.11zm18.67-2.38c.01.06-.02.09-.09.1-.08.02-.1 0-.14-.06a2.8 2.8 0 0 0-.78-1.08c-.34-.26-.8-.39-1.22-.39-1.35 0-2.35 1.2-2.35 3.05 0 1.64 1.02 2.9 2.42 2.9 1.04 0 1.7-.43 2.23-1.26.04-.04.08-.06.19 0 .08.03.1.08.06.16-.52.93-1.3 1.6-2.6 1.6-1.92 0-3.3-1.38-3.3-3.38 0-1.97 1.39-3.38 3.32-3.38.42 0 .77.06 1.1.14.35.1.62.15 1.02.1.03.47.09 1.03.14 1.5zm6.22 3.23c0 .9-.01 1.04.09 1.22.1.16.38.17.73.2.07.01.09.02.09.11 0 .1-.02.12-.1.12a29.65 29.65 0 0 0-2.43 0c-.06 0-.07-.02-.07-.1 0-.1.01-.12.07-.12.33-.04.56-.04.66-.21.13-.21.12-.6.12-1.22v-3.2c0-.86 0-.97-.1-1.17-.1-.16-.36-.17-.72-.2-.06-.02-.07-.03-.07-.12 0-.12 0-.14.07-.14.38.02.87.05 1.23.05.37 0 .84-.03 1.2-.05.06 0 .1.02.1.14 0 .1-.04.1-.1.11-.32.04-.56.04-.67.21-.11.2-.1.61-.1 1.17v1.25c.6.03 1.14.03 1.72.03.56 0 1.09 0 1.67-.03V2.38c0-.86 0-.98-.1-1.17-.09-.16-.37-.17-.7-.2-.07-.02-.09-.03-.09-.12 0-.12.02-.14.08-.14.39.02.88.05 1.25.05.36 0 .82-.03 1.18-.05.08 0 .1.02.1.14 0 .1-.02.1-.09.11-.34.04-.56.04-.66.21-.12.2-.12.63-.12 1.17v3.2c0 .9 0 1.03.1 1.22.1.16.38.17.74.2.06.01.07.03.07.12 0 .1-.01.11-.07.11a31.08 31.08 0 0 0-2.45 0c-.07 0-.08-.02-.08-.1 0-.1.01-.12.08-.12.33-.04.55-.04.65-.21.11-.21.11-.6.11-1.22V4.03c-.58-.04-1.1-.04-1.67-.04-.58 0-1.11 0-1.72.04v1.55zm11.25 0c0 .38-.01.88.12 1.1.15.23.5.23.9.23.9 0 1.3-.15 1.59-.37.29-.2.52-.58.7-.9.03-.06.04-.09.14-.06s.1.07.09.12a9.5 9.5 0 0 1-.48 1.53 67.95 67.95 0 0 0-4.67 0c-.06 0-.08-.03-.08-.12s.02-.1.08-.11c.31-.04.53-.05.64-.22.11-.2.11-.6.11-1.2v-3.2c0-.86 0-.97-.1-1.17-.1-.16-.35-.17-.7-.2-.06-.02-.08-.03-.08-.12 0-.12.02-.14.08-.14.76.04 1.57.04 2.31.04.72 0 1.47 0 2.25-.04l.15 1.46c.01.06 0 .1-.08.11-.1.02-.13 0-.15-.06a2.03 2.03 0 0 0-.6-.9c-.24-.21-.63-.28-1.35-.28-.35 0-.65.01-.78.22-.11.18-.1.6-.1 1.08v1.29h.57c.58 0 1.01-.04 1.18-.18.2-.15.26-.37.3-.6 0-.04.01-.07.1-.07.12 0 .13.03.13.08l-.02.91.02 1.03c0 .06 0 .08-.12.08-.09 0-.1-.03-.11-.08-.04-.2-.11-.54-.32-.67a2.5 2.5 0 0 0-1.16-.2c-.2 0-.42 0-.56.02v1.6zm9.52 0c0 .38 0 .88.13 1.1.15.23.5.23.9.23.9 0 1.3-.15 1.59-.37.29-.2.51-.58.7-.9.02-.06.04-.09.13-.06.11.03.11.07.1.12a9.6 9.6 0 0 1-.48 1.53 67.95 67.95 0 0 0-4.68 0c-.05 0-.07-.03-.07-.12s.02-.1.07-.11c.32-.04.54-.05.65-.22.1-.2.1-.6.1-1.2v-3.2c0-.86 0-.97-.09-1.17-.1-.16-.36-.17-.7-.2-.07-.02-.08-.03-.08-.12 0-.12.01-.14.08-.14.76.04 1.56.04 2.31.04.72 0 1.47 0 2.25-.04.03.46.09 1.01.15 1.46.01.06 0 .1-.08.11-.1.02-.14 0-.15-.06a2.03 2.03 0 0 0-.6-.9c-.24-.21-.63-.28-1.35-.28-.35 0-.66.01-.78.22-.11.18-.1.6-.1 1.08v1.29h.57c.57 0 1.01-.04 1.17-.18.21-.15.27-.37.3-.6.01-.04.02-.07.11-.07.12 0 .13.03.13.08a30.38 30.38 0 0 0 0 1.94c0 .06-.01.08-.13.08-.08 0-.1-.03-.1-.08-.04-.2-.12-.54-.32-.67-.17-.11-.6-.2-1.16-.2-.2 0-.42 0-.57.02v1.6zm9.47-1.55c-.9-.46-1.4-.9-1.4-1.82 0-.87.74-1.6 1.92-1.6.28 0 .56.04.8.12.27.07.62.1.88.04.01.46.07.98.1 1.45 0 .05-.01.07-.1.1-.09 0-.1-.03-.11-.07-.3-.84-.87-1.36-1.55-1.36-.7 0-1.14.48-1.14 1.12 0 .45.22.85 1.02 1.23l.46.21c1.07.5 1.7.95 1.7 2 0 1.06-.7 1.93-2.29 1.93-.54 0-1.13-.14-1.64-.32a14.6 14.6 0 0 1-.3-1.46c0-.04.01-.09.1-.1.1-.02.12 0 .14.05.37.92 1.06 1.54 1.8 1.54.87 0 1.37-.58 1.37-1.28 0-.73-.44-1.11-1.33-1.56l-.43-.22zm8.79 1.55c0 .38-.01.88.12 1.1.15.23.5.23.9.23.9 0 1.3-.15 1.59-.37.29-.2.52-.58.7-.9.03-.06.04-.09.13-.06.11.03.11.07.1.12a9.6 9.6 0 0 1-.48 1.53 67.98 67.98 0 0 0-4.68 0c-.05 0-.07-.03-.07-.12s.02-.1.07-.11c.32-.04.54-.05.65-.22.1-.2.1-.6.1-1.2v-3.2c0-.86 0-.97-.09-1.17-.1-.16-.36-.17-.7-.2-.07-.02-.08-.03-.08-.12 0-.12.01-.14.08-.14.75.04 1.56.04 2.31.04.72 0 1.46 0 2.25-.04.03.46.09 1.01.15 1.46.01.06 0 .1-.08.11-.1.02-.14 0-.15-.06a2.03 2.03 0 0 0-.6-.9c-.24-.21-.63-.28-1.35-.28-.35 0-.66.01-.78.22-.11.18-.1.6-.1 1.08v1.29h.57c.57 0 1.01-.04 1.17-.18.21-.15.27-.37.3-.6.01-.04.02-.07.11-.07.12 0 .13.03.13.08a30.39 30.39 0 0 0 0 1.94c0 .06-.01.08-.13.08-.08 0-.1-.03-.1-.08-.04-.2-.12-.54-.32-.67a2.5 2.5 0 0 0-1.16-.2c-.2 0-.42 0-.56.02v1.6zm16.9-3.2c0-.83 0-.96-.1-1.14-.1-.16-.36-.16-.58-.16-.42 0-.82.07-1.07.27-.26.2-.49.62-.6.94-.03.05-.05.08-.15.06-.09-.02-.1-.05-.1-.1a26 26 0 0 0 .17-1.5c1 .04 1.93.04 2.87.04.92 0 1.89 0 2.89-.04.04.46.1 1.04.16 1.5 0 .05-.02.08-.1.1-.1.02-.12-.01-.14-.06-.11-.32-.33-.74-.6-.94-.24-.2-.64-.27-1.1-.27-.22 0-.46-.03-.59.17-.12.2-.12.61-.12 1.13v3.2c0 .9 0 1 .1 1.2.1.16.41.17.74.2.07.02.08.03.08.12 0 .1-.01.13-.08.13a20.25 20.25 0 0 0-2.45 0c-.06 0-.08-.03-.08-.12 0-.1.02-.11.08-.12.3-.04.57-.05.67-.22.1-.2.1-.59.1-1.19v-3.2zm10.26.5l-.42-1.25-.45 1.23-.54 1.5c.31.02.67.02 1 .02l.93-.01-.52-1.5zm.64 1.85c-.3-.02-.7-.04-1.04-.04-.38 0-.74.02-1.14.04l-.37 1c-.19.5-.22.81-.14 1.01.08.18.4.22.73.26.05 0 .08.02.08.11 0 .1-.02.12-.1.12-.33-.02-.78-.03-1.1-.03-.32 0-.64 0-.93.03-.07 0-.1-.02-.1-.12 0-.09.03-.1.1-.11.26-.04.4-.12.52-.24.17-.18.33-.55.54-1.08l1.09-2.86c.44-1.2.53-1.46.67-1.92l.58-.28c.05 0 .08.01.1.08.17.55.32 1 .72 2.16l1.03 2.9c.18.51.3.83.44 1.01.15.18.31.2.64.23.08 0 .1.02.1.11 0 .1-.02.12-.1.12a29.02 29.02 0 0 0-2.4 0c-.07 0-.09-.02-.09-.12 0-.09.02-.1.08-.11.3-.03.6-.05.66-.23.07-.2 0-.45-.18-.93l-.39-1.11zm8.05-.92c.2.03.42.05.65.05 1.3 0 1.78-.64 1.78-1.42 0-.89-.5-1.4-1.59-1.4-.3 0-.6 0-.72.18-.13.18-.12.65-.12 1.15V3.8zm0 1.77c0 .9 0 1.02.1 1.2.1.18.36.18.7.22.07 0 .09.02.09.12 0 .08-.02.11-.09.11a28.19 28.19 0 0 0-2.4 0c-.07 0-.08-.03-.08-.1 0-.1.01-.12.09-.13.3-.04.56-.05.66-.22.1-.2.1-.6.1-1.2V2.37c0-.86 0-.96-.1-1.15-.09-.18-.41-.2-.75-.23-.06 0-.08-.01-.08-.1 0-.12.02-.14.08-.14.39.02.86.04 1.22.04.33 0 .9-.05 1.5-.05 1.66 0 2.33.72 2.33 1.64 0 .67-.44 1.33-1.47 1.61.36.7.78 1.44 1.26 2.2.2.33.37.57.55.68.16.08.32.1.56.13.05 0 .07.02.07.11 0 .1-.03.12-.08.12l-.87-.03h-.68a5.84 5.84 0 0 0-.34-.7l-1.32-2.37a5.72 5.72 0 0 1-1.05-.01v1.46zm10.61-3.2c0-.83 0-.96-.1-1.14-.09-.16-.35-.16-.58-.16-.42 0-.82.07-1.07.27-.26.2-.49.62-.6.94-.02.05-.05.08-.14.06-.1-.02-.1-.05-.1-.1.06-.46.13-1.04.16-1.5 1 .04 1.93.04 2.87.04.92 0 1.9 0 2.9-.04.03.46.1 1.04.15 1.5 0 .05-.01.08-.1.1-.1.02-.12-.01-.14-.06-.1-.32-.33-.74-.6-.94-.24-.2-.64-.27-1.1-.27-.22 0-.46-.03-.58.17-.13.2-.12.61-.12 1.13v3.2c0 .9-.01 1 .1 1.2.1.16.4.17.73.2.07.02.09.03.09.12 0 .1-.02.13-.09.13a20.24 20.24 0 0 0-2.44 0c-.07 0-.08-.03-.08-.12 0-.1.01-.11.08-.12.3-.04.56-.05.66-.22.11-.2.1-.59.1-1.19v-3.2z" fill-rule="evenodd"/></svg>