<svg viewBox="0 0 240 340" xmlns="http://www.w3.org/2000/svg" xmlns:xlink="http://www.w3.org/1999/xlink"><defs><path id="a" d="M0 339.2h239.97V0H0z"/></defs><g fill="none" fill-rule="evenodd" opacity=".85"><path d="M229.08 11.33l-.42.44c.7.69 1.53 1.23 2.41 1.65.93-.64 1.72-1.33 2.34-2.09h-4.33zm-1.61-2.3h7.6V7.47h-7.6v1.58zm0-2h7.6V5.59h-7.6v1.46zm0-1.87h7.6V3.71h-7.6v1.45zm1.6 4.3c1.21.29 1.34.38 1.34.58 0 .16-.09.24-.57.34-.12.19-.27.37-.4.53h3.95c.77-.69.92-.8 1.07-.8.18 0 .32.11 1.07.73.35.29.46.42.46.56 0 .3-.09.35-.78.51-.77.8-1.61 1.51-2.53 2.11.35.11.7.2 1.08.27 1.68.37 3.7.55 6.15.55.09 0 .07.18-.02.2-.6.18-.92.53-1.14 1.24-.1.43-.18.52-.49.52-.2 0-.64-.05-1.15-.14a22.6 22.6 0 0 1-4.37-1.22c-.48-.2-.94-.42-1.36-.65-2.32 1.2-5.12 1.85-8.5 2.01-.1 0-.17-.21-.08-.23 2.9-.57 5.43-1.46 7.41-2.6a10.2 10.2 0 0 1-1.8-1.97 12.03 12.03 0 0 1-5.06 2.8c-.1.02-.17-.1-.1-.16a14.7 14.7 0 0 0 4.12-3.58c.4-.5.72-1.1.96-1.6h-.86v.07c0 .45-.31.67-1.1.67-.53 0-.7-.22-.7-.65 0-.62.1-1.2.1-4.28 0-1.12-.02-1.7-.08-2.83.92.32 1.06.38 1.94.85h1.96c.14-.56.24-1.14.3-1.73h-4.77c-.5 0-1.02.04-1.7.11l-.2-.67c.77.11 1.34.15 1.9.15h11.4c.88-1 1.1-1.15 1.23-1.15.16 0 .38.15 1.26.8.4.31.55.45.55.58 0 .13-.05.18-.24.18h-7.35c-.46.64-1 1.2-1.58 1.73h4.5c.63-.65.77-.76.92-.76.18 0 .35.1 1.04.62.31.23.42.36.42.5 0 .17-.09.28-.53.55v.9c0 2.32.08 3.88.08 4.41 0 .44-.32.67-1.1.67-.46 0-.64-.2-.64-.56v-.16h-6zM227.23 32a5.54 5.54 0 0 0-1.56 2.24 4.7 4.7 0 0 0-.3 1.73c0 .76.1 1.4.45 1.96.24.36.57.6.8.6.3 0 .57-.18 1.27-1.16a22.07 22.07 0 0 0 2.45-4.46c.26-.64.38-1.1.38-1.54 0-.44-.12-.68-.33-.82-1.39.2-2.52.87-3.16 1.45m4.44-.07c0 .44-.16 1.2-.4 1.93-.24.76-.62 1.7-1.15 2.62a14.95 14.95 0 0 1-2.03 3.03c-.4.44-.88.75-1.52.75-.46 0-.97-.22-1.4-.71-.65-.73-1-1.66-1-3.31 0-.9.3-1.95.79-2.77a7.05 7.05 0 0 1 2.47-2.54 8.23 8.23 0 0 1 4.43-1.18c2 0 3.42.54 4.53 1.42a5.56 5.56 0 0 1 2.15 4.61c0 1.57-.68 2.86-1.69 3.75a8 8 0 0 1-2.7 1.62c-1.18.42-2.6.65-3.76.69-.27 0-.4-.04-.4-.18 0-.15.11-.18.35-.24a9.1 9.1 0 0 0 4.7-2.38 5.39 5.39 0 0 0 1.65-4.22c0-1.3-.42-2.6-1.61-3.42a5.8 5.8 0 0 0-2.93-.98 8.25 8.25 0 0 0-1.15.02c.35.38.67.98.67 1.49m-1.15 23.47c.55-.64.7-.74.84-.74.19 0 .33.1.85.56.21.2.32.33.32.47 0 .18-.07.24-.93.6.37 3.77 1.61 6.8 3.73 8.93a13.5 13.5 0 0 0 4.54 2.91c.1.04.1.16 0 .2-.55.22-.91.7-1.2 1.4-.12.27-.2.35-.34.35s-.47-.19-.87-.48a12.46 12.46 0 0 1-3.55-3.74 16.68 16.68 0 0 1-2.07-5.4 15.7 15.7 0 0 1-8.67 9.84c-.1.03-.2-.19-.13-.24a16.7 16.7 0 0 0 5.5-6.37 22.1 22.1 0 0 0 2.33-7.87h-2.53c-.42.02-.7.05-1.18.13l-.2-.73c.34.1.69.14 1.33.18h2.23zm-.44 30.91c.35-.94.68-1.56 1-2.02.41-.54.96-.83 1.56-.83.72 0 1.5.38 2.05 1.29.59.96.9 2.4.9 3.76 0 2.06-.37 3.57-1.26 4.84a7 7 0 0 1-2.38 2.25 11.12 11.12 0 0 1-3.68 1.37c-.15 0-.24-.04-.24-.18 0-.13.11-.15.33-.24 2-.76 3.46-1.93 4.34-3.31.84-1.33 1.15-2.58 1.15-4.96a9.6 9.6 0 0 0-.36-3.02c-.28-.79-.66-1.06-1.14-1.06-.86 0-1.5.7-2.38 4.38-.2.84-.33 1.37-.34 1.95-.02.62.09.93.09 1.22 0 .49-.19.67-.64.67-.52 0-.97-.58-1.2-1.33a7.81 7.81 0 0 1-.25-2.43c0-1.19.2-2.57.44-3.97.1-.56.15-1 .15-1.56 0-.42-.15-.71-.48-1.11-.07-.1-.15-.15-.15-.24 0-.1.17-.22.4-.22.12 0 .3.06.54.22.58.42.93.84 1.2 1.4.15.3.22.57.22.78 0 .28-.07.42-.23.59-.13.12-.26.4-.31.54a9.93 9.93 0 0 0-.66 3.17c0 .5 0 .82.05 1.05.04.15.18.13.24-.03.46-1.46.73-2.17 1.04-2.97" fill="#000"/><mask id="b" fill="#fff"><use xlink:href="#a"/></mask><path d="M226.84 120.48h8.99v-9.39h-8.99v9.39zm0 .41v.86c0 .5-.29.8-1.06.8-.55 0-.77-.22-.77-.62 0-1.25.11-2.5.11-7.6 0-1.57-.01-3.13-.09-4.7 1 .43 1.14.5 2.09 1.04h8.5c.72-.81.87-.92 1.01-.92.19 0 .33.1 1.08.72.33.3.44.42.44.57 0 .18-.16.32-.55.58v1.65c0 4.37.11 7.28.11 8.28 0 .56-.27.85-1.13.85-.51 0-.75-.23-.75-.65v-.86h-8.99zM195.56 2.71c.38.5 1.19.76 2.87.76 1.04 0 1.92-.14 3.1-.5a2.77 2.77 0 0 1 1.43 0c.54.14.88.36.9.81.02.37-.1.55-.5.7-.25.09-.63.1-1.2.16-1.04.1-2.01.27-2.7.49-.76.22-1.27.42-2.39 1-.23.13-.49.29-.58.29-.1 0-.13-.02-.13-.1 0-.12.51-.54 1.7-1.48a3.86 3.86 0 0 1-2-.71c-.47-.37-.85-1.1-.85-1.4 0-.13.05-.18.15-.18.07 0 .14.09.2.16m-.22 5.82c0 .09-.02.18-.06.27a4.32 4.32 0 0 0-.3 1.68c0 .65.32 1.32.96 1.67.92.49 2.23.65 3.55.65 1.68 0 2.52-.2 3.22-.38.31-.07.79-.14 1.15-.14 1.08 0 1.45.56 1.45.96 0 .38-.46.84-1.08.95-.3.05-.92.16-1.89.23-.9.07-1.79.1-2.36.1a9.95 9.95 0 0 1-3.45-.6c-.74-.3-1.3-.75-1.7-1.28-.43-.53-.55-1.06-.55-1.84s.27-1.5.75-2.25c.07-.11.14-.17.22-.17.07 0 .09.08.09.15m.22 21.09c.38.5 1.19.76 2.87.76 1.04 0 1.92-.14 3.1-.5a2.77 2.77 0 0 1 1.43 0c.54.14.88.36.9.81.02.37-.1.55-.5.7-.25.08-.63.1-1.2.16-1.04.1-2.01.27-2.7.49-.76.22-1.27.42-2.39 1-.23.13-.49.29-.58.29-.1 0-.13-.02-.13-.11 0-.1.51-.53 1.7-1.47a3.86 3.86 0 0 1-2-.71c-.47-.37-.85-1.1-.85-1.4 0-.13.05-.18.15-.18.07 0 .14.09.2.16m-.22 5.82c0 .09-.02.18-.06.27a4.32 4.32 0 0 0-.3 1.67c0 .66.32 1.33.96 1.68.92.49 2.23.65 3.55.65 1.68 0 2.52-.2 3.22-.38.31-.07.79-.15 1.15-.15 1.08 0 1.45.57 1.45.97 0 .38-.46.84-1.08.94-.3.06-.92.17-1.89.24-.9.07-1.79.1-2.36.1a9.95 9.95 0 0 1-3.45-.6c-.74-.3-1.3-.75-1.7-1.28-.43-.53-.55-1.06-.55-1.84s.27-1.5.75-2.25c.07-.11.14-.17.22-.17.07 0 .09.08.09.15m1.22 27.4c1.63-1.35 2.97-1.98 4.85-1.98.97 0 1.83.22 2.49.56.7.36 1.17.78 1.48 1.24.35.5.57 1.02.57 2.09 0 1.36-.79 2.7-2.65 3.7-1.63.88-4.14 1.32-6.02 1.35-.4 0-.63.02-.7 0-.13-.03-.2-.09-.2-.22 0-.16.13-.18.4-.21a16 16 0 0 0 4.16-1.11c1.68-.73 3.1-2.04 3.1-3.91 0-.98-.29-1.66-.98-2.11a3.76 3.76 0 0 0-2.33-.58c-1.17 0-2.56.52-3.66 1.4a7.65 7.65 0 0 0-2.3 2.58c-.24.42-.44.67-.82.67-.57 0-.8-.67-.8-1.1 0-.24.03-.66.6-1.17.54-.5 1.24-1.18 1.75-1.71a106.8 106.8 0 0 0 4.83-5.4c.3-.37.35-.44.35-.58 0-.13-.2-.13-.46-.06-.3.1-.78.3-1.9.77-.57.25-1.03.47-1.25.67a.8.8 0 0 1-.6.22c-.27 0-.68-.28-.93-.64a2.8 2.8 0 0 1-.55-1.38c0-.18.04-.38.1-.53.06-.1.14-.2.21-.2.11 0 .18.11.3.31.36.62.65.75.98.75.64 0 1.63-.3 3.04-.75a.9.9 0 0 0 .46-.31.78.78 0 0 1 .6-.25c.27 0 .75.16 1.3.43.66.35.91.75.91 1.02 0 .2-.07.4-.36.55-.24.1-.37.21-.48.3-1.08 1-2.03 2.02-3.05 3.08a62.8 62.8 0 0 1-2.5 2.47l.06.04zm2.38 23.29c-.15.07-.33.14-.38.14-.15 0-.17-.05-.17-.16 0-.07.08-.16.22-.27a8.74 8.74 0 0 1 2.29-1.2c.93-.31 1.59-.38 2.36-.38 1.66 0 2.18.58 2.18 1.07 0 .5-.33.67-1.12.67-.24 0-.62-.05-.86-.05-.37 0-.82.05-1.08.12-.53.15-.99.35-2.14 1.3-.1.07-.15.1-.24.1s-.13-.05-.13-.12c0-.06.02-.11.13-.24.3-.36.7-.76 1.26-1.42a5.57 5.57 0 0 0-2.32.44m-.5 4.9c0 .26.03.68.23 1.15.3.73 1.17 1.35 3.13 1.35 1.4 0 2.1-.09 2.37-.16.26-.1.46-.2.75-.2.31 0 .8.16 1.07.29.32.16.49.4.49.69 0 .24-.13.56-.57.7-.4.15-1.3.32-3.07.32-3.11 0-4.92-1.28-4.92-3.51 0-.57.09-1.33.45-1.98.1-.17.13-.2.2-.2.08 0 .11.07.11.18 0 .12-.23.69-.23 1.36m-2.91 2.15c-.08.29-.11.6-.11 1.02 0 .38.1.85.1 1.03.03.51-.1.82-.5.82-.54 0-.7-.18-1.2-1.13-.36-.7-.6-2.07-.6-3.4 0-1.54.31-3.14.79-5.1.24-1 .36-1.55.36-1.86 0-.53-.14-.95-.47-1.44a.267.267 0 0 1-.07-.18c0-.06.09-.15.25-.15.2 0 .59.2.88.46.27.25.5.49.84 1.09.22.38.31.69.31 1 0 .24-.09.49-.25.65-.22.26-.31.46-.57 1-.4.93-.93 2.57-.93 3.9 0 1.09.05 1.58.2 1.83.03.08.1.08.14 0 .57-1.07 1.14-2.29 1.65-3.34.07-.17.17-.22.26-.22s.18.1.09.38c-.48 1.44-.97 2.84-1.17 3.64m2.05 21.3c-.11-.81-.1-1.61-.1-3.47 0-.53 0-.76-.07-.94-.05-.22-.16-.33-.53-.51-.18-.1-.36-.19-.55-.26-.1-.03-.16-.05-.16-.13 0-.1.1-.21.24-.29a2 2 0 0 1 .98-.29c.5 0 1.07.31 1.6.75.38.3.47.56.47.8 0 .25-.1.34-.22.5-.05.1-.09.23-.14.52-.04.21-.1.67-.11 1.12-.04 1.28-.06 1.88 0 2.31.03.37.25.44.5.44.2 0 .74-.27 1.6-.64.51-.21.86-.4 1.15-.56.19-.1.2-.3.1-.47a1.9 1.9 0 0 0-.37-.46c-.1-.09-.17-.14-.17-.22 0-.09.19-.2.42-.2.17 0 .32.04.63.2.34.19.8.51 1.15.91.15.19.42.59.42.91 0 .33-.15.5-.51.55-.3.03-.83.16-1.15.23-1 .24-2.07.48-3.35.99-2.71 1.07-3.88 2-3.88 3.45 0 1.17 1.08 1.82 3.51 1.82 1.89 0 2.78-.16 3.18-.33.32-.12.46-.21.86-.21.35 0 .6.05.94.16.51.16.78.47.78.8 0 .42-.12.69-.84.85-.77.19-1.63.3-3.7.3-1.37 0-2.54-.13-3.41-.4a3.62 3.62 0 0 1-1.65-1.02 2.52 2.52 0 0 1-.64-1.7c0-1.94 1.39-3.07 3.7-4.27-.39-.3-.6-.69-.68-1.24m7.11 24.79c.24-.13.57-.17 1.05-.1.5.08.9.35.9.88 0 .34-.19.45-.61.5-.26.04-.59.04-1.04.06a11 11 0 0 0-1.21.11c.02 1.04.02 2.18.02 2.93 0 2.14-.42 3.36-1.08 4.33-.8 1.16-2.2 2.07-4.14 2.58-.27.07-.53.1-.64.1-.14 0-.22-.03-.22-.16 0-.12.17-.16.33-.23a7.03 7.03 0 0 0 3.46-2.95c.59-1.09.84-2.49.82-4.24 0-.63.02-1.63 0-2.1l-1.44.21c-.59.1-.93.19-1.28.19-.6 0-1.2-.26-1.78-.8-.25-.24-.34-.35-.34-.5 0-.09.05-.14.12-.14.1 0 .17.05.24.09.33.14.92.24 1.56.24.5 0 1.52-.17 2.92-.4l-.03-2.15c-.02-.42-.02-.67-.17-.9-.07-.14-.29-.25-.5-.32-.2-.07-.41-.1-.6-.14-.1-.02-.18-.04-.18-.15 0-.07.06-.18.28-.35.25-.18.53-.29.91-.29.35 0 .73.13 1.2.42.52.31.98.7.98 1.1 0 .18-.04.28-.18.45a.8.8 0 0 0-.19.49 16.5 16.5 0 0 0-.07 1.5c.4-.08.68-.14.91-.26m-9.6 6.65c.55-1.22.84-1.98 1.28-3.07.07-.18.13-.26.22-.26.07 0 .1.08.1.17 0 .12-.05.3-.17.89-.19.8-.3 1.34-.48 2.14-.13.57-.24 1.02-.24 1.39 0 .21.02.41.06.63.03.24.05.35.05.53 0 .35-.14.76-.56.76-.39 0-.8-.3-1.18-.89-.54-.82-.91-1.87-.91-3.73 0-1.23.16-2.7.37-4.01.12-.79.18-1.04.23-1.37.1-.49.15-.78.15-1.29 0-.53-.22-.93-.55-1.35-.1-.12-.15-.18-.15-.25 0-.1.13-.18.24-.18.48 0 1.23.54 1.65 1.04.4.47.64 1 .64 1.36 0 .36-.15.54-.3.73a2.4 2.4 0 0 0-.4.72c-.49 1.66-.78 2.86-.78 4.08 0 .72.05 1.43.33 2.03.1.19.29.19.4-.07m4.19 28.64c-.39-.35-.75-.53-1.15-.53-.37 0-.68.11-.85.31a.87.87 0 0 0-.18.58c0 .27.13.7.53.93.44.25 1 .35 1.72.35.3 0 .6-.02.79-.06a3.33 3.33 0 0 0-.86-1.58zm-2.12-4.1a5.76 5.76 0 0 1 3.71-1.52c1.34 0 2.34.33 3.24 1.09.68.56 1.2 1.56 1.2 2.6 0 1.5-.58 2.71-1.84 3.58a6.34 6.34 0 0 1-3.62 1.08c-1.01 0-1.89-.13-2.53-.55a1.94 1.94 0 0 1-.93-1.67c0-.66.36-1.1.64-1.3.38-.27.82-.43 1.52-.43.84 0 1.6.45 2.08.93.33.34.79 1.09.94 1.5.58-.23.98-.56 1.28-.92.47-.58.66-1.33.66-2.2a3 3 0 0 0-.9-2.18 3.08 3.08 0 0 0-2.07-.7c-2.12 0-3.64 1.35-5.05 3.32-.36.5-.62.72-.9.72a.8.8 0 0 1-.53-.22.92.92 0 0 1-.33-.67c0-.22.02-.49.35-.82a76.53 76.53 0 0 0 6.35-7.43c.13-.19.2-.28.2-.37 0-.09-.09-.16-.22-.13-.47.13-1.1.39-1.92.77-.46.22-.73.36-1.04.53-.17.16-.42.36-.75.36-.28 0-.55-.13-.82-.44-.46-.52-.72-1-.72-1.38 0-.27.17-.67.3-.67.1 0 .18.13.32.33.32.4.53.52.77.52.53 0 1.58-.22 3.13-.72.4-.13.68-.24.88-.48a.7.7 0 0 1 .5-.23c.34 0 1.02.25 1.64.76.22.18.35.36.35.64 0 .25-.13.38-.3.47-.25.14-.47.25-.7.45-.52.44-1.2 1.13-2.51 2.66-.85.96-1.5 1.65-2.4 2.69l.02.04zM169.26 1.88c-.14 3.22-1.51 4.76-5.01 5.5-.1.03-.16-.17-.07-.21 2.41-1.02 3.4-2.5 3.47-5.3h-1.59c.07 1.4-.38 2.63-1.43 2.63-.47 0-.8-.35-.8-.84 0-.44.15-.64.66-1 .77-.5 1.04-1.02 1.1-2.04 0-.09.23-.1.25-.01.08.29.15.56.18.85h7.43c.6-.76.75-.87.9-.87.18 0 .33.1 1.15.83.37.35.48.48.48.62 0 .27-.13.38-.68.38-.3 0-.38.04-.58.22-.48.42-.9.7-1.41.98-.08.04-.2-.03-.17-.12a6.7 6.7 0 0 0 .55-1.62h-1.76v3.09c0 .47.13.53 1.12.53.5 0 .8-.06 1.06-.26.31-.23.5-.72.77-1.63.02-.1.2-.08.2.01-.02.42-.05.97-.05 1.26 0 .16.05.24.34.36.3.15.43.33.43.62 0 .38-.22.64-.74.8-.45.13-1.11.2-2.06.2-2.03 0-2.6-.3-2.6-1.58 0-.31.03-.87.03-1.53V1.88h-1.17zm1.16 7.55a7.1 7.1 0 0 0 2.17 2.18c1.06.69 2.4 1.16 4.01 1.47.1.02.1.16 0 .2-.58.22-.8.51-.95 1.26-.07.4-.11.47-.3.47-.1 0-.32-.1-.6-.22a10.36 10.36 0 0 1-2.8-2.13 10.9 10.9 0 0 1-1.83-2.94c0 2.76.15 5.6.15 6.22 0 .47-.38.69-1.02.69-.54 0-.75-.17-.75-.53 0-.56.14-2.98.18-4.87a12.04 12.04 0 0 1-5.66 3.81c-.09.04-.18-.16-.1-.21a14.5 14.5 0 0 0 5.04-5.4h-2.9c-.3 0-.59.03-1 .1l-.2-.67c.48.11.85.15 1.21.15h3.55v-.24c0-1.36 0-1.56-.07-2.2 1.76.2 2.12.3 2.12.58 0 .15-.07.22-.51.4v1.46h2.76c.88-.99 1.1-1.13 1.23-1.13.16 0 .36.14 1.19.78.36.31.51.46.51.58 0 .13-.05.19-.24.19h-5.2zm-7.74-6.02c-.44 0-.55-.1-.95-1.04a3.56 3.56 0 0 0-1.3-1.64c-.08-.05-.02-.14.07-.14 1.96.16 3.1.83 3.1 1.85 0 .57-.41.97-.92.97zm-1.06 4.23c-.33 0-.54-.12-.7-.47-.57-1.3-.68-1.44-1.5-2.15-.07-.05-.02-.14.07-.14 1.94.14 3 .8 3 1.76 0 .57-.4 1-.87 1zm.43 3.62c-.16.44-.21.86-.21 1.2 0 .97.73 1.73.73 2.7 0 .76-.5 1.3-1.17 1.3-.63 0-.9-.32-.9-.94 0-.6.15-1.2.15-1.8 0-1.19-.17-1.39-1.43-1.84-.1-.04-.06-.3.04-.27.34.05.62.09.75.09.34 0 .58-.13.8-.42a48.3 48.3 0 0 0 3.18-5.8c.04-.1.26 0 .22.09-.62 1.7-1.5 3.98-2.16 5.7zm6.54 17.65c0-.1-.06-.24-.2-.42-.13-.16-.35-.33-.5-.43-.1-.06-.16-.11-.16-.22 0-.2.33-.24.67-.24.7 0 1.32.44 1.92 1.15.37.43.46.72.46 1.01 0 .28-.16.55-.5.68-.49.18-.94.4-2.17 1.38-.95.76-2.45 1.98-3.15 2.65-.25.26-.45.5-.45.6 0 .19.1.28.23.42.1.11.52.46.97.77 1.94 1.3 3.7 2.67 4.5 3.6.88 1.02 1.07 1.54 1.07 2 0 .4-.08.65-.2.82-.15.2-.35.29-.76.29-.2 0-.54-.24-.97-.9a24.07 24.07 0 0 0-5.17-5.5c-.59-.48-.79-.9-.79-1.3 0-.36.11-.67.37-.96.25-.33.93-1.02 2.43-2.49.48-.47 1.12-1.15 1.88-2.02.42-.47.52-.67.52-.89m-.39 67.02h2.23v-2.65h-2.23v2.65zm0-3.07h2.23v-2.37h-2.23v2.37zm0-2.78h2.23V87.7h-2.23v2.37zm2.3-2.79a10.02 10.02 0 0 0 .67-2.9c1.77.48 2.06.63 2.06.92 0 .2-.14.3-.65.38-.5.68-.86 1.06-1.47 1.6h2.22c.7-.89.84-1 .98-1 .19 0 .35.11 1.01.7.35.3.46.4.46.54 0 .13-.08.18-.28.18h-3.57v2.36h1.18c.58-.81.8-.96.93-.96.16 0 .35.15.95.67.26.24.4.4.4.53s-.05.18-.24.18h-3.22v2.37h1.23c.59-.82.8-.97.93-.97.17 0 .35.15.96.68.25.23.4.4.4.52 0 .13-.06.19-.24.19h-3.28v2.65h1.61c.7-.96.92-1.1 1.05-1.1.16 0 .35.14 1.02.8.26.25.42.41.42.54 0 .12-.05.18-.23.18h-7.6v.54c0 .48-.29.7-.91.7-.5 0-.7-.15-.7-.55 0-1.04.1-2.1.1-6.27v-1.7c-.35.31-.72.62-1.12.93-.08.06-.26-.14-.2-.22a18.42 18.42 0 0 0 3.36-6.16h-1.31c.05 1.18-.4 2.16-1.4 2.16-.5 0-.82-.29-.82-.76 0-.42.13-.62.66-.91.73-.44 1.08-.98 1.08-1.76 0-.1.18-.13.22-.04.1.3.16.6.22.9h1.48l.17-.65c.14-.58.25-1.16.33-1.74 2.03.5 2.3.62 2.3.9 0 .24-.18.35-.7.44-.12.37-.25.71-.38 1.04h3.1c.62-.74.76-.85.9-.85.2 0 .34.1 1.22.87.4.36.5.49.5.64 0 .25-.2.34-.74.34-.31 0-.37.02-.55.18-.42.37-.93.7-1.36.91-.07.04-.18-.03-.14-.13a6.9 6.9 0 0 0 .46-1.54h-3.57a15.19 15.19 0 0 1-2.07 3.67h2.18zm-8.37 6.95h1.52v-6.2h-1.52v6.2zm1.28-11.26a14.5 14.5 0 0 1-1.32 4.53c.04.04.1.06.17.11h1.24c.59-.65.73-.76.88-.76.18 0 .33.1.88.58.23.22.34.34.34.49 0 .18-.1.3-.43.5v1.12c0 2.96.09 5 .09 5.67 0 .38-.39.64-1 .64-.45 0-.61-.17-.61-.64v-.56h-1.52v1.36c0 .51-.3.73-.92.73-.4 0-.71-.15-.71-.38 0-.62.1-1.24.1-3.71 0-.97 0-1.93.03-2.91-.42.53-.9 1.02-1.43 1.47-.07.06-.24-.09-.18-.16 1.53-2.4 2.3-4.7 2.65-8.08h-1.12c-.27 0-.53.04-.9.11l-.2-.67c.46.1.81.14 1.16.14h3.16c.66-.92.88-1.07 1.01-1.07.17 0 .35.15 1.03.75.29.27.43.43.43.56 0 .13-.05.18-.23.18h-2.6zm8.74 34.97l-.54.03c-.17 0-.2-.05-.2-.12 0-.08 0-.1.16-.17 1.6-.63 2.21-.98 2.21-1.27 0-.35-.16-.9-.55-1.5-.6-.9-1.1-1.4-2.1-1.85-.18-.07-.33-.14-.33-.25 0-.13.1-.18.28-.18l.12.02c1.05.14 2.18.74 2.97 1.5a4.27 4.27 0 0 1 1.53 3.37c0 .73-.45.98-.76 1a.87.87 0 0 1-.75-.3c-.19-.17-.33-.32-.63-.32-.64 0-1.04.02-1.4.04m-4.45-5.2c1.19 0 2.08 1.32 2.08 3.16 0 1.55-.23 2.91-.67 4.13a5.9 5.9 0 0 1-1.08 1.95c-.64.67-1.17 1.09-1.8 1.09-.54 0-.91-.24-.9-.82.03-.38-.12-.62-.36-.97-.2-.29-.5-.65-.78-.98-.1-.1-.13-.16-.13-.22 0-.09.05-.14.14-.14.1 0 .17.05.24.1.44.3.7.46 1.25.72.23.1.5.2.7.2a.8.8 0 0 0 .69-.33c.42-.53.7-1.26.95-2.07.27-.9.44-2.1.44-2.9 0-1.7-.26-2.21-1.08-2.21-.2 0-.68.07-.95.14-.83 1.73-1.81 3.88-2.58 5.42a45.76 45.76 0 0 1-1.81 3.38c-.11.19-.35.4-.81.4-.35 0-.7-.32-.7-.72 0-.4.15-.68.35-.99a58.14 58.14 0 0 0 4.05-7.02c-.72.28-1.41.55-2 .8-.24.11-.44.19-.53.26-.13.13-.35.16-.47.16-.33 0-.66-.16-1.03-.49-.35-.3-.7-.87-.7-1.23 0-.39.12-.66.28-.66.15 0 .16.1.24.2.3.4.66.64.93.64.55 0 1.04-.11 1.57-.22.68-.13 1.38-.33 2.13-.51.6-1.53.86-2.47.86-2.91 0-.22-.06-.4-.28-.53a4.6 4.6 0 0 0-.71-.3c-.15-.06-.28-.08-.28-.19 0-.16.13-.27.32-.33.16-.05.49-.14.9-.14a3 3 0 0 1 1.91 1.04.7.7 0 0 1 .17.5c0 .26-.19.44-.42.59-.15.09-.3.34-.39.56-.16.38-.42.9-.7 1.5.3-.06.76-.06.96-.06m.22 34.62c-.66 0-1.25.07-1.58.29a.99.99 0 0 0-.45.76c0 .37.18.66.45.84.32.18.8.29 1.3.29.59 0 1.23-.13 1.54-.44.3-.3.4-.67.4-1.18l-.01-.25c-.7-.24-1.18-.31-1.65-.31m2.05-6.6c-.3-.02-.66 0-.86.01-.15.02-.26.04-.35.04-.11 0-.18-.04-.18-.13 0-.1.09-.18.22-.23.6-.3 1.31-.37 1.9-.37 1.02 0 2.25.3 3.1.8.63.38.83.8.83 1.18 0 .42-.18.71-.64.71-.22 0-.55-.16-.71-.29-.7-.56-1.08-.63-1.43-.63-.36 0-.57.07-.82.23-.48.28-.68.64-.68 1.28 0 .45.15 1.7.62 3.38 2.82.94 3.57 1.69 3.57 2.4 0 .38-.16.76-.71.8-.26.02-.62-.1-1.06-.51-.26-.24-.8-.78-1.72-1.27.02.85-.31 1.62-.92 2-.56.38-1.24.5-2.12.5a3.3 3.3 0 0 1-2.09-.68 1.78 1.78 0 0 1-.73-1.39c0-.65.35-1.2.77-1.5a3.78 3.78 0 0 1 2.2-.66c.29 0 .9.02 1.31.09-.07-.96-.12-1.93-.12-2.71 0-1.56 1.22-2.24 2.43-2.5a3.8 3.8 0 0 0-1.81-.55m-.53-2.2c0 .41-.22.65-.77.85-.59.2-1.56.42-2.71.69a191.73 191.73 0 0 1-2.95 6.57c-.32.67-.53.98-.73 1.14a.97.97 0 0 1-.47.15.72.72 0 0 1-.57-.24.73.73 0 0 1-.26-.58c0-.31.33-.78.6-1.2a38.37 38.37 0 0 0 3.03-5.53c-.44.05-1.25.16-1.67.16-.5 0-.88-.05-1.19-.23-.44-.24-.82-.6-1.08-1.17a.75.75 0 0 1-.07-.3c0-.1.1-.12.13-.12.05 0 .09.02.2.11.27.22.53.37.82.44.4.1.68.1.9.1.6 0 1.52-.15 2.47-.35.5-1.31.6-1.9.6-2.3 0-.43-.13-.54-1.1-.9-.09-.04-.14-.1-.14-.17s.07-.18.18-.24c.24-.12.48-.18.8-.18.56 0 1.38.3 1.84.6.38.26.4.46.4.68 0 .2-.07.34-.24.47-.26.2-.44.5-.91 1.67.62-.2.87-.34 1.2-.54.31-.19.59-.24.77-.24.59.04.92.4.92.65m-5.57 65.01h7.45v-4.17h-7.45v4.17zm7.05-12.2c0 .74.02 1.23.02 1.45 0 .42-.31.67-1.05.67-.5 0-.75-.18-.75-.54 0-.11.02-.44.02-1.19v-.4h-3.35l.02 1.51c0 .44-.35.66-1.04.66-.53 0-.77-.18-.77-.58 0-.19.04-.66.06-1.59h-2.99c-.36 0-.75.04-1.24.11l-.2-.67c.58.11 1 .15 1.44.15h2.99v-.26c0-1.53 0-1.62-.08-2.25 2.16.23 2.38.29 2.38.56 0 .18-.16.3-.57.5v1.45h3.35c0-1.79 0-1.86-.05-2.51 2.06.25 2.34.32 2.34.6 0 .14-.15.25-.55.43v1.48h2.21c.9-1.08 1.12-1.22 1.25-1.22.16 0 .36.14 1.2.83.39.33.54.5.54.62 0 .13-.06.18-.24.18h-4.94zm-2.6 7.61h2.85c.72-.81.86-.92 1.01-.92.18 0 .33.1 1.08.76.35.31.46.44.46.58 0 .2-.13.31-.59.6v.75c0 1.94.06 3.29.06 3.73 0 .47-.39.72-1.12.72-.51 0-.75-.18-.75-.63v-.58h-7.45v.5c0 .5-.32.71-1.08.71-.53 0-.73-.21-.73-.61 0-.7.08-1.4.08-4.2 0-.8-.02-1.62-.06-2.44.97.47 1.12.54 2 1.03h2.52v-3.12h-5.53c-.36 0-.75.03-1.24.1l-.2-.67c.55.11.97.15 1.39.15h5.58v-1c0-.53-.04-1.11-.1-1.7 2.17.2 2.35.39 2.35.57 0 .16-.18.3-.53.46v1.67h4.6c1-1.1 1.22-1.24 1.35-1.24.16 0 .36.15 1.24.87.39.31.53.48.53.6 0 .13-.05.19-.24.19h-7.48v3.12zm-5.93 25.93c-.75.42-1.15 1.06-1.15 1.58 0 .28.05.44.16.6.17.22.39.28.6.28.36 0 .8-.22 1.2-.7.55-.65.99-1.43 1.44-2.36a4.9 4.9 0 0 0-2.25.6m12.4 1.13c.43.29.6.62.6.89 0 .31-.12.55-.24.67-.13.13-.43.2-.63.2s-.4-.03-.84-.34c-.55-.38-1.04-.86-2.07-1.4-.82 1.69-1.79 2.85-2.83 3.69a8.6 8.6 0 0 1-2.25 1.25c-.42.19-.95.35-1.12.35-.1 0-.18-.02-.18-.15 0-.09.02-.16.16-.23.37-.2.7-.35.94-.51a8.96 8.96 0 0 0 2.43-2.26c.6-.76 1.12-1.78 1.52-2.76-1.41-.58-2.86-.95-4.32-1.11a15.37 15.37 0 0 1-2 3.13c-.63.67-1.18.96-1.86.96-.55 0-.93-.18-1.2-.45a1.66 1.66 0 0 1-.45-1.22c0-.91.52-1.78 1.65-2.5.8-.48 1.8-.76 2.95-.81a46.43 46.43 0 0 0 1.95-5.18c.04-.13-.1-.17-.23-.13a7.9 7.9 0 0 0-2.13.93.88.88 0 0 1-.5.2c-.23 0-.58-.15-.83-.48-.35-.43-.7-1.03-.7-1.32 0-.15.02-.33.13-.5.06-.09.15-.21.24-.21.1 0 .16.12.27.32.22.33.4.66.86.66.37 0 .83-.1 1.76-.35.71-.2 1.13-.45 1.26-.69.1-.16.26-.29.53-.29.4 0 .8.24 1.2.5.17.12.3.28.3.52 0 .29-.14.42-.46.96-.27.48-.54 1.02-.95 1.93l-1.4 3.17c1.46.09 2.94.34 4.31.74.31-1.1.44-1.87.44-2.42 0-.5-.18-.73-.77-.98-.1-.05-.16-.02-.16-.13 0-.1.33-.4.73-.4.31 0 .93.24 1.37.57.7.5.8.74.8 1.05 0 .2-.07.33-.18.46-.12.16-.23.27-.27.43-.2.8-.33 1.28-.51 1.93 1.22.47 2.08.87 2.69 1.3m-9.02 22.99c-.11-.82-.1-1.62-.1-3.47 0-.53 0-.77-.07-.95-.05-.22-.16-.33-.53-.5-.18-.1-.36-.19-.55-.26-.1-.04-.16-.06-.16-.13 0-.1.1-.22.24-.3a2 2 0 0 1 .98-.28c.5 0 1.07.3 1.6.74.38.31.47.57.47.8 0 .26-.1.35-.22.51-.05.1-.09.22-.14.51-.04.22-.1.67-.11 1.13-.04 1.27-.06 1.87 0 2.3.03.37.25.45.5.45.2 0 .74-.28 1.6-.64.51-.22.86-.4 1.15-.56.19-.11.2-.31.1-.48a1.9 1.9 0 0 0-.37-.45c-.1-.1-.17-.15-.17-.22 0-.1.19-.2.42-.2.17 0 .32.04.63.2.34.18.8.5 1.15.9.15.2.42.6.42.92 0 .33-.15.49-.51.54-.3.04-.83.17-1.15.24-1 .24-2.07.47-3.35.98-2.71 1.08-3.88 2-3.88 3.46 0 1.16 1.08 1.82 3.51 1.82 1.89 0 2.78-.17 3.18-.33.32-.13.46-.22.86-.22.35 0 .6.05.94.16.51.17.78.48.78.8 0 .42-.12.7-.84.86-.77.18-1.63.29-3.7.29-1.37 0-2.54-.13-3.41-.4a3.62 3.62 0 0 1-1.65-1.02 2.52 2.52 0 0 1-.64-1.69c0-1.95 1.39-3.07 3.7-4.27-.39-.31-.6-.7-.68-1.24m.71 31.09a15.34 15.34 0 0 0 2.7-3.7c-.83.06-1.88.3-2.92.7-.02 1.07.07 2.2.22 3m-1.4-1.13c-.03-.38-.03-.89-.03-1.25a7.36 7.36 0 0 0-2.32 2.1c-.48.7-.64 1.26-.64 1.8s.16.74.46.74c.8 0 1.31-.28 2.78-1.3-.17-.78-.24-1.45-.26-2.09m7.23-2.7c.44.18 1.1.52 1.72 1.23.64.75.93 1.5.93 2.47 0 2.06-1.48 3.6-3.93 4.42-1.58.53-3.28.73-4.16.75-.23 0-.36-.04-.36-.16 0-.15.1-.19.3-.22 1.07-.26 2.15-.58 3.08-1.04a6.5 6.5 0 0 0 2.5-1.87c.56-.78.72-1.46.72-2.28 0-.94-.25-1.78-.84-2.3a2.92 2.92 0 0 0-1.64-.79c-.15.22-.3.42-.59.9a21.27 21.27 0 0 1-3.18 3.7c.18.42.33.57.42.71.13.18.18.33.18.57 0 .27-.22.6-.66.6-.3 0-.78-.31-1.11-.9-1.47 1.12-2.7 1.7-3.6 1.7-.94 0-1.38-.71-1.38-1.77 0-1.14.82-2.54 2.12-3.65.59-.51 1.47-1.1 2.3-1.48.06-.94.13-1.72.24-2.63-.6.07-1.17.09-1.42.09-1.14 0-1.7-.36-2.12-1.1-.08-.1-.2-.36-.2-.5 0-.07.05-.15.12-.15.11 0 .13.08.24.17.57.41 1 .5 1.72.5.62 0 1.3-.09 1.85-.2.07-.49.07-.74.1-1.18.03-.21.04-.41.04-.58 0-.42-.14-.49-.47-.67a2.1 2.1 0 0 0-.48-.16c-.16-.04-.25-.1-.25-.19 0-.1.12-.18.23-.25.2-.15.53-.26.8-.26.52 0 1.09.26 1.6.57.37.22.64.5.64.78 0 .2-.14.35-.38.55-.2.16-.31.29-.48 1.1 1.2-.34 2.16-.69 2.73-1.07.27-.18.64-.18.97-.18.47 0 .9.25.9.6s-.19.45-.52.65c-.3.19-.9.39-2.1.73-.68.2-1.34.38-2.23.57-.2.85-.32 1.7-.35 2.3.77-.25 1.74-.47 3-.58a.52.52 0 0 0 0-.23c-.02-.13-.13-.26-.39-.48-.09-.09-.18-.1-.18-.21 0-.1.15-.2.5-.2.34 0 .7.05 1.22.56.24.24.33.36.33.5 0 .06 0 .14-.02.2.51.03 1.06.15 1.54.35m-7.87 26.31c-.25.3-.51.59-.51 1 0 .46.4.8 1.46.8.5 0 1.14-.03 1.83-.1 0-.97 0-1.73-.02-2.7l-1.72.24c-.38.18-.8.5-1.04.76m.77 6.31c-.57.06-1.03.13-1.4.35-.28.18-.47.44-.47.75 0 .29.22.63.59.81.37.2.91.24 1.57.24.68 0 1.21-.16 1.52-.5.33-.4.3-1 .3-1.45a6.79 6.79 0 0 0-2.11-.2m-1.85-7.05c-1 0-1.9-.42-2.41-1.46-.04-.07-.1-.14-.1-.23 0-.08.08-.17.17-.17.07 0 .1.04.16.11.44.48 1.16.66 2.27.66a28 28 0 0 0 3.75-.42v-1.78c0-.53-.01-.77-.16-.91a1.07 1.07 0 0 0-.51-.22 2.86 2.86 0 0 0-.42-.07c-.08 0-.11-.04-.11-.13 0-.11.07-.2.22-.35.14-.14.45-.3.73-.3.47 0 .95.18 1.4.45.67.38.8.7.8.93 0 .25-.15.4-.26.5-.15.15-.31.26-.35.7l-.1 1c.7-.11 1.27-.22 1.8-.33.4-.1.68-.15 1.04-.33.19-.1.32-.18.9-.18.68 0 1.32.47 1.32.93 0 .54-.24.65-1.21.74-1.24.11-2.73.26-3.9.42a64.9 64.9 0 0 0 0 2.73c.68-.11 1.17-.22 1.6-.38.25-.11.22-.24.07-.58-.06-.15-.22-.39-.42-.7-.08-.16.03-.23.2-.1.33.23.7.47 1 .65.35.2.52.16.68.16.55 0 .86.24.86.66 0 .38-.4.54-.99.76-.82.31-1.94.6-2.96.75.02.78.13 2.09.18 2.82a13.6 13.6 0 0 1 3.7 1.6c.58.34 1.1.76 1.1 1.43 0 .4-.28.8-.7.8-.18 0-.38-.03-.68-.29a11.35 11.35 0 0 0-3.29-2.2c.1 1.66-.75 2.71-2.85 2.71-.66 0-1.65-.13-2.33-.62-.47-.34-.88-.81-.88-1.58 0-.58.35-1.07.92-1.45.44-.3 1-.44 1.74-.55.51-.07 1.28-.05 1.96-.02 0-.85-.02-1.72-.06-2.5-.47.03-1.17.03-1.48.03-1.81 0-2.62-.6-2.62-1.51 0-.67.4-1.18.7-1.5.2-.23.51-.45.9-.72-.32.02-.92.04-1.38.04m-.97 30.71c-.75.42-1.15 1.05-1.15 1.58 0 .27.05.44.16.6.17.22.39.27.6.27.36 0 .8-.21 1.2-.69.55-.65.99-1.44 1.44-2.36a4.9 4.9 0 0 0-2.25.6m12.4 1.13c.43.29.6.61.6.89 0 .3-.12.54-.24.67-.13.13-.43.2-.63.2s-.4-.04-.84-.35c-.55-.38-1.04-.85-2.07-1.4-.82 1.7-1.79 2.86-2.83 3.7a8.6 8.6 0 0 1-2.25 1.25c-.42.18-.95.35-1.12.35-.1 0-.18-.02-.18-.15 0-.09.02-.16.16-.24.37-.2.7-.34.94-.5a8.96 8.96 0 0 0 2.43-2.26c.6-.76 1.12-1.78 1.52-2.76a15.54 15.54 0 0 0-4.32-1.11 15.37 15.37 0 0 1-2 3.12c-.63.68-1.18.97-1.86.97-.55 0-.93-.18-1.2-.46a1.66 1.66 0 0 1-.45-1.22c0-.9.52-1.78 1.65-2.49.8-.49 1.8-.76 2.95-.81a46.43 46.43 0 0 0 1.95-5.19c.04-.13-.1-.16-.23-.13a7.9 7.9 0 0 0-2.13.93.88.88 0 0 1-.5.2c-.23 0-.58-.14-.83-.47-.35-.44-.7-1.04-.7-1.33 0-.14.02-.33.13-.49.06-.09.15-.22.24-.22.1 0 .16.13.27.33.22.33.4.65.86.65.37 0 .83-.09 1.76-.34.71-.2 1.13-.46 1.26-.7.1-.16.26-.28.53-.28.4 0 .8.23 1.2.49.17.13.3.29.3.53 0 .29-.14.41-.46.96-.27.47-.54 1.02-.95 1.93l-1.4 3.16c1.46.1 2.94.35 4.31.75.31-1.11.44-1.88.44-2.42 0-.51-.18-.73-.77-.98-.1-.06-.16-.02-.16-.13s.33-.4.73-.4c.31 0 .93.24 1.37.56.7.51.8.75.8 1.06 0 .2-.07.32-.18.45-.12.17-.23.27-.27.44-.2.8-.33 1.27-.51 1.93 1.22.47 2.08.87 2.69 1.3m-65.07-317.7c-.6 0-.7-.13-1.4-1.68a8.13 8.13 0 0 0-2.07-2.6c-.08-.05.05-.18.14-.14 2.9 1.07 4.25 2.14 4.25 3.34 0 .64-.37 1.08-.92 1.08zm-5.06-5.59c.01 2.93.09 4.95.09 5.64 0 .47-.35.71-1 .71-.61 0-.85-.18-.85-.62 0-.54.1-2.16.1-5.45v-.28h-3.14c-.38 0-.75.04-1.26.11l-.2-.67c.58.1 1.04.15 1.48.15h3.11c0-1.42-.04-1.97-.1-2.73 2.13.29 2.3.33 2.3.58 0 .16-.17.3-.53.44v1.7h1.77c.66-.83.88-.98 1-.98.17 0 .4.15 1.14.7.35.25.5.4.5.52 0 .13-.06.18-.24.18h-4.17zm-3.52 2.42a10.78 10.78 0 0 1-4.6 3.53c-.1.04-.26-.1-.19-.16 1.04-.95 1.98-2.1 2.6-3.19.35-.6.6-1.16.75-1.69 1.7.59 2.18.82 2.18 1.06 0 .25-.2.4-.74.45zm6.06-9.96l.02 1.2c0 .4-.31.58-1 .58-.5 0-.72-.13-.72-.5 0-.1.02-.43.02-1.08v-.2h-3.3l.02 1.18c0 .44-.33.6-1 .6-.5 0-.72-.15-.72-.55 0-.14.04-.52.04-1.23h-3.26c-.35 0-.7.03-1.15.1l-.2-.67c.55.11.95.15 1.35.15h3.28v-.44c0-1.09 0-1.25-.1-1.83 2.13.21 2.33.29 2.33.52 0 .17-.17.3-.59.46v1.29h3.3c0-1.5 0-1.71-.06-2.27 1.96.2 2.25.29 2.25.54 0 .15-.1.26-.53.44v1.29h2.32c.83-.96 1.05-1.11 1.18-1.11.16 0 .38.15 1.22.78.39.3.53.44.53.57 0 .12-.05.18-.24.18h-5zM95.89 10.5c-.09.02-.2-.22-.1-.25a17.48 17.48 0 0 0 5.76-4.51 6.85 6.85 0 0 0 1.28-2.1c1.86.6 2.32.79 2.32 1 0 .2-.07.24-.7.28.88.87 1.95 1.58 3.2 2.14 1.45.66 3.17 1.11 5.08 1.33.09.02.09.22 0 .24-.53.07-.85.43-1.1 1.29-.1.33-.17.44-.31.44-.19 0-.51-.11-.94-.3-.93-.4-2.26-1.16-3.18-1.81a13.02 13.02 0 0 1-2.98-3.04c-1.85 2.3-4.89 4.24-8.33 5.3zm8.53 23.7h2.74v-1.6h-2.74v1.6zm0 .42c-.02.42-.27.6-.92.6-.47 0-.69-.16-.69-.55 0-.2.04-.8.04-2v-.07h-2.47v3.6h8.27c.75-.89.97-1.03 1.1-1.03.16 0 .36.14 1.1.72.32.26.47.42.47.55 0 .13-.06.18-.24.18h-10.7v.13c0 .49-.26.67-1 .67-.52 0-.74-.16-.74-.58 0-.26.05-1.07.05-2.71V32.6h-1.22c-.39 0-.79.04-1.3.11l-.2-.67c.62.1 1.08.14 1.53.14h1.2c-.03-.87-.04-1.22-.08-1.7 2.09.21 2.2.28 2.2.5 0 .15-.13.22-.44.38v.82h2.47c0-.7-.04-1.09-.08-1.67 1.81.15 2.13.22 2.13.47 0 .18-.11.28-.48.48v.72h2.74V32c0-.78-.01-.93-.05-1.49 1.72.1 2.14.2 2.14.47 0 .18-.11.28-.48.48v.72h.94c.75-.92.97-1.07 1.1-1.07.16 0 .34.15 1.07.75.32.27.46.43.46.56 0 .13-.05.18-.24.18h-3.33l.04 2c0 .42-.33.62-.93.62-.51 0-.72-.15-.72-.55v-.05h-2.74zm2.62-5.44l.01.77c0 .45-.29.61-.93.61-.51 0-.73-.12-.73-.54 0-.07.02-.35.02-.84h-3.13v.71c0 .47-.28.66-.93.66-.53 0-.72-.15-.72-.55l.04-.82h-3.35c-.35 0-.7.04-1.17.11l-.2-.67c.55.1.95.14 1.37.14h3.35v-.09c0-.96-.02-1.22-.1-1.76 2.02.16 2.24.2 2.24.45 0 .17-.15.3-.53.46v.94h3.13c0-1.18-.02-1.3-.1-1.87 2.22.24 2.28.26 2.28.51 0 .16-.15.25-.55.42v.94h2.3c.88-1.03 1.1-1.18 1.23-1.18.16 0 .36.15 1.24.82.4.33.55.47.55.6s-.05.18-.24.18h-5.08zm-2.24 9.84c.68.62 1.56 1.11 2.58 1.5 1.38.5 3.08.81 5.16.92.1 0 .1.16 0 .2-.53.24-.86.65-1.15 1.4-.1.25-.15.33-.33.33-.14 0-.44-.08-.8-.2-1.21-.42-2.36-.98-3.42-1.7a9.44 9.44 0 0 1-2.24-2.07c.08 1.93.15 3.51.15 3.79 0 .49-.31.69-1.08.69-.53 0-.75-.2-.75-.6 0-.33.1-1.7.13-3a15.07 15.07 0 0 1-7.23 3.05c-.1.02-.2-.18-.1-.22 2.66-1.09 4.78-2.45 6.28-4.09h-4.26c-.44 0-.86.04-1.44.11l-.2-.67c.67.1 1.17.14 1.68.14h5.21v-.42c0-.52-.02-.7-.07-1.21 2.05.18 2.34.25 2.34.5 0 .17-.16.3-.58.48v.65h4.44c.84-.94 1.06-1.09 1.2-1.09.16 0 .38.15 1.22.77.38.29.53.43.53.56 0 .13-.06.18-.24.18h-7.03zm-4.77 19.89a5.53 5.53 0 0 0-1.56 2.24 4.72 4.72 0 0 0-.3 1.73c0 .76.1 1.4.45 1.96.24.36.57.6.8.6.3 0 .57-.18 1.27-1.16a21.98 21.98 0 0 0 2.45-4.46c.26-.64.38-1.11.38-1.55 0-.43-.12-.67-.33-.81-1.39.2-2.52.87-3.16 1.45m4.45-.07c0 .43-.17 1.2-.4 1.93-.25.76-.63 1.7-1.16 2.61a14.95 14.95 0 0 1-2.03 3.04c-.4.44-.88.75-1.52.75-.46 0-.97-.22-1.39-.71-.66-.73-1-1.66-1-3.31 0-.9.29-1.95.78-2.77a7.04 7.04 0 0 1 2.47-2.54 8.23 8.23 0 0 1 4.43-1.18c2 0 3.42.54 4.54 1.41a5.56 5.56 0 0 1 2.14 4.62c0 1.57-.68 2.86-1.69 3.75a7.99 7.99 0 0 1-2.7 1.62c-1.18.42-2.6.65-3.76.69-.27 0-.4-.04-.4-.18 0-.15.11-.18.35-.24a9.1 9.1 0 0 0 4.7-2.38 5.4 5.4 0 0 0 1.65-4.22c0-1.3-.42-2.6-1.61-3.42a5.8 5.8 0 0 0-2.93-.98 8.25 8.25 0 0 0-1.15.02c.35.38.68.98.68 1.49m.16 24.46c.46 2.66 1.22 5.4 2.76 7.63a24.47 24.47 0 0 0 2.2-7.64h-4.96zm4.74-.43c.75-.85.9-.96 1.04-.96.18 0 .33.1 1.12.8.36.35.47.47.47.62 0 .22-.13.34-.6.58a20.41 20.41 0 0 1-3.08 8.22 12.93 12.93 0 0 0 4.56 3.18c.1.04.06.22-.03.24-.55.16-.8.45-1.07 1.2-.12.34-.16.42-.33.42-.12 0-.34-.11-.64-.3-1.35-.9-2.5-2.1-3.44-3.47a14.44 14.44 0 0 1-4.6 3.71c-.08.04-.2-.16-.14-.22a18.09 18.09 0 0 0 4.03-4.63 20.74 20.74 0 0 1-2.45-8.95c-.3.02-.6.05-.97.13l-.2-.71c.64.1 1.13.14 1.6.14h4.73zm-7.01 1.51c0 9.04.07 11.31.07 12.26 0 .53-.33.82-1.06.82-.56 0-.8-.2-.8-.64l.07-4.6a19.7 19.7 0 0 1-3.42 2.1c-.04.56-.18.81-.42.81s-.26-.04-1.15-2.38c.25.02.7-.04 1.2-.13l.3-.05v-7.19c-.02-.9-.06-1.7-.15-2.43 2.16.2 2.36.38 2.36.56 0 .18-.18.35-.59.5v8.23c.63-.15 1.27-.31 1.87-.5.02-1.12.02-2.41.02-3.94 0-4.85-.02-6.02-.15-6.85 2.23.18 2.49.25 2.49.52 0 .17-.05.22-.64.5v2.41zm1.96 33.37h2.21v-1.42h-2.21v1.42zm0-1.84h2.21v-1.3h-2.21v1.3zm0-1.73h2.21v-1.29h-2.21v1.3zm-.07 5.66a8.26 8.26 0 0 0 2.56 1.58c.71-.47 1.35-1 1.88-1.58h-4.44zm4.92-9.44c0 .4-.33.6-.9.6-.48 0-.7-.14-.7-.5 0-.08.02-.26.02-.55h-1.68c.02.21.02.38.02.45 0 .4-.35.6-.9.6-.5 0-.7-.14-.7-.5 0-.08.02-.26.02-.55h-1.31c-.4 0-.8.03-1.36.1l-.2-.67c.62.11 1.08.15 1.56.15h1.33v-.47c0-.5 0-.75-.05-1.3 1.77.19 2.07.26 2.07.51 0 .17-.15.3-.5.42v.84h1.72V109c0-.47 0-.7-.05-1.22 1.75.17 2.05.24 2.05.5 0 .16-.15.28-.46.41v.84h1.02c.68-.86.9-1 1.03-1 .16 0 .35.14 1 .7.28.24.42.4.42.53s-.05.19-.23.19h-3.22v.45zm-6.37 3.77c-.57.47-1.2.85-1.88 1.16-.1.04-.2-.06-.15-.13.93-.96 1.72-2.02 2.23-3.09.22-.45.4-.9.53-1.35 1.5.46 1.98.64 1.98.82 0 .2-.19.31-.72.4-.1.17-.23.33-.34.5h2.14a5.36 5.36 0 0 0 .47-1.57c1.54.38 2.02.56 2.02.73 0 .23-.24.3-.74.36-.45.26-.71.36-.97.47h2.6c.59-.72.8-.87.94-.87.16 0 .34.15.93.62.24.2.38.36.38.49s-.05.18-.24.18h-3.91v1.3h1.44c.57-.64.8-.79.92-.79.16 0 .35.15.9.53.23.16.36.36.36.49s-.05.18-.24.18h-3.38v1.31h1.37c.55-.64.77-.78.9-.78.16 0 .35.14.88.53.23.18.36.36.36.49 0 .12-.05.18-.24.18h-3.27v1.42h1.83c.7-.82.91-.97 1.04-.97.17 0 .35.15 1.03.66.29.22.42.42.42.54 0 .13-.06.19-.24.19h-7.83v.1c0 .42-.31.6-.88.6-.5 0-.71-.14-.71-.52 0-.35.07-1.42.07-3.5v-.68zm5.95 5.25c.7-.65.84-.76.98-.76.19 0 .33.1 1.05.69.33.29.44.42.44.56 0 .26-.17.35-.86.58-.63.55-1.28 1.02-2 1.44 1.28.31 2.78.47 4.54.51.1 0 .1.16 0 .18-.57.17-.93.57-1.13 1.2-.06.22-.15.33-.32.33-.18 0-.47-.06-.82-.13-.95-.2-2.38-.69-3.26-1.13-.14-.07-.29-.14-.44-.23a22.02 22.02 0 0 1-6.64 1.63c-.09.02-.16-.21-.07-.23a21.6 21.6 0 0 0 5.69-2.1 9.03 9.03 0 0 1-2.03-2.12h-1.12c-.36 0-.71.04-1.19.14l-.2-.7c.55.1.97.14 1.4.14h5.98zm-9.06-3l.02 7.33c0 .49-.31.69-1.06.69-.44 0-.66-.18-.66-.5 0-.85.24-4.45.25-7.5a9.9 9.9 0 0 1-2.67 3.89c-.07.05-.24-.04-.18-.1a20.46 20.46 0 0 0 2.43-6.65H96.8c-.27 0-.55.04-.91.11l-.2-.67c.41.1.74.14 1.06.14h1.37v-3.05c-.72.15-1.48.24-2.36.3-.1 0-.15-.15-.06-.2a15.65 15.65 0 0 0 3.75-1.85c.31-.2.6-.43.88-.69 1.3.91 1.63 1.15 1.63 1.35 0 .14-.2.3-.8.2-.5.2-.98.36-1.45.5v3.44h.31c.48-.7.7-.85.82-.85.17 0 .35.15.88.6.22.2.37.36.37.5 0 .12-.06.17-.24.17H99.7v1.68c1.34.3 2.16.89 2.16 1.6 0 .49-.35.89-.79.89-.35 0-.47-.15-.62-.66-.22-.72-.4-1.12-.75-1.45v.78zm8.85 28.44l-.54.03c-.17 0-.2-.05-.2-.12 0-.08 0-.1.16-.17 1.6-.63 2.21-.98 2.21-1.27 0-.35-.16-.91-.55-1.5-.6-.9-1.1-1.4-2.1-1.85-.18-.07-.33-.14-.33-.25 0-.13.1-.18.28-.18l.12.02c1.05.14 2.18.74 2.97 1.5a4.27 4.27 0 0 1 1.53 3.37c0 .73-.45.98-.76 1a.87.87 0 0 1-.75-.3c-.19-.17-.33-.32-.63-.32-.64 0-1.04.02-1.4.04m-4.45-5.2c1.19 0 2.08 1.32 2.08 3.16 0 1.55-.23 2.91-.67 4.13a5.9 5.9 0 0 1-1.08 1.94c-.64.68-1.17 1.1-1.8 1.1-.54 0-.91-.24-.9-.82.03-.38-.12-.62-.36-.97-.2-.29-.5-.65-.78-.98-.1-.1-.13-.16-.13-.22 0-.09.05-.14.14-.14.1 0 .17.05.24.1.44.3.7.46 1.25.72.23.1.5.2.7.2a.8.8 0 0 0 .69-.33c.42-.53.7-1.26.95-2.07.27-.9.44-2.1.44-2.9 0-1.7-.26-2.21-1.08-2.21-.2 0-.68.07-.95.14-.83 1.73-1.81 3.87-2.58 5.42a45.76 45.76 0 0 1-1.81 3.38c-.11.18-.35.4-.81.4-.35 0-.7-.32-.7-.72 0-.4.15-.68.35-.99a58.14 58.14 0 0 0 4.05-7.02c-.72.28-1.41.55-2 .8-.24.11-.44.19-.53.26-.13.13-.35.16-.47.16-.33 0-.66-.16-1.03-.49-.35-.3-.7-.87-.7-1.24 0-.38.12-.65.28-.65.15 0 .16.1.24.2.3.4.66.64.93.64.55 0 1.04-.11 1.57-.22.68-.13 1.38-.33 2.13-.51.6-1.53.86-2.47.86-2.91 0-.22-.06-.4-.28-.53a4.6 4.6 0 0 0-.71-.3c-.15-.06-.28-.08-.28-.19 0-.16.13-.27.32-.33.16-.05.49-.14.9-.14a3 3 0 0 1 1.91 1.03.7.7 0 0 1 .17.51c0 .26-.19.44-.42.59-.15.09-.3.34-.39.56-.16.38-.42.9-.7 1.5.3-.06.76-.06.96-.06m2.36 29.54c1.33 0 2.41.42 3.05 1.1.59.61.88 1.3.88 2.3 0 1.5-1.1 2.88-3.07 3.7a17.8 17.8 0 0 1-6.13 1.1c-.3.02-.42-.05-.42-.2 0-.12.13-.16.38-.2 1.9-.27 3.66-.83 4.96-1.61 1.72-1 2.4-2.31 2.4-3.44 0-.71-.24-1.22-.64-1.58-.44-.39-.9-.59-1.8-.59-.95 0-2.43.7-4.1 2.59-.62.69-.8 1-.96 1.61-.11.39-.37.53-.53.53-.4 0-.74-.2-1.07-.7a2.29 2.29 0 0 1-.42-1.37c0-.67.28-2.55.42-3.58.08-.5.13-.9.13-1.26v-.56c0-.42.22-.84.72-1.17.45-.3 1.22-.61 2.28-.94-.38-.22-.98-.71-1.2-.97-.42-.49-.77-1.09-.77-1.7 0-.26.03-.37.1-.37.1 0 .14.1.23.26.38.63 1.4 1.12 2.8 1.49.82.22 1.48.74 1.55 1.45.04.4-.22.86-.7.86-.21 0-.34 0-.62-.06-.33-.07-.53-.09-.78-.1a5.24 5.24 0 0 0-2.27.3c-.42.15-.57.5-.57.64 0 .16.02.27.07.45.1.3.32.84.32 1.3 0 .3-.11.67-.15.94-.1.67-.17 1.4-.18 2.31 0 .16.12.16.3.04l.52-.37c.48-.34 1.3-.87 1.96-1.22a7.32 7.32 0 0 1 3.3-.98m-6.3 21.87c.38.51 1.19.77 2.87.77 1.04 0 1.92-.15 3.1-.51a2.77 2.77 0 0 1 1.43 0c.54.14.88.36.9.82.02.36-.1.54-.5.69-.25.09-.63.1-1.2.16-1.04.11-2.01.27-2.7.5-.76.21-1.27.41-2.39 1-.23.12-.49.28-.58.28-.1 0-.13-.01-.13-.1 0-.11.51-.53 1.7-1.48a3.86 3.86 0 0 1-2-.7c-.47-.37-.85-1.1-.85-1.4 0-.14.05-.19.15-.19.07 0 .14.1.2.16m-.22 5.82c0 .1-.02.19-.06.28a4.32 4.32 0 0 0-.3 1.67c0 .65.32 1.33.96 1.67.92.5 2.23.66 3.55.66 1.68 0 2.52-.2 3.22-.39.31-.07.79-.14 1.15-.14 1.08 0 1.45.56 1.45.96 0 .39-.46.84-1.08.95-.3.05-.92.16-1.89.24-.9.07-1.79.09-2.36.09a9.95 9.95 0 0 1-3.45-.6c-.74-.3-1.3-.75-1.7-1.28-.43-.52-.55-1.05-.55-1.83 0-.79.27-1.51.75-2.26.07-.1.14-.16.22-.16.07 0 .09.07.09.14m10.99 19.67c.37.23.66.53.66.93s-.25.67-.56.67c-.28 0-.48-.07-.68-.4a4.62 4.62 0 0 0-1.28-1.42c-.08-.05-.22-.15-.22-.22 0-.05.02-.09.05-.1.08-.04.15-.04.3-.03.65.08 1.15.2 1.73.57m-1.75 1.13c.5.38.67.7.67 1.09 0 .29-.2.63-.6.63-.2 0-.42-.05-.62-.41a6.78 6.78 0 0 0-1.15-1.6c-.08-.08-.2-.17-.2-.24 0-.07.03-.1.09-.11a.79.79 0 0 1 .29 0c.58.1 1.11.33 1.52.64m-2.9 4.98c-.47.07-1.26.25-2.08.7a.25.25 0 0 1-.16.06c-.11 0-.17-.05-.17-.16 0-.07.06-.15.13-.24.5-.43 1.04-.83 1.68-1.1a6.44 6.44 0 0 1 2.33-.44c.8 0 1.62.2 2.03.4.42.2.62.47.62.89 0 .33-.3.54-.64.54a3.2 3.2 0 0 1-.72-.09c-.2-.03-.47-.05-.67-.05-.46 0-1.26.29-2.58 1.03-.11.08-.17.1-.28.1-.09 0-.07-.08-.07-.13.02-.13.9-.78 1.76-1.53a5.1 5.1 0 0 0-1.17.02m-1.94 3.85c-.13.37-.17.77-.17 1.11 0 .99.86 1.73 2.78 1.73.97 0 1.56-.05 1.85-.14.28-.1.51-.13.95-.13.28 0 .68.1.92.23.25.15.45.4.45.77 0 .47-.43.69-.98.78-.53.1-1.41.1-2.02.1a9.3 9.3 0 0 1-2.43-.32c-1.43-.4-2.2-1.42-2.2-2.58 0-.78.24-1.27.52-1.76.09-.17.24-.31.33-.31.09 0 .1.05.1.14 0 .1-.07.26-.1.38m.34-7.58c.26 0 .5 0 .83.16.22.11.4.28.4.55s-.18.5-.57.65c-.77.31-2.08.68-3.03.93-.3.77-.88 2.4-1.28 3.5a313.9 313.9 0 0 1-2.05 5.27c-.28.69-.6.92-1.07.92-.16 0-.38-.12-.53-.27-.14-.14-.2-.3-.2-.65 0-.33.19-.68.5-1.28a64.05 64.05 0 0 0 3.25-7.25c-.98.18-1.53.25-2 .25-.8 0-1.2-.12-1.75-.7-.33-.35-.5-.77-.5-.95 0-.11.05-.17.1-.17.11 0 .18.08.31.17.46.3.77.47 1.5.47.9 0 1.87-.2 2.8-.44a12 12 0 0 0 .57-2.38c0-.3-.13-.53-.39-.63a4.2 4.2 0 0 0-.67-.22c-.13-.04-.2-.08-.2-.15 0-.1.05-.2.25-.3.2-.12.51-.23.86-.23.5 0 1.36.3 1.89.73.16.15.27.31.27.51a.9.9 0 0 1-.26.55c-.32.32-.45.67-.87 1.78.45-.15.86-.35 1.11-.53.22-.16.57-.29.73-.29m-4.37 36.12c.18.09.33.16.44.16.1 0 .13-.07.13-.38 0-1.15 0-1.86.02-2.98-.73.92-1.23 1.6-1.81 2.45.38.26.76.51 1.22.75zm1.72-5.02c2.01-1.57 3.46-2.22 5.1-2.22 1.38 0 2.44.4 3.24 1.18.81.77 1.1 1.73 1.1 2.75 0 1.38-.58 2.65-1.75 3.63a9.07 9.07 0 0 1-3.22 1.68 8.9 8.9 0 0 1-2.02.4c-.09 0-.2-.04-.2-.17 0-.09.06-.16.13-.18.16-.05.7-.23 1.1-.42a8.14 8.14 0 0 0 2.92-2.05c.77-.82 1.21-1.8 1.21-2.97 0-.89-.3-1.58-.77-2.09a2.88 2.88 0 0 0-2.23-.96c-1.4 0-2.98.82-4.63 2.2v1.2c0 1.62.13 3.15.13 3.53l-.02 1.03c-.05 1.1-.4 1.66-.91 1.66-.24 0-.66-.18-.7-1.16-.03-.55-.44-1.3-1.64-2.46-.3.44-.52.82-.88 1.22-.24.25-.37.33-.77.33-.24 0-.59-.17-.59-.57 0-.45.11-.65.39-.98.88-1.02 1.68-1.9 2.5-2.93.66-.83 1.07-1.32 1.43-1.94.02-.51.04-.97.02-1.46-.35.13-.77.33-1.32.58-.2.11-.44.28-.58.4-.15.13-.22.2-.42.2-.22 0-.39-.03-.66-.3-.62-.62-.84-1.1-.84-1.4 0-.28.12-.46.22-.46.09 0 .1.07.18.16.25.33.51.6.93.6.5 0 1.52-.36 2.56-.8.04-1.09.08-1.76.08-2.34 0-.42 0-.77-.22-.98-.2-.2-.39-.24-.68-.35-.22-.07-.26-.1-.26-.22 0-.16.5-.38.92-.38.22 0 .6.07 1.1.4.75.5.98.73.98 1.07 0 .17-.1.37-.25.5-.11.1-.26.29-.3.52-.07.47-.1.78-.12 1.27.18-.07.3-.03.45.04.15.07.26.13.5.31.13.1.22.25.2.44-.02.14-.22.29-.38.45-.35.38-.66.91-1.01 1.53l-.02.5zm5.4 23.69c1.13 0 1.9.22 2.76.87.92.71 1.3 1.56 1.3 2.82a3.7 3.7 0 0 1-1.81 3.1c-.88.54-1.68.85-2.58 1.05-1.04.23-2.53.42-3.44.42-.22 0-.33-.08-.33-.19 0-.07.07-.14.31-.18a12.5 12.5 0 0 0 3.77-1.18c1.54-.84 2.6-2.15 2.6-3.47 0-.86-.26-1.35-.71-1.8-.46-.46-1.03-.73-2-.73-1.15 0-2.47.76-4.1 2.02-.75.56-.9.78-1.04.98-.24.29-.4.34-.68.34-.42 0-1.04-.41-1.44-.9-.28-.35-.4-.59-.4-.86s.05-.45.2-.45c.05 0 .1.03.22.12.3.27.5.44.8.44.1 0 .28-.04.42-.11.13-.06.37-.15.77-.35 1.17-.58 1.96-.96 2.36-1.14 1.1-.47 2.14-.8 3.02-.8m-1.15 29.62c-.48.07-1.27.25-2.09.7a.26.26 0 0 1-.16.06c-.11 0-.17-.05-.17-.16 0-.08.06-.15.13-.24.5-.44 1.04-.84 1.68-1.1a6.44 6.44 0 0 1 2.33-.44c.8 0 1.62.2 2.03.4.42.2.62.47.62.89 0 .32-.3.54-.64.54a3.2 3.2 0 0 1-.71-.09c-.2-.04-.48-.05-.68-.05-.46 0-1.26.29-2.58 1.03-.11.08-.17.1-.28.1-.09 0-.07-.08-.07-.13.02-.13.9-.79 1.76-1.53a5.1 5.1 0 0 0-1.17.02m-1.94 3.85a3.4 3.4 0 0 0-.17 1.11c0 .98.86 1.73 2.78 1.73a7.4 7.4 0 0 0 1.85-.15c.28-.09.51-.12.95-.12.28 0 .68.1.92.23.25.15.45.4.45.77 0 .47-.43.69-.98.78-.53.09-1.41.09-2.02.09a9.3 9.3 0 0 1-2.43-.3c-1.43-.4-2.2-1.43-2.2-2.6 0-.77.24-1.26.52-1.76.09-.16.24-.3.33-.3.09 0 .1.05.1.14 0 .1-.07.26-.1.38m.34-7.58c.26 0 .5 0 .83.16.22.11.4.28.4.55s-.18.5-.57.65c-.77.31-2.08.68-3.03.93-.3.76-.88 2.4-1.28 3.5-.44 1.17-1.08 2.81-2.05 5.27-.28.69-.6.92-1.07.92-.16 0-.38-.12-.53-.27-.14-.14-.2-.3-.2-.65 0-.33.19-.68.5-1.28 1.3-2.5 2.36-4.83 3.25-7.25-.98.18-1.53.25-1.99.25-.8 0-1.2-.13-1.76-.7-.33-.35-.5-.77-.5-.95 0-.11.05-.17.1-.17.11 0 .18.08.31.17.46.3.77.47 1.5.47.9 0 1.87-.2 2.8-.44a12 12 0 0 0 .57-2.38c0-.3-.13-.53-.39-.64-.22-.09-.38-.14-.67-.21-.13-.04-.2-.08-.2-.15 0-.1.05-.2.25-.3.2-.12.51-.23.86-.23.5 0 1.36.3 1.89.73.16.15.27.31.27.51a.9.9 0 0 1-.25.55c-.33.32-.46.67-.88 1.78.45-.15.86-.35 1.11-.53.22-.16.57-.3.73-.3M73.37 13.8c-.57 0-.68-.2-.91-1.18a3.2 3.2 0 0 0-1.07-1.82c-.07-.05 0-.14.1-.13 1.84.3 2.83 1.06 2.83 2.04 0 .67-.3 1.1-.95 1.1zm4.52-1.89c0 .82.05 2.1.05 2.84 0 .74-.09 1.02-.42 1.36-.38.42-1.08.68-1.77.68-.26 0-.3-.04-.39-.48-.16-.74-.64-.98-1.99-1.33-.1-.01-.1-.21 0-.21.91.05 1.81.07 2.5.07.24 0 .32-.07.32-.3v-4.8h-5.03c-.33 0-.64.04-1.08.1l-.2-.66c.49.1.86.14 1.22.14h5.09v-.76c0-.6-.02-.8-.1-1.46 1.9.18 2.38.27 2.38.55 0 .18-.16.3-.58.5v1.17h.58c.66-.89.9-1.07 1.03-1.07.16 0 .35.1 1.02.76.24.24.4.42.4.55 0 .12-.05.18-.23.18h-2.8v2.18zm-4.14-8.45H71.7c-.3 0-.62.03-1.04.1l-.2-.67c.48.11.84.15 1.2.15h2.1V1.5c0-.46-.02-.93-.08-1.46 2.21.2 2.42.4 2.42.6 0 .19-.2.35-.59.5v1.89h1.81c.83-.99 1.05-1.13 1.17-1.13.17 0 .37.14 1.17.8.37.29.52.44.52.56 0 .13-.06.19-.24.19H75.5v2.81h2.6c.82-1 1.04-1.14 1.17-1.14.16 0 .37.14 1.2.8.4.3.54.45.54.58 0 .13-.06.18-.24.18h-9.84c-.33 0-.66.04-1.1.11l-.2-.67c.5.1.88.14 1.24.14h2.87v-2.8zm-6.86.96V2.6c-.05.1-.2.16-.55.3-.16.56-.3 1.06-.47 1.52h1.02zm1.7 4.22c.63-.2 1.25-.44 1.87-.67.1-.04.17.14.1.2-.57.47-1.22.92-1.97 1.36l.02 6.5c0 .56-.36.77-1.06.77-.55 0-.75-.2-.75-.6 0-.82.04-2.65.06-5.73-.46.24-.95.46-1.47.7-.03.47-.14.65-.36.65-.28 0-.42-.3-1.03-2.13a11 11 0 0 0 1.67-.25c.38-.07.78-.18 1.2-.3V7.79l.02-2.94h-1.17c-.42 1.09-.91 1.92-1.6 2.82-.06.07-.25.03-.2-.06.3-.9.6-2.36.78-3.7.13-.83.18-1.63.18-2.2 1.26.28 1.9.52 2.01.74v-.4C66.9.8 66.87.6 66.82.02c2.23.25 2.4.29 2.4.58 0 .16-.19.33-.63.5v3.32h.35c.6-.76.83-.91.95-.91.17 0 .35.15.96.65.23.2.38.37.38.5 0 .12-.06.18-.24.18h-2.4v3.8zm9.35 20.02c0-.62-.01-.88-.1-1.53 2.2.29 2.26.29 2.26.58 0 .2-.14.34-.47.5v6.63c0 3.89.09 5.74.09 6.74 0 .84-.15 1.15-.6 1.46-.39.27-.86.44-1.34.44-.4 0-.53-.1-.59-.46-.07-.7-.58-1.05-2.1-1.4-.1-.02-.1-.27 0-.25.86.09 1.9.14 2.58.14.22 0 .27-.05.27-.23V28.65zm-2 2.29c0 4 .08 6.74.08 7.65 0 .51-.3.75-.98.75-.55 0-.75-.18-.75-.66 0-.54.07-2.18.07-5.45 0-2.82 0-3.62-.07-4.82 1.97.22 2.17.25 2.17.56 0 .17-.14.3-.53.46v1.5zm-9.3 1.8h4.24v-3.99h-4.24v3.99zm0 .41v.33c0 .58-.3.84-.97.84-.5 0-.73-.18-.73-.51 0-.5.09-.98.09-2.96 0-1.15-.02-2.3-.11-3.44.91.38 1.04.43 1.85.93h3.91c.64-.75.79-.86.93-.86.19 0 .33.11 1.01.7.31.28.42.41.42.56 0 .16-.16.32-.51.52v.7c0 1.83.09 3.09.09 3.5 0 .53-.31.75-.99.75-.53 0-.75-.18-.75-.64v-.41h-1.92c-.02.89-.07 1.78-.16 2.65h1.99c.55-.64.7-.74.84-.74.18 0 .31.1.94.67.27.25.38.4.38.54 0 .13-.06.19-.5.51-.12 3.11-.32 4.37-.73 5.28-.25.56-.58.85-1.04 1.09-.31.16-.75.22-1.17.22-.31 0-.4-.11-.44-.37-.1-.64-.51-.98-1.72-1.33-.1-.01-.05-.23.04-.23.95.07 1.66.13 2.25.13.6 0 .77-.2.95-1.39.16-1.09.26-2.47.27-3.96h-2.14c-.53 3.45-2.03 5.6-4.85 7.25-.07.06-.18-.07-.12-.14 2.6-2.73 3.5-5.31 3.53-10.19h-.64zm5.89 33.48c-.66 0-1.25.07-1.58.29a.99.99 0 0 0-.45.76c0 .37.18.66.45.84.32.18.8.3 1.3.3.59 0 1.23-.14 1.54-.45.3-.3.4-.67.4-1.18l-.01-.25c-.7-.24-1.18-.31-1.65-.31m2.05-6.6c-.3-.02-.66 0-.86.02l-.35.03c-.11 0-.18-.03-.18-.13s.09-.18.22-.23c.6-.3 1.31-.37 1.9-.37 1.02 0 2.25.3 3.1.8.63.39.83.8.83 1.19 0 .42-.18.7-.64.7-.22 0-.55-.16-.71-.28-.7-.57-1.08-.64-1.43-.64-.36 0-.57.07-.82.24-.48.27-.68.63-.68 1.27 0 .45.15 1.7.62 3.38 2.82.95 3.57 1.7 3.57 2.4 0 .38-.16.77-.71.8-.26.02-.62-.09-1.06-.5-.26-.24-.8-.79-1.72-1.28.02.85-.31 1.62-.92 2-.56.38-1.24.5-2.12.5a3.3 3.3 0 0 1-2.09-.68 1.78 1.78 0 0 1-.73-1.38c0-.66.35-1.2.77-1.51a3.78 3.78 0 0 1 2.2-.66c.29 0 .9.02 1.31.1-.07-.97-.12-1.94-.12-2.72 0-1.56 1.22-2.23 2.43-2.5a3.8 3.8 0 0 0-1.81-.55m-.53-2.2c0 .42-.22.65-.77.85-.59.2-1.56.42-2.71.7a191.73 191.73 0 0 1-2.95 6.56c-.32.67-.53.98-.73 1.14a.97.97 0 0 1-.47.15.72.72 0 0 1-.57-.24.73.73 0 0 1-.26-.58c0-.3.33-.78.6-1.2a38.37 38.37 0 0 0 3.03-5.53c-.44.06-1.25.17-1.67.17-.5 0-.88-.06-1.19-.24-.44-.24-.82-.6-1.08-1.16a.75.75 0 0 1-.07-.31c0-.1.1-.11.13-.11.05 0 .09.02.2.1.27.22.53.37.82.44.4.1.68.1.9.1.6 0 1.52-.15 2.47-.35.5-1.31.6-1.9.6-2.3 0-.43-.13-.54-1.1-.9-.09-.04-.14-.1-.14-.17s.07-.18.18-.23c.24-.13.48-.18.8-.18.56 0 1.38.29 1.84.6.38.25.4.45.4.67 0 .2-.07.34-.24.47-.26.2-.44.51-.91 1.67.62-.2.87-.34 1.2-.54.31-.18.59-.24.77-.24.59.04.92.4.92.66m1.39 31.02a7.53 7.53 0 0 0 2.16 2.98c1.02.87 2.3 1.56 3.75 2 .09.02.09.2 0 .2-.48.04-1 .65-1.23 1.5-.04.14-.1.2-.22.2-.1 0-.36-.14-.68-.37a9.95 9.95 0 0 1-2.43-2.73 11.9 11.9 0 0 1-1.46-3.22l.14 7.37c0 .5-.33.76-1.04.76-.55 0-.77-.18-.77-.64 0-.63.13-3.33.17-5.74-1.4 2.09-3.57 3.85-5.36 4.49-.1.03-.2-.15-.13-.2 1.9-1.37 3.77-3.88 4.86-6.6h-1.44c-.42 0-.86.03-1.43.1l-.2-.67c.64.11 1.14.15 1.61.15h2.01v-3.4h-1.97c-.42 0-.86.03-1.43.1l-.2-.67c.64.11 1.13.15 1.61.15h2v-1.26c0-1.12-.06-1.83-.15-2.45 2.34.22 2.4.24 2.4.53 0 .21-.17.34-.61.47v2.7h2.54c.86-1.14 1.08-1.28 1.21-1.28.17 0 .35.14 1.2.89.36.34.5.5.5.64 0 .12-.05.18-.23.18H75.4v3.4h2.07c.86-1.15 1.08-1.3 1.2-1.3.17 0 .35.15 1.18.9.36.34.5.5.5.63s-.05.19-.23.19h-4.68zm-7.43.16l1.72-.53c.09-.03.14.17.07.22-.64.44-1.22.82-1.8 1.16v1.77c0 2.53.03 3.22.03 4.1 0 .46-.08.85-.26 1.14-.3.47-.84.69-1.72.69-.18 0-.27-.11-.3-.38-.03-.73-.3-.93-1.71-1.35-.1-.02-.1-.24 0-.24.8.06 1.46.1 2.07.1.23 0 .25-.04.25-.28v-4.64c-.35.17-.7.33-1.02.46-.06.45-.19.65-.39.65-.22 0-.27-.16-.9-2.1.52-.04 1-.13 1.43-.2l.88-.17V85.4H65.3c-.3 0-.57.04-.95.11l-.2-.67c.46.1.8.14 1.15.14h1.06v-1.96c0-1.13-.02-1.5-.09-2.15 1.81.17 2.32.28 2.32.58 0 .2-.18.37-.58.5v3.03h.09c.57-.8.79-.94.92-.94.16 0 .32.14.84.65.2.22.34.4.34.53s-.05.18-.23.18H68v3.62zm9.93 34.58c-.6 0-.7-.12-1.4-1.67a8.13 8.13 0 0 0-2.07-2.6c-.08-.05.05-.18.14-.15 2.9 1.08 4.25 2.15 4.25 3.35 0 .64-.37 1.07-.92 1.07zm-5.06-5.58c.01 2.93.09 4.95.09 5.64 0 .47-.35.7-1 .7-.61 0-.85-.17-.85-.61 0-.55.1-2.16.1-5.46v-.27h-3.14c-.38 0-.75.04-1.26.11l-.2-.67c.58.1 1.04.14 1.48.14h3.11c0-1.42-.04-1.96-.1-2.73 2.13.3 2.3.33 2.3.59 0 .16-.17.29-.53.43v1.71h1.77c.66-.83.88-.98 1-.98.17 0 .4.15 1.14.7.35.25.5.4.5.52 0 .13-.06.18-.24.18h-4.17zm-3.52 2.42a10.78 10.78 0 0 1-4.6 3.53c-.1.03-.26-.11-.19-.17 1.04-.94 1.98-2.09 2.6-3.18.35-.6.6-1.16.75-1.69 1.7.58 2.18.82 2.18 1.05 0 .26-.2.4-.74.46zm6.06-9.97l.02 1.2c0 .4-.31.59-1 .59-.5 0-.72-.13-.72-.5 0-.1.02-.43.02-1.09v-.2h-3.3l.02 1.19c0 .43-.33.6-1 .6-.5 0-.72-.15-.72-.55 0-.15.04-.53.04-1.24h-3.26c-.35 0-.7.04-1.15.11l-.2-.67c.55.1.95.15 1.35.15h3.28v-.44c0-1.1 0-1.26-.1-1.84 2.13.22 2.33.3 2.33.53 0 .16-.17.29-.59.45v1.3h3.3c0-1.5 0-1.71-.06-2.28 1.96.2 2.25.3 2.25.55 0 .14-.1.25-.53.43v1.3h2.32c.83-.97 1.05-1.11 1.18-1.11.16 0 .38.14 1.22.78.39.29.53.43.53.56 0 .13-.05.18-.24.18h-5zm-11.33 7.68c-.09.02-.2-.22-.1-.26a17.48 17.48 0 0 0 5.76-4.5 6.85 6.85 0 0 0 1.28-2.1c1.86.6 2.32.78 2.32 1 0 .2-.07.24-.7.27.88.88 1.95 1.59 3.2 2.15 1.45.66 3.17 1.11 5.08 1.33.09.02.09.22 0 .23-.53.08-.85.44-1.1 1.3-.1.32-.17.43-.31.43-.19 0-.51-.1-.94-.29-.93-.4-2.26-1.16-3.18-1.82a13.02 13.02 0 0 1-2.98-3.03c-1.85 2.3-4.89 4.23-8.33 5.29zm11.31 17.87c.6.4.86.7.86 1.05 0 .31-.16.53-.66.59-.14.01-.33.05-.51.1-1.1.33-2.4.71-3.97 1.08-1.72.4-3.33.6-4.06.62-.22 0-.33-.04-.33-.17 0-.1.07-.12.3-.2a33 33 0 0 0 3.7-1.14c1.29-.48 2.13-.91 2.82-1.31.3-.17.39-.3.39-.38 0-.11-.28-.31-.53-.46-.11-.05-.19-.09-.19-.16 0-.1.28-.24.53-.24.43 0 1.16.3 1.65.62m.99 4.98c.31-.03.44-.13.7-.27.12-.07.34-.15.69-.15.35 0 .88.17 1.37.44.35.18.53.51.53.75 0 .34-.24.52-.56.52-.2 0-.35 0-.77-.05-.88-.11-1.47-.15-1.9-.15-.43 0-1.7.04-2.73.11-.17 2.1-.72 3.71-1.48 4.99a8.07 8.07 0 0 1-4.49 3.56c-.14 0-.2-.04-.2-.13 0-.12.07-.16.46-.45a9.4 9.4 0 0 0 2.93-3.48c.67-1.32 1-2.7 1.1-4.4-2.13.26-3.24.42-3.98.62-.25.07-.45.13-.62.26a.9.9 0 0 1-.55.18c-.3 0-.77-.27-1.3-.82-.38-.4-.47-.71-.47-1.06 0-.21.05-.34.16-.34.08 0 .17.07.35.22.38.3.7.5 1.17.5.13 0 .6-.01 1.03-.07 1-.1 2.3-.23 4.26-.45.02-.42.02-.67.02-.96 0-.3-.04-.51-.26-.64-.16-.1-.4-.16-.62-.18-.17-.02-.22-.06-.22-.11 0-.1.05-.17.2-.27.24-.17.53-.22.79-.22.51 0 1.26.1 1.68.34.31.17.4.37.4.58 0 .15-.05.28-.14.42-.1.15-.13.28-.15.38l-.04.59a44.6 44.6 0 0 0 2.64-.26m-4.78 24.07c0-.96-.03-1.25-.3-1.49-.2-.16-.4-.3-.68-.45-.11-.06-.15-.1-.15-.17 0-.09.07-.21.26-.29.23-.09.42-.1.62-.1.22 0 .53.07 1.2.41.97.5 1.16.82 1.16 1.17 0 .2-.08.36-.24.54-.15.15-.22.37-.26.64-.03.38-.03.73-.03 1.14v3.31c0 1.99 0 3.82.02 5.37l.01 1.09a.8.8 0 0 1-.76.8c-.26 0-.57-.15-.77-.5-.24-.43-.35-.9-.35-1.46 0-.08 0-.31.1-.62.08-.18.12-.66.14-1.08.03-1.61.03-2.65.03-4.4v-3.9zm7.82 24.39c.38.21.66.52.66.92s-.26.68-.57.68c-.28 0-.48-.08-.68-.4a4.61 4.61 0 0 0-1.28-1.42c-.07-.06-.22-.15-.22-.22 0-.1.07-.15.15-.15a4.28 4.28 0 0 1 1.94.58m-1.7 1.28c.49.38.67.7.67 1.09 0 .3-.2.64-.6.64-.2 0-.42-.06-.62-.42a6.78 6.78 0 0 0-1.16-1.6c-.07-.08-.2-.17-.2-.24 0-.1.1-.13.22-.13.17 0 .37.06.42.08.53.14.88.29 1.26.58m-2.2 7.76c.7.37 1.27.73 1.77 1.11 1.1.84 1.53 1.55 1.53 2.08 0 .56-.38.98-.84.98-.47 0-.8-.13-1.13-.62-.64-.95-1.28-1.93-2.13-2.71-.7-.65-1.2-1.02-1.83-1.4a20.95 20.95 0 0 1-4.48 3.56c-1.2.71-2.38 1.2-3.13 1.44-.14.06-.27.1-.4.1-.1 0-.18-.04-.18-.17 0-.07.05-.17.13-.2a22.27 22.27 0 0 0 5.72-4.4 27.28 27.28 0 0 0 3.83-5.04c0-.05-.06-.07-.24-.05-1.28.14-2.93.41-4.37.72-.48.11-.7.2-.85.3-.16.08-.3.2-.64.2s-.71-.22-1.22-.86c-.35-.44-.39-.71-.39-1.16 0-.35.13-.48.24-.48.06 0 .13.07.26.22.51.56.71.7 1.26.7.22 0 .68-.04 1.4-.12 1.5-.16 2.72-.32 4.02-.5.34-.06.56-.13.73-.28a.7.7 0 0 1 .53-.2c.35 0 .58.16.97.5.55.46.77.76.77 1.01 0 .18-.06.36-.6.55-.17.05-.28.2-.45.43a29.74 29.74 0 0 1-2.48 3.28c.86.34 1.59.69 2.2 1.01m-.08 20.44c.29-.07.36-.13.5-.26a.7.7 0 0 1 .48-.2c.17 0 .44.13.7.31.66.5.95.86.95 1.18 0 .15-.05.37-.38.53-.2.1-.39.24-.5.42a36.63 36.63 0 0 1-2.25 3.33c1.23.85 1.52 1.54 1.52 2.1 0 .44-.33.9-.8.9-.26 0-.57-.16-.79-.46-.31-.43-.5-.76-.91-1.23a18.63 18.63 0 0 1-7.85 5.38c-.08.02-.22.07-.32.07-.07 0-.18-.05-.18-.16 0-.1.06-.16.22-.25a23.6 23.6 0 0 0 7.05-6.06 11.2 11.2 0 0 0-2.02-1.36c-.18-.11-.27-.17-.27-.24 0-.13.09-.18.25-.16a10.73 10.73 0 0 1 2.78.75c.81-1.12 1.52-2.36 2.11-3.48.05-.1.05-.18.05-.22 0-.04-.03-.07-.18-.06-.66.1-1.2.24-1.68.33-.5.1-.73.13-.9.13-.3 0-.58-.07-.93-.22-.9 1.22-1.9 2.44-2.8 3.27a11.74 11.74 0 0 1-2.5 1.86c-.12.05-.17.09-.26.09-.15 0-.2-.07-.2-.16 0-.1.03-.13.14-.24a28 28 0 0 0 4.1-5.3c.64-1.06.8-1.54.8-1.77 0-.1-.05-.24-.12-.31-.22-.22-.4-.35-.62-.46-.13-.07-.19-.1-.19-.18 0-.13.35-.3.6-.3.6 0 1.09.21 1.65.54.64.36.88.63.88.92 0 .24-.04.4-.27.53-.22.13-.31.2-.39.3-.1.14-.2.28-.4.6 1.04-.08 2.03-.26 2.93-.46m-3.59 27.54c-.09-.23-.38-.47-.84-.65-.15-.06-.22-.07-.22-.2s.33-.4.77-.4 1 .22 1.66.64c.33.2.74.5.74.92 0 .22-.1.35-.26.51-.07.07-.13.2-.15.44l-.09 4.1v1.35c0 .17.02.24.1.24a23.13 23.13 0 0 0 6.48-3.67c.21-.18.32-.3.45-.3.1 0 .18.06.18.17 0 .07-.07.16-.15.25-1.22 1.68-3.29 3.4-6.45 5.26a.9.9 0 0 0-.37.38.49.49 0 0 1-.42.26c-.22 0-.6-.22-.92-.59a1.96 1.96 0 0 1-.5-1.09 5.28 5.28 0 0 0 .15-1.42l-.03-5c0-.54-.04-.98-.13-1.2m-4.17 1.17c-.15-.06-.24-.08-.24-.17 0-.1.35-.38.72-.38.47 0 1.28.3 1.94.71.45.3.54.55.54.78 0 .17-.03.3-.25.48-.13.1-.2.27-.31.61-.39 1.15-.8 2.33-1.5 3.39a9.47 9.47 0 0 1-3.7 3.38c-.18.09-.3.14-.37.14-.1 0-.16-.05-.16-.18 0-.1.04-.12.18-.25a11.1 11.1 0 0 0 2.58-3.18c.59-1.04.97-2.13 1.27-3.17.14-.54.21-.93.21-1.29 0-.38-.42-.67-.91-.87m7.74 28.86c1.1.45 1.7 1.01 1.7 1.83 0 .58-.42.96-.79.96-.33 0-.65-.1-1-.52-.44-.51-.86-.97-1.32-1.33a5.41 5.41 0 0 0-1.9-1.04v3.17c0 .76.03 2.43.07 4.4 0 .69-.31.85-.68.85a.85.85 0 0 1-.76-.42c-.3-.49-.4-1.09-.4-1.43 0-.1.03-.42.08-.53.06-.11.1-.2.1-.31.01-.24.05-.75.07-4.07.02-1.73 0-3.28 0-4.99 0-.47 0-1.29-.07-1.54a.84.84 0 0 0-.39-.42c-.27-.16-.5-.25-.64-.3-.13-.03-.18-.08-.18-.15 0-.11.13-.2.24-.28.14-.09.34-.16.5-.16.43 0 .98.09 1.86.49.49.22.73.5.73.85 0 .22-.11.4-.31.59-.08.07-.11.18-.13.36-.06.5-.1 1.58-.1 3.27 1.1.06 2.3.3 3.32.71M11.7 2.6c-.04 3.78-.41 6.57-1.29 8.73-.95 2.36-2.52 3.98-4.92 5.35-.07.03-.22-.2-.15-.26a11.35 11.35 0 0 0 3.63-5.7c.62-2.12.9-4.72.9-8.12H8.7c-.4 0-.8.04-1.35.15l-.2-.71c.6.1 1.06.14 1.51.14h5.8c.7-.76.84-.87 1-.87.17 0 .32.1 1.05.73.33.29.44.42.44.56 0 .13-.05.18-.58.67-.15 7.24-.26 8.84-.74 10.79-.27 1.09-.65 1.78-1.24 2.16-.38.26-.86.37-1.45.37-.34 0-.45-.1-.53-.48-.14-.8-.62-1.1-2.05-1.62-.09-.03-.05-.27.04-.25 1.3.16 1.98.22 2.53.22.54 0 .73-.17.87-.75.5-1.85.77-5.5.77-11.1H11.7zM4.47 8.37c.35.07.7.16 1.05.27A11.24 11.24 0 0 0 6.8 6.06c1.35.76 1.62.96 1.62 1.2 0 .14-.12.23-.62.21A8.5 8.5 0 0 1 5.96 8.8c.94.4 1.41.9 1.41 1.51 0 .5-.33.87-.76.87-.35 0-.55-.16-.83-.69a4.7 4.7 0 0 0-1.3-1.67v1.73c0 2.07.06 4.65.06 5.5 0 .52-.35.75-.94.75-.58 0-.82-.18-.82-.67 0-.4.13-1.6.13-4.02V9.07c-.8.64-1.72 1.2-2.73 1.71-.07.04-.23-.16-.16-.21 2.49-2.15 4.17-4.39 5.05-6.6H1.76c-.35 0-.7.03-1.16.14l-.2-.7c.55.1.95.14 1.36.14h1.1v-1.8c0-.6-.08-1.42-.13-1.68 2.12.2 2.32.4 2.32.58 0 .17-.18.33-.57.51v2.39h.57c.55-.62.7-.73.84-.73.18 0 .31.1.93.74.28.3.39.44.39.59 0 .21-.13.3-.59.47a15.47 15.47 0 0 1-2.14 3v.75zm2.01 29.87c-.15.14-.28.29-.42.44.7.69 1.53 1.23 2.41 1.65.93-.64 1.72-1.33 2.34-2.1H6.48zm-1.61-2.3h7.6v-1.57h-7.6v1.58zm0-2h7.6V32.5h-7.6v1.46zm0-1.87h7.6v-1.45h-7.6v1.45zm1.6 4.3c1.21.29 1.34.38 1.34.58 0 .16-.09.23-.56.34-.13.19-.28.37-.4.53h3.95c.76-.69.91-.8 1.06-.8.18 0 .33.11 1.08.73.34.29.45.42.45.56 0 .3-.09.35-.78.51-.77.8-1.61 1.51-2.53 2.11.35.11.7.2 1.08.27 1.68.37 3.7.55 6.15.55.09 0 .07.18-.02.2-.6.18-.91.53-1.13 1.24-.11.43-.19.52-.5.52-.2 0-.64-.05-1.15-.14a22.6 22.6 0 0 1-4.37-1.22c-.48-.2-.94-.42-1.36-.66-2.32 1.2-5.12 1.86-8.5 2.02-.1 0-.17-.22-.08-.23 2.91-.57 5.44-1.46 7.41-2.6a10.2 10.2 0 0 1-1.8-1.97 12.03 12.03 0 0 1-5.06 2.8c-.1.02-.16-.1-.1-.16a14.7 14.7 0 0 0 4.13-3.58c.4-.5.7-1.1.95-1.6h-.86v.07c0 .45-.31.67-1.1.67-.53 0-.7-.22-.7-.65 0-.62.1-1.2.1-4.28 0-1.12-.02-1.7-.08-2.83.92.32 1.06.38 1.94.85H7c.15-.56.24-1.14.31-1.73H2.52c-.5 0-1.02.04-1.7.11l-.2-.67c.77.1 1.34.15 1.9.15h11.4c.88-1 1.1-1.15 1.23-1.15.16 0 .38.14 1.26.8.4.3.55.45.55.58 0 .13-.05.18-.24.18H9.37c-.46.64-.99 1.2-1.58 1.73h4.5c.63-.65.77-.76.92-.76.18 0 .35.1 1.04.62.31.23.42.36.42.5 0 .17-.09.28-.53.55v.9c0 2.32.08 3.88.08 4.41 0 .44-.31.67-1.1.67-.46 0-.64-.2-.64-.56v-.16h-6zM4.63 58.91a5.53 5.53 0 0 0-1.56 2.24 4.72 4.72 0 0 0-.3 1.73c0 .76.1 1.4.45 1.96.24.36.57.6.8.6.3 0 .57-.18 1.27-1.16a21.98 21.98 0 0 0 2.45-4.46c.26-.64.38-1.11.38-1.55 0-.43-.12-.67-.33-.81-1.39.2-2.52.87-3.16 1.45m4.45-.07c0 .43-.17 1.2-.4 1.93-.25.76-.63 1.7-1.16 2.61a14.95 14.95 0 0 1-2.03 3.04c-.4.44-.88.75-1.52.75-.46 0-.97-.22-1.39-.71-.66-.73-1-1.66-1-3.31 0-.9.29-1.95.78-2.77a7.04 7.04 0 0 1 2.47-2.54 8.23 8.23 0 0 1 4.43-1.18c2 0 3.42.54 4.54 1.41a5.56 5.56 0 0 1 2.14 4.62c0 1.57-.68 2.86-1.69 3.75a7.99 7.99 0 0 1-2.7 1.62c-1.18.42-2.6.65-3.76.69-.27 0-.4-.04-.4-.18 0-.15.11-.18.35-.24a9.1 9.1 0 0 0 4.7-2.38 5.4 5.4 0 0 0 1.65-4.22c0-1.3-.42-2.6-1.61-3.42a5.8 5.8 0 0 0-2.93-.98 8.25 8.25 0 0 0-1.15.02c.35.38.68.98.68 1.49M7.5 91.75a15.34 15.34 0 0 0 2.71-3.71c-.84.07-1.88.3-2.93.7-.02 1.08.08 2.2.22 3m-1.4-1.12c-.03-.38-.03-.89-.03-1.25a7.36 7.36 0 0 0-2.32 2.1c-.47.7-.64 1.26-.64 1.8 0 .53.17.73.46.73.8 0 1.32-.27 2.78-1.29-.17-.78-.24-1.45-.26-2.09m7.23-2.7c.44.17 1.1.52 1.72 1.23.64.74.93 1.49.93 2.47 0 2.06-1.48 3.6-3.93 4.42-1.57.53-3.28.73-4.15.75-.24 0-.37-.04-.37-.17 0-.14.11-.18.3-.22 1.07-.25 2.15-.58 3.09-1.03a6.49 6.49 0 0 0 2.48-1.88c.57-.78.74-1.45.74-2.27 0-.94-.26-1.78-.85-2.3a2.91 2.91 0 0 0-1.64-.8c-.15.23-.3.43-.59.9a21.27 21.27 0 0 1-3.18 3.71c.18.42.33.56.42.7.13.2.18.34.18.57 0 .28-.22.6-.66.6-.3 0-.78-.3-1.11-.89-1.47 1.11-2.7 1.7-3.6 1.7-.94 0-1.38-.72-1.38-1.77 0-1.15.82-2.55 2.12-3.66.59-.5 1.47-1.09 2.3-1.47.06-.94.14-1.73.25-2.64a13 13 0 0 1-1.43.1c-1.14 0-1.7-.37-2.12-1.1-.08-.1-.2-.36-.2-.5 0-.08.05-.15.12-.15.11 0 .13.07.24.16.57.42 1 .51 1.72.51.62 0 1.3-.09 1.85-.2.07-.49.07-.74.1-1.18.03-.22.04-.42.04-.58 0-.42-.14-.5-.47-.67a2.1 2.1 0 0 0-.48-.17c-.16-.03-.25-.09-.25-.18 0-.1.13-.18.24-.26.2-.14.53-.25.8-.25.51 0 1.08.25 1.6.56.36.22.63.51.63.79 0 .2-.14.34-.38.54-.2.17-.31.3-.48 1.11 1.21-.34 2.16-.69 2.73-1.07.27-.18.64-.18.97-.18.47 0 .9.25.9.6 0 .34-.19.45-.52.65-.29.18-.9.38-2.1.73-.68.2-1.34.38-2.23.56-.2.86-.31 1.71-.35 2.31.77-.25 1.74-.47 3-.58a.52.52 0 0 0 0-.24c-.02-.12-.13-.25-.38-.47-.1-.09-.19-.1-.19-.22 0-.09.15-.2.5-.2.34 0 .71.06 1.22.57.24.23.33.36.33.5 0 .06 0 .13-.02.19.52.03 1.06.16 1.54.36m-4.39 32.55c-.66 0-1.25.07-1.57.29a.99.99 0 0 0-.46.76c0 .37.18.66.46.84.3.18.78.29 1.3.29.58 0 1.22-.13 1.53-.44.3-.3.4-.67.4-1.18l-.01-.25c-.7-.24-1.18-.31-1.65-.31m2.05-6.6c-.3-.02-.66 0-.86.01-.15.02-.26.04-.35.04-.1 0-.18-.04-.18-.13 0-.1.09-.18.22-.23.6-.3 1.31-.37 1.9-.37 1.02 0 2.25.3 3.1.8.63.39.83.8.83 1.19 0 .41-.18.7-.64.7-.22 0-.55-.16-.71-.29-.7-.56-1.08-.63-1.43-.63-.36 0-.56.07-.82.23-.48.28-.68.64-.68 1.28 0 .45.15 1.7.62 3.38 2.82.94 3.57 1.69 3.57 2.4 0 .38-.16.76-.71.8-.26.02-.62-.1-1.06-.5-.26-.25-.8-.8-1.72-1.28.02.85-.31 1.62-.92 2-.56.38-1.24.5-2.12.5a3.3 3.3 0 0 1-2.09-.68 1.78 1.78 0 0 1-.73-1.39c0-.65.35-1.2.77-1.5a3.78 3.78 0 0 1 2.2-.66c.29 0 .9.02 1.31.1-.07-.97-.12-1.94-.12-2.72 0-1.56 1.22-2.24 2.43-2.5a3.8 3.8 0 0 0-1.81-.55m-.53-2.2c0 .41-.22.65-.77.85-.59.2-1.56.42-2.7.7a193.4 193.4 0 0 1-2.95 6.56c-.33.67-.54.98-.74 1.14a.97.97 0 0 1-.47.15.72.72 0 0 1-.57-.24.73.73 0 0 1-.26-.58c0-.31.33-.78.6-1.2a38.37 38.37 0 0 0 3.03-5.53c-.44.05-1.25.16-1.67.16-.5 0-.88-.05-1.19-.23-.44-.24-.82-.6-1.08-1.17a.75.75 0 0 1-.07-.3c0-.1.1-.11.13-.11.05 0 .09.01.2.1.27.22.53.37.82.44.4.1.68.1.9.1.6 0 1.52-.15 2.47-.35.5-1.31.6-1.9.6-2.3 0-.43-.12-.54-1.1-.9-.09-.04-.14-.1-.14-.17s.07-.18.18-.23c.24-.13.48-.19.8-.19.56 0 1.38.3 1.84.6.38.26.4.46.4.68 0 .2-.07.34-.24.47-.25.2-.44.5-.91 1.67.62-.2.88-.34 1.2-.54.32-.18.59-.24.77-.24.59.04.92.4.92.66m.44 30.24c-.48.07-1.27.25-2.09.7a.26.26 0 0 1-.16.06c-.11 0-.17-.06-.17-.17 0-.07.06-.14.13-.23.5-.44 1.04-.84 1.68-1.11a6.44 6.44 0 0 1 2.33-.44c.8 0 1.62.2 2.03.4.42.2.62.47.62.9 0 .32-.3.54-.64.54a3.2 3.2 0 0 1-.71-.1c-.2-.03-.48-.05-.68-.05-.46 0-1.26.3-2.58 1.04-.11.07-.17.09-.28.09-.09 0-.07-.07-.07-.13.02-.12.9-.78 1.76-1.53a5.1 5.1 0 0 0-1.17.02m-1.94 3.86a3.4 3.4 0 0 0-.17 1.1c0 .99.86 1.74 2.78 1.74a7.4 7.4 0 0 0 1.85-.15c.28-.1.51-.13.95-.13.28 0 .68.11.92.24.25.14.45.4.45.76 0 .48-.43.7-.98.78-.53.1-1.41.1-2.02.1a9.3 9.3 0 0 1-2.43-.31c-1.43-.4-2.2-1.42-2.2-2.59 0-.78.24-1.27.52-1.76.09-.16.24-.3.33-.3.09 0 .1.05.1.14 0 .09-.07.25-.1.38m.34-7.59c.26 0 .5 0 .83.17.22.1.4.27.4.54 0 .28-.18.51-.57.66-.77.3-2.08.67-3.03.93-.3.76-.88 2.4-1.28 3.49-.44 1.18-1.08 2.82-2.05 5.27-.28.7-.6.93-1.07.93-.16 0-.38-.13-.53-.27-.14-.15-.2-.31-.2-.66 0-.33.19-.67.5-1.27 1.3-2.51 2.36-4.84 3.25-7.26-.98.18-1.53.26-1.99.26-.8 0-1.2-.13-1.76-.71-.33-.35-.5-.77-.5-.95 0-.1.05-.16.1-.16.11 0 .18.07.31.16.46.31.77.48 1.5.48.9 0 1.87-.2 2.8-.44a12 12 0 0 0 .57-2.38c0-.31-.13-.53-.39-.64-.22-.1-.38-.15-.67-.22-.13-.03-.2-.07-.2-.14 0-.11.05-.2.25-.31.2-.11.51-.22.86-.22.5 0 1.36.29 1.89.73.16.14.27.3.27.5a.9.9 0 0 1-.25.55c-.33.33-.46.67-.88 1.78.45-.14.86-.34 1.11-.52.22-.17.57-.3.73-.3m-1.15 28.7c-.14.07-.33.14-.38.14-.15 0-.17-.05-.17-.16 0-.07.08-.17.22-.27a8.74 8.74 0 0 1 2.29-1.2c.93-.31 1.6-.39 2.36-.39 1.66 0 2.18.59 2.18 1.08 0 .5-.33.67-1.12.67-.24 0-.62-.06-.86-.06-.37 0-.82.06-1.08.13-.53.15-.99.35-2.14 1.3-.09.07-.14.1-.24.1-.09 0-.13-.05-.13-.13 0-.05.02-.1.13-.23.3-.37.7-.77 1.27-1.42a5.57 5.57 0 0 0-2.33.44m-.5 4.89c0 .27.03.69.23 1.16.3.73 1.17 1.35 3.13 1.35 1.4 0 2.1-.1 2.38-.17.25-.09.45-.2.74-.2.32 0 .81.17 1.07.3.33.16.49.4.49.69 0 .23-.13.56-.57.7-.4.15-1.3.31-3.07.31-3.11 0-4.92-1.27-4.92-3.5 0-.57.09-1.33.46-1.99.09-.16.12-.2.2-.2.07 0 .1.08.1.18 0 .13-.23.7-.23 1.37m-2.91 2.14c-.07.3-.11.6-.11 1.02 0 .38.1.86.1 1.04.03.5-.1.82-.5.82-.53 0-.7-.18-1.2-1.13-.36-.7-.6-2.07-.6-3.4 0-1.55.31-3.15.79-5.11.24-1 .37-1.55.37-1.86 0-.52-.15-.94-.48-1.43-.04-.06-.07-.1-.07-.18 0-.06.09-.15.25-.15.2 0 .59.2.88.45.28.26.5.5.84 1.1.22.38.31.69.31 1 0 .23-.09.49-.25.65-.22.26-.31.46-.57 1-.4.93-.93 2.57-.93 3.9 0 1.08.05 1.57.2 1.83.04.07.11.07.15 0 .56-1.07 1.13-2.3 1.64-3.35.08-.16.17-.21.26-.21s.18.1.09.38c-.48 1.43-.97 2.83-1.17 3.63m7.17 19.15c.44-.38 1.15-.6 1.81-.6.95 0 1.85.36 2.44.87.56.5.87 1.15.87 1.86 0 .52-.27.83-.69.83a.95.95 0 0 1-.55-.16c-.16-.13-.3-.24-.55-.24a4.43 4.43 0 0 0-1.26.15c-.26.05-.35.09-.44.09-.06 0-.15 0-.15-.1 0-.08.08-.12.24-.23.24-.16.93-.6 1.2-.85.06-.06.14-.13.14-.24 0-.1-.02-.18-.08-.26a2.2 2.2 0 0 0-1.94-.98c-.29 0-.58.06-.76.11-.13.04-.22.1-.3.1-.07 0-.13-.03-.13-.1 0-.1.06-.18.15-.25m-7.3 7.8c.37.22.59.33.9.49.27.15.51.2.6.2.11 0 .18-.07.18-.25l-.01-1.79c-.55.42-1.21.93-1.67 1.35m7.03-4.31c.95 0 1.66.22 2.36.65a2.92 2.92 0 0 1 1.42 2.44c0 1.1-.5 1.8-1.19 2.3-.67.48-1.37.7-2.3.7A3.85 3.85 0 0 1 8.69 201a3.69 3.69 0 0 1-.55-.94c0-.06.06-.1.11-.1.11 0 .17.04.24.13.84.93 1.96 1.3 2.85 1.3.72 0 1.45-.26 1.8-.6.42-.42.53-.99.53-1.6 0-.66-.26-1.3-.88-1.66-.51-.3-1-.35-1.46-.35a5.8 5.8 0 0 0-2.68.88c-.44.23-.82.47-1.19.69.04 1.07.08 1.73.12 2.38.01.33.03.55.03.9 0 .46-.02.8-.15 1.16-.25.65-.56.85-.9.85-.3 0-.5-.16-.61-.6-.24-.98-.64-1.38-1.65-2.31-.51.42-.68.6-.84.78-.28.3-.5.35-.73.35-.28 0-.57-.13-.8-.28-.5-.29-.81-.78-.81-1.2 0-.52.36-.94.49-.94.07 0 .11.04.15.14.07.22.13.35.2.44.07.07.13.1.3.07.3-.03 1.18-.49 1.91-.89.64-.36 1.48-.87 2.09-1.23l-.04-3.48c-.7.11-1.4.24-1.97.24-.68 0-1.27-.38-1.73-1-.29-.38-.4-.71-.4-.9 0-.14 0-.23.13-.23.11 0 .2.13.35.31.3.36.78.65 1.39.65.55 0 1.06-.05 2.25-.3v-1.97c0-.56-.02-.76-.07-.87-.04-.3-.15-.37-.33-.42a1.7 1.7 0 0 0-.48-.09c-.27 0-.42-.06-.42-.15s.07-.3.3-.43c.18-.11.5-.3.8-.3.36 0 .8.13 1.3.48.53.38.78.75.78 1 0 .24-.07.36-.16.5-.07.1-.17.14-.28.35-.16.35-.18.95-.2 1.46.66-.3 1.03-.53 1.27-.75.14-.12.47-.3.87-.3.75 0 1.1.29 1.1.6 0 .3-.05.43-.5.72-.21.15-.8.42-1.2.58-.44.17-1.02.37-1.61.51 0 .84 0 2.22.02 3.2a8.65 8.65 0 0 1 4.2-1.25m-.69 33.87h3.1v-3.22h-3.1v3.22zm0-3.63h3.1v-2.9h-3.1v2.9zm-4.6 3.63h2.94v-3.22H6.35v3.22zm0-3.63h2.94v-2.9H6.35v2.9zm2.94-4.8c0-.37-.02-.8-.08-1.39 2.09.2 2.27.38 2.27.57 0 .14-.18.3-.53.47v1.84h2.97c.64-.75.78-.86.93-.86.18 0 .33.11 1 .67.32.28.43.4.43.55 0 .16-.1.25-.55.55v1.12c0 2.97.1 5.02.1 5.7 0 .49-.32.7-1 .7-.6 0-.79-.2-.79-.76v-.3H6.35v.26c0 .66-.24.88-.93.88-.63 0-.8-.15-.8-.77 0-.92.1-1.85.1-5.6 0-1.03-.02-2.07-.15-3.1.94.41 1.07.48 1.93.96h2.78v-1.5zm4.86-5.1H3.88v.4c0 .84 0 1.62-.02 2.37h10.28v-2.77zm-10.3 3.19a29.7 29.7 0 0 1-.75 6.56 11.87 11.87 0 0 1-2.65 5.02c-.06.07-.22-.05-.18-.15a16.7 16.7 0 0 0 1.46-5.38c.26-1.94.35-4.3.35-7.4 0-1.78-.02-2.3-.08-3.3.97.44 1.07.48 2.1 1.04H14c.68-.78.83-.89.98-.89.18 0 .33.11 1 .7.3.25.4.38.4.52 0 .2-.12.35-.5.58v.42c0 1.13.05 1.78.05 2.48 0 .52-.33.74-.99.74-.62 0-.79-.18-.79-.8v-.14H3.84zM13.9 246.9c.24-.14.57-.17 1.05-.1.5.07.9.35.9.87 0 .35-.19.46-.6.51-.27.04-.6.04-1.05.06a11 11 0 0 0-1.2.1v2.93c0 2.15-.41 3.37-1.07 4.33-.8 1.17-2.2 2.08-4.14 2.59-.27.07-.53.1-.64.1-.14 0-.22-.03-.22-.16s.17-.16.33-.24a7.03 7.03 0 0 0 3.46-2.94c.59-1.1.84-2.5.83-4.24v-2.1l-1.45.21c-.59.09-.93.18-1.28.18-.6 0-1.19-.25-1.78-.8-.25-.24-.34-.34-.34-.49 0-.1.05-.15.12-.15.1 0 .17.06.24.1.33.14.92.23 1.56.23.5 0 1.52-.16 2.93-.4 0-.6-.02-1.36-.04-2.14-.02-.42-.02-.68-.17-.91-.07-.13-.29-.24-.49-.31-.2-.08-.42-.11-.6-.15-.11-.02-.19-.03-.19-.14 0-.08.06-.19.28-.35.25-.18.53-.29.91-.29.35 0 .73.13 1.21.42.51.3.97.69.97 1.09 0 .18-.04.3-.18.45a.8.8 0 0 0-.19.5 16.5 16.5 0 0 0-.07 1.5c.4-.09.68-.14.92-.27m-9.61 6.66c.55-1.22.84-1.98 1.28-3.08.07-.18.13-.25.22-.25.07 0 .1.07.1.16 0 .13-.04.31-.17.9-.19.8-.3 1.34-.48 2.14-.13.56-.24 1.02-.24 1.38 0 .22.02.42.06.64.03.24.05.34.05.53 0 .34-.14.76-.56.76-.39 0-.8-.3-1.17-.9-.55-.8-.92-1.86-.92-3.72 0-1.24.17-2.7.37-4.02.12-.78.18-1.03.23-1.36.1-.5.15-.78.15-1.3s-.22-.92-.55-1.34c-.09-.13-.15-.18-.15-.25 0-.11.13-.19.24-.19.48 0 1.23.55 1.65 1.04.4.47.64 1 .64 1.37 0 .36-.15.54-.3.72a2.4 2.4 0 0 0-.4.73c-.49 1.66-.78 2.86-.78 4.07 0 .73.05 1.44.33 2.04.1.18.29.18.4-.07m2.3 19.6c-.09.29-.18 1.23-.3 3.2-.15 1.9-.22 3.56-.22 4.7 0 .95.14 1.48.42 1.73.29.26.93.42 1.75.42 1.21 0 2.62-.4 4-1.1.96-.5 2.19-1.3 3.2-2.46.1-.13.21-.24.32-.24.1 0 .19.06.19.18 0 .1-.13.33-.24.51-.8 1.3-1.89 2.39-3.19 3.24a8.27 8.27 0 0 1-4.88 1.47c-1.92 0-3.1-1.3-3.04-3.54.07-3.04.2-6.02.28-8.79.01-.67-.11-.96-.7-1.2-.51-.18-.57-.2-.57-.3 0-.17.13-.24.31-.33.24-.11.64-.17.85-.17.47 0 1.08.24 1.75.82.37.31.53.64.53.93 0 .33-.14.47-.25.62-.08.1-.17.16-.2.3m-1.16 29.44c-.25.3-.5.59-.5 1 0 .46.4.8 1.45.8.5 0 1.14-.03 1.83-.1l-.01-2.7-1.72.24c-.39.18-.8.5-1.05.76m.77 6.31c-.57.06-1.02.13-1.4.35-.28.18-.47.44-.47.75 0 .29.22.63.6.81.36.2.9.24 1.56.24.68 0 1.21-.16 1.52-.5.33-.4.3-1 .3-1.45a6.79 6.79 0 0 0-2.1-.2m-1.86-7.05c-1 0-1.9-.42-2.41-1.46-.04-.07-.1-.14-.1-.23 0-.08.08-.17.17-.17.07 0 .1.04.17.11.44.48 1.15.66 2.27.66a28 28 0 0 0 3.75-.42v-1.78c0-.53-.02-.77-.17-.91a1.07 1.07 0 0 0-.51-.22 2.86 2.86 0 0 0-.42-.07c-.08 0-.11-.04-.11-.13 0-.11.07-.2.22-.35.14-.14.46-.3.73-.3.48 0 .95.18 1.4.45.67.38.8.7.8.93 0 .25-.15.4-.26.5-.15.15-.31.26-.35.7l-.09 1c.7-.11 1.26-.22 1.8-.33.4-.1.67-.15 1.04-.33.18-.1.3-.18.9-.18.67 0 1.31.47 1.31.93 0 .54-.24.65-1.2.74-1.25.11-2.73.26-3.9.42a64.9 64.9 0 0 0 0 2.73c.67-.11 1.17-.22 1.59-.38.25-.11.22-.24.07-.58-.05-.15-.22-.39-.42-.7-.07-.16.04-.23.2-.1.33.23.7.47 1 .65.35.2.52.16.68.16.55 0 .86.24.86.66 0 .38-.4.54-.98.76-.83.31-1.94.6-2.97.75.02.78.13 2.09.18 2.82a13.6 13.6 0 0 1 3.7 1.6c.59.34 1.1.76 1.1 1.43 0 .4-.28.8-.7.8-.18 0-.38-.03-.67-.29a11.35 11.35 0 0 0-3.3-2.2c.1 1.66-.75 2.71-2.85 2.71-.66 0-1.65-.13-2.33-.62-.47-.34-.87-.81-.87-1.58 0-.58.34-1.07.91-1.45.44-.3 1-.44 1.74-.55.51-.07 1.28-.05 1.96-.02 0-.85-.02-1.72-.06-2.5-.47.03-1.17.03-1.48.03-1.81 0-2.62-.6-2.62-1.51 0-.67.4-1.18.7-1.5.2-.23.51-.45.9-.72-.32.02-.92.04-1.38.04m2.66 29.27a1.4 1.4 0 0 0-.39 1c0 .55.19.82.33.98.24.28.57.4.97.4.33 0 .64-.12.82-.3.24-.24.33-.57.33-1.06 0-.33-.05-.67-.27-.96-.2-.26-.53-.4-.88-.4-.33 0-.66.09-.91.34m6.12-4.24c.43-.05.68-.1.83-.18.2-.09.37-.18.6-.18.64 0 1.41.24 1.83.5.39.25.53.6.53.86 0 .37-.27.53-.58.55-.28.02-.55-.02-.9-.1-.66-.14-1.24-.3-2.05-.3-1.17 0-2 .02-3.18.1-.02.94-.06 1.88-.06 2.92.26.58.46 1.25.46 2.18 0 1.87-.99 3.31-2.2 4.27a8 8 0 0 1-3.27 1.53c-.42.11-.86.18-1.03.18-.12 0-.25-.07-.25-.18 0-.14.07-.2.22-.25 2.58-.91 4.17-2.39 4.76-4.22-.35.18-.85.23-1.08.22a2.14 2.14 0 0 1-1.32-.5 2.3 2.3 0 0 1-.79-1.76c0-.87.39-1.44.77-1.76.4-.33 1.02-.57 1.52-.57.25 0 .64.04.93.11.02-.7 0-1.38-.02-2.02-1.31.15-3.14.5-4.42.8-.5.13-.8.3-1.08.48a1 1 0 0 1-.6.2c-.3 0-.68-.11-1.18-.57-.55-.5-.88-1.03-.88-1.36 0-.13.02-.22.06-.3.04-.08.09-.14.18-.14.06 0 .11.04.17.1.64.54 1.11.67 1.6.67.12 0 .37-.02 1.3-.17 1.56-.25 3.37-.5 4.85-.69l-.03-1.85c0-.31-.02-.53-.08-.64-.07-.16-.16-.27-.49-.3l-.7-.08c-.1-.02-.2-.06-.2-.15 0-.12.13-.25.3-.38.25-.22.64-.42.97-.42.5 0 .98.17 1.64.6.33.22.53.46.53.71 0 .2-.1.38-.25.53a.6.6 0 0 0-.2.38c-.04.42-.06.75-.08 1.44a80.8 80.8 0 0 0 2.88-.26" fill="#000" mask="url(#b)"/></g></svg>