<svg viewBox="0 0 71 311" xmlns="http://www.w3.org/2000/svg"><path d="M3.5 5.23l3.2 1.22c.43.16.82.3 1.3.43v1.1c0 .36 0 .81.03 1.18 0 .07-.02.1-.13.1s-.13-.03-.14-.1c-.04-.43-.04-.6-.25-.7-.25-.16-.67-.17-1.3-.16l-3.63.06c-1 .02-1.12.05-1.33.15-.21.11-.22.33-.26.75-.01.07-.03.1-.13.1s-.12-.03-.12-.1a37.78 37.78 0 0 0 0-2.9c0-.07.02-.09.13-.09.09 0 .1.02.12.08.04.4.04.6.26.7.22.13.66.13 1.33.12l4.38-.04v-.09L3.38 5.58.85 4.54c-.08-.03-.11-.06-.11-.19 0-.16.03-.17.1-.2.8-.3 1.45-.58 2.34-.96L6.96 1.6v-.12l-4.38-.02c-.6 0-1.07.06-1.28.2-.2.12-.27.47-.31.73-.01.1-.03.1-.12.1-.11 0-.13-.02-.13-.1a20.96 20.96 0 0 0 0-2.32c0-.07.02-.1.12-.1.1 0 .12.03.13.1.04.24.1.53.3.67.24.14.66.22 1.29.24l3.63.1c.66.02 1.07.02 1.3-.13.2-.14.2-.45.25-.8 0-.06.02-.09.14-.09.1 0 .13.03.13.08L8 1.3v1.18c-.4.12-.76.25-1.14.41l-3.34 1.4c-.5.21-.7.3-1.22.5.48.2.65.24 1.2.45zM2.3 17.64l1.19-.42c.02-.33.04-.76.04-1.14 0-.42-.02-.82-.04-1.24l-1.05-.38c-.6-.22-.9-.2-1.12-.11-.21.09-.28.42-.32.78 0 .06-.02.09-.13.09s-.13-.03-.13-.11c.02-.37.02-.88.02-1.25 0-.35 0-.72-.02-1.05 0-.09.02-.11.13-.11.1 0 .13.02.13.11.04.27.17.44.3.59.2.2.58.39 1.18.61l3.24 1.2c1.26.47 1.57.56 2.1.72l.36.79c0 .07-.02.11-.1.13l-2.42.83-3.26 1.13c-.6.2-.94.34-1.14.5-.21.17-.23.27-.26.65 0 .11-.02.13-.13.13s-.13-.02-.13-.13a67.24 67.24 0 0 0 0-2.83c0-.07.02-.08.13-.08.1 0 .13.02.13.08.02.38.06.63.26.69.22.07.5.01 1.05-.18zm1.59-.56l1.75-.6c.66-.23.95-.31 1.3-.42l-1.28-.45-1.77-.64a19.64 19.64 0 0 0 0 2.11zm-1.31 8.49H6.2c.92 0 1.08-.01 1.28-.11.18-.1.18-.32.18-.57 0-.46-.11-.9-.35-1.2a3.1 3.1 0 0 0-1.07-.71c-.05-.02-.08-.04-.06-.16.02-.11.05-.11.1-.11.52.08 1.23.15 1.74.19a122.77 122.77 0 0 0 0 6.6c-.51.04-1.22.1-1.73.18-.06 0-.1 0-.11-.11-.02-.13 0-.15.06-.17.37-.14.82-.4 1.07-.7.24-.28.35-.72.35-1.22 0-.25.02-.45-.2-.6-.22-.13-.67-.12-1.26-.12H2.58c-1 0-1.11-.01-1.33.09-.2.1-.21.39-.25.77-.01.07-.03.09-.13.09-.11 0-.13-.02-.13-.1a33.88 33.88 0 0 0 0-2.82c0-.07.02-.1.12-.1.1 0 .13.03.14.1.04.35.05.58.25.69.24.12.66.09 1.33.09zM7.92 39.6c-.52.04-1.21.11-1.73.17-.08.01-.12-.02-.14-.1-.02-.1 0-.12.08-.16.52-.27.94-.54 1.25-.9.32-.38.47-.84.47-1.28 0-1.45-1.36-2.57-3.44-2.57-1.84 0-3.24 1.13-3.24 2.62a2.7 2.7 0 0 0 1.39 2.46c.05.03.07.07 0 .2-.03.1-.1.11-.17.07-1.05-.58-1.81-1.45-1.81-2.94 0-2.2 1.56-3.79 3.8-3.79 2.22 0 3.8 1.61 3.8 3.83 0 .5-.06.9-.15 1.27-.1.4-.17.7-.11 1.12zm-3.58 6.25H2.58c-1 0-1.16-.02-1.35.08-.2.12-.21.38-.25.8-.01.07-.02.09-.12.09-.11 0-.12-.02-.12-.1l.03-1.47c0-.43-.01-.96-.03-1.41 0-.06 0-.07.1-.07s.13.01.14.07c.04.41.04.6.25.71.23.14.67.13 1.35.13H6.2c.96 0 1.09-.01 1.3-.13.2-.09.2-.32.25-.74 0-.06.02-.08.13-.08.12 0 .14.02.14.08-.01.46-.04 1-.04 1.44 0 .46.03.97.04 1.4 0 .09-.02.12-.14.12-.11 0-.12-.03-.13-.1-.04-.38-.04-.6-.24-.72-.23-.11-.68-.1-1.31-.1H4.79c-.03.64-.03 1.2-.03 1.79 0 .58 0 1.11.03 1.74H6.2c.96 0 1.1 0 1.3-.1.2-.1.2-.35.25-.77 0-.07.02-.08.13-.08.12 0 .14.02.14.09-.01.47-.04 1.01-.04 1.47 0 .43.03.94.04 1.38 0 .1-.02.12-.13.12-.12 0-.13-.02-.14-.11-.04-.39-.04-.58-.24-.69-.23-.14-.7-.14-1.31-.14H2.58c-1 0-1.14.01-1.35.13-.2.12-.21.35-.25.78-.01.06-.03.07-.13.07s-.11-.02-.11-.09c0-.49.03-1.01.03-1.45l-.03-1.42c0-.08 0-.09.1-.09s.13.02.14.09c.04.4.04.58.25.69.23.12.67.12 1.35.12h1.76c.04-.63.04-1.16.04-1.74 0-.59 0-1.15-.04-1.79zm-2.03 14l1.18-.41c.02-.33.04-.76.04-1.14 0-.42-.02-.82-.04-1.24l-1.05-.38c-.6-.22-.9-.2-1.12-.11-.21.09-.28.42-.32.78 0 .06-.02.09-.13.09s-.13-.03-.13-.11c.02-.37.02-.88.02-1.25 0-.35 0-.72-.02-1.05 0-.1.02-.11.13-.11.1 0 .13.02.13.1.04.28.17.45.3.6.2.2.58.39 1.18.6l3.24 1.2c1.26.48 1.57.57 2.1.73l.36.79c0 .07-.02.1-.1.13l-2.42.83-3.26 1.13c-.6.2-.94.34-1.14.5-.21.17-.23.27-.26.65 0 .1-.02.13-.13.13s-.13-.02-.13-.13a67.24 67.24 0 0 0 0-2.83c0-.07.02-.08.13-.08.1 0 .13.02.13.08.02.38.06.63.26.69.22.07.5 0 1.05-.18zm1.58-.55l1.75-.6c.66-.23.95-.31 1.3-.42l-1.28-.45-1.77-.64c-.02.33-.02.73-.02 1.1 0 .33 0 .72.02 1zm4.03 19.1c-.52.03-1.21.1-1.73.16-.08.01-.12-.02-.14-.1-.02-.1 0-.12.08-.16.52-.27.94-.54 1.25-.9.32-.38.47-.84.47-1.28 0-1.45-1.36-2.57-3.44-2.57-1.84 0-3.24 1.13-3.24 2.62a2.7 2.7 0 0 0 1.39 2.46c.05.03.07.07 0 .2-.03.1-.1.11-.17.07-1.05-.58-1.81-1.45-1.81-2.94 0-2.2 1.56-3.79 3.8-3.79 2.22 0 3.8 1.61 3.8 3.83 0 .5-.06.9-.15 1.27-.1.4-.17.7-.11 1.12zm-3.58 6.24H2.58c-1 0-1.16-.02-1.35.08-.2.12-.21.38-.25.8-.01.07-.02.09-.12.09-.11 0-.12-.02-.12-.1l.03-1.47c0-.43-.01-.96-.03-1.41 0-.06 0-.07.1-.07s.13 0 .14.07c.04.4.04.6.25.7.23.15.67.14 1.35.14H6.2c.96 0 1.09-.01 1.3-.13.2-.1.2-.32.25-.74 0-.06.02-.08.13-.08.12 0 .14.02.14.08-.01.46-.04 1-.04 1.44 0 .46.03.97.04 1.4 0 .09-.02.12-.14.12-.11 0-.12-.03-.13-.1-.04-.38-.04-.6-.24-.72-.23-.11-.68-.1-1.31-.1H4.79c-.03.64-.03 1.2-.03 1.79 0 .58 0 1.1.03 1.74H6.2c.96 0 1.1 0 1.3-.1.2-.1.2-.35.25-.77 0-.07.02-.08.13-.08.12 0 .14.02.14.09-.01.47-.04 1-.04 1.47 0 .43.03.94.04 1.38 0 .1-.02.12-.13.12-.12 0-.13-.02-.14-.11-.04-.4-.04-.58-.24-.7-.23-.13-.7-.13-1.31-.13H2.58c-1 0-1.14 0-1.35.13-.2.12-.21.35-.25.78-.01.06-.03.07-.13.07s-.11-.02-.11-.1l.03-1.44-.03-1.42c0-.08 0-.1.1-.1s.13.03.14.1c.04.4.04.58.25.69.23.12.67.12 1.35.12h1.76c.04-.63.04-1.16.04-1.74 0-.6 0-1.15-.04-1.8zm.05 11.74H2.58c-.42 0-.98-.01-1.21.14-.27.16-.3.52-.3.96 0 .93.22 1.4.49 1.72.26.3.65.58 1.02.8.07.03.1.06.07.16-.04.13-.08.12-.14.1-.53-.1-1.26-.31-1.77-.51a118.67 118.67 0 0 0 0-5.36c0-.07.02-.1.12-.1.1 0 .12.03.13.1.04.38.05.55.26.66.22.12.66.13 1.33.13H6.2c.96 0 1.09-.01 1.3-.12.2-.1.2-.31.25-.73 0-.07.02-.1.13-.1.12 0 .14.03.14.1a79.25 79.25 0 0 0 0 5.22c-.51.04-1.18.1-1.7.19-.06 0-.1-.01-.12-.11-.01-.11 0-.15.07-.17.4-.15.82-.42 1.03-.68.25-.28.36-.72.36-1.5 0-.36-.02-.67-.25-.8-.21-.12-.67-.1-1.21-.1H4.75l-.01.56c0 .6.08 1.08.22 1.26.17.23.4.33.68.39.06 0 .09.03.09.15 0 .1-.03.12-.1.12l-1.05-.02c-.37 0-.8 0-1.16.02-.08 0-.11-.01-.11-.12s.03-.13.1-.15c.25-.06.58-.17.75-.4.12-.2.24-.65.24-1.25l-.01-.56zm0 9.65H2.58c-.42 0-.98 0-1.21.14-.27.16-.3.52-.3.96 0 .93.22 1.4.49 1.72.26.31.65.58 1.02.8.07.03.1.06.07.16-.04.13-.08.12-.14.11-.53-.1-1.26-.32-1.77-.52a118.67 118.67 0 0 0 0-5.36c0-.07.02-.09.12-.09.1 0 .12.02.13.1.04.37.05.54.26.65.22.12.66.13 1.33.13H6.2c.96 0 1.09 0 1.3-.12.2-.1.2-.3.25-.73 0-.07.02-.09.13-.09.12 0 .14.02.14.1a79.25 79.25 0 0 0 0 5.21c-.51.04-1.18.11-1.7.2-.06 0-.1-.02-.12-.12-.01-.1 0-.15.07-.17.4-.15.82-.42 1.03-.68.25-.28.36-.72.36-1.5 0-.36-.02-.67-.25-.8-.21-.12-.67-.1-1.21-.1H4.75l-.01.56c0 .61.08 1.08.22 1.26.17.23.4.33.68.4.06 0 .09.02.09.14 0 .11-.03.12-.1.12l-1.05-.02-1.16.02c-.08 0-.11 0-.11-.12 0-.1.03-.13.1-.15.25-.06.58-.17.75-.4.12-.19.24-.65.24-1.25l-.01-.56zm-.38 9.9l.26-.5c.6-1.18 1.1-1.58 2.12-1.58s1.8.9 1.8 2.24c0 .44-.07.73-.14 1-.08.32-.08.67-.03 1-.51 0-1.16.07-1.7.1-.04 0-.07 0-.1-.1-.01-.1.02-.12.07-.14.92-.4 1.58-1.01 1.58-1.81 0-.68-.5-1.2-1.26-1.2-.45 0-.87.27-1.28 1.1l-.26.55c-.7 1.42-1.14 1.92-2.33 1.92-1.35 0-2.16-1-2.16-2.67 0-.7.15-1.36.35-1.92a14.7 14.7 0 0 1 1.67-.35c.07-.01.14-.01.16.1.02.12-.01.16-.06.18-1.01.45-1.8 1.23-1.8 2.1 0 .85.6 1.45 1.44 1.45.76 0 1.15-.45 1.67-1.46zm.38 8.74H2.58c-.42 0-.98-.01-1.21.14-.27.16-.3.52-.3.96 0 .93.22 1.4.49 1.72.26.3.65.58 1.02.8.07.03.1.06.07.16-.04.13-.08.12-.14.1-.53-.1-1.26-.31-1.77-.51a118.67 118.67 0 0 0 0-5.36c0-.07.02-.1.12-.1.1 0 .12.03.13.1.04.38.05.55.26.66.22.12.66.13 1.33.13H6.2c.96 0 1.09-.01 1.3-.12.2-.1.2-.31.25-.73 0-.07.02-.1.13-.1.12 0 .14.03.14.1a79.25 79.25 0 0 0 0 5.22c-.51.04-1.18.1-1.7.19-.06 0-.1-.01-.12-.11-.01-.11 0-.15.07-.17.4-.15.82-.42 1.03-.68.25-.28.36-.72.36-1.5 0-.36-.02-.67-.25-.8-.21-.12-.67-.1-1.21-.1H4.75l-.01.56c0 .6.08 1.08.22 1.26.17.23.4.33.68.39.06 0 .09.03.09.15 0 .1-.03.12-.1.12l-1.05-.02c-.37 0-.8 0-1.16.02-.08 0-.11-.01-.11-.12s.03-.13.1-.15c.25-.06.58-.17.75-.4.12-.2.24-.65.24-1.25l-.01-.56zm-1.81 16.6H6.2c.92 0 1.08-.01 1.28-.11.18-.1.18-.32.18-.57 0-.46-.11-.9-.35-1.19a3.1 3.1 0 0 0-1.07-.72c-.05-.02-.08-.04-.06-.16.02-.11.05-.11.1-.11.52.08 1.23.15 1.74.19a122.77 122.77 0 0 0 0 6.6c-.51.04-1.22.11-1.73.18-.06 0-.1 0-.11-.11-.02-.13 0-.15.06-.17.37-.14.82-.4 1.07-.7.24-.28.35-.72.35-1.22 0-.25.02-.45-.2-.59-.22-.14-.67-.13-1.26-.13H2.58c-1 0-1.11-.01-1.33.09-.2.1-.21.39-.25.77-.01.07-.03.09-.13.09-.11 0-.13-.02-.13-.1a33.88 33.88 0 0 0 0-2.82c0-.07.02-.09.12-.09.1 0 .13.02.14.09.04.35.05.58.25.69.24.12.66.09 1.33.09zm-.27 11.63l1.18-.42c.02-.33.04-.76.04-1.14 0-.42-.02-.82-.04-1.24l-1.05-.38c-.6-.22-.9-.2-1.12-.11-.21.09-.28.42-.32.78 0 .06-.02.09-.13.09s-.13-.03-.13-.11c.02-.37.02-.88.02-1.25 0-.35 0-.72-.02-1.05 0-.1.02-.11.13-.11.1 0 .13.02.13.1.04.28.17.45.3.6.2.2.58.39 1.18.6l3.24 1.2c1.26.48 1.57.57 2.1.73l.36.79c0 .07-.02.1-.1.13l-2.42.83-3.26 1.13c-.6.2-.94.34-1.14.5-.21.17-.23.27-.26.65 0 .1-.02.13-.13.13s-.13-.02-.13-.13a67.24 67.24 0 0 0 0-2.83c0-.07.02-.08.13-.08.1 0 .13.02.13.08.02.38.06.63.26.69.22.07.5 0 1.05-.18zm1.58-.56l1.75-.6c.66-.23.95-.31 1.3-.42l-1.28-.45-1.77-.64a19.64 19.64 0 0 0 0 2.1zm.3 8.52H2.6c-1 0-1.14.01-1.33.11-.22.13-.22.35-.26.77-.01.07-.03.08-.14.08-.1 0-.12 0-.12-.1a34.13 34.13 0 0 0 0-2.8c0-.09.03-.1.12-.1.1 0 .13.01.14.1.04.36.05.58.26.68.22.12.66.12 1.33.12h3.6c.96 0 1.08 0 1.3-.1.2-.1.2-.4.25-.8 0-.08.03-.1.14-.1.12 0 .13.02.13.1-.02.46-.03.98-.03 1.42 0 .38.04 1.02.04 1.65 0 1.98-.82 2.73-1.87 2.73-.75 0-1.5-.5-1.8-1.67-.77.43-1.61.91-2.47 1.44-.36.22-.63.4-.75.6-.1.15-.12.31-.15.6-.01.06-.02.08-.13.08s-.13-.02-.13-.08c.02-.42.04-.74.04-1.06l-.01-.92c.25-.09.53-.22.78-.36l2.64-1.44-.01-.33c0-.2 0-.37.02-.62zm2.02 0H4.54c-.03.22-.04.46-.04.65 0 1.35.7 1.84 1.6 1.84 1.02 0 1.6-.5 1.6-1.66 0-.26 0-.58-.2-.72-.2-.13-.72-.1-1.3-.1zm-3.63 10.75H6.2c.92 0 1.08-.01 1.28-.11.18-.1.18-.32.18-.57 0-.46-.11-.9-.35-1.19a3.1 3.1 0 0 0-1.07-.72c-.05-.02-.08-.04-.06-.16.02-.11.05-.11.1-.11.52.08 1.23.15 1.74.19a122.77 122.77 0 0 0 0 6.6c-.51.04-1.22.11-1.73.18-.06 0-.1 0-.11-.11-.02-.13 0-.15.06-.17.37-.14.82-.4 1.07-.7.24-.28.35-.72.35-1.22 0-.25.02-.45-.2-.59-.22-.14-.67-.13-1.26-.13H2.58c-1 0-1.11-.01-1.33.09-.2.1-.21.39-.25.77-.01.07-.03.09-.13.09-.11 0-.13-.02-.13-.1a33.88 33.88 0 0 0 0-2.82c0-.07.02-.09.12-.09.1 0 .13.02.14.09.04.35.05.58.25.69.24.12.66.09 1.33.09zM4 188.18l.26-.5c.6-1.19 1.1-1.59 2.12-1.59s1.8.9 1.8 2.24c0 .44-.07.73-.14 1.01-.08.31-.08.66-.03 1-.51 0-1.16.06-1.7.1-.04 0-.07 0-.1-.1-.01-.1.02-.13.07-.15.92-.39 1.58-1 1.58-1.8 0-.69-.5-1.2-1.26-1.2-.45 0-.87.26-1.28 1.1l-.26.54c-.7 1.42-1.14 1.92-2.33 1.92-1.35 0-2.16-.99-2.16-2.67 0-.7.15-1.36.35-1.92a14.7 14.7 0 0 1 1.67-.35c.07 0 .14 0 .16.11.02.11-.01.15-.06.17-1.01.45-1.8 1.23-1.8 2.1 0 .85.6 1.45 1.44 1.45.76 0 1.15-.45 1.67-1.46zm-1.43 9.27H6.2c.92 0 1.08 0 1.28-.1.18-.1.18-.33.18-.58 0-.46-.11-.9-.35-1.19a3.1 3.1 0 0 0-1.07-.72c-.05-.02-.08-.04-.06-.16.02-.1.05-.1.1-.1.52.07 1.23.14 1.74.18a122.77 122.77 0 0 0 0 6.6c-.51.04-1.22.11-1.73.18-.06 0-.1 0-.11-.1-.02-.14 0-.16.06-.18.37-.14.82-.4 1.07-.7.24-.28.35-.72.35-1.22 0-.25.02-.45-.2-.59-.22-.14-.67-.13-1.26-.13H2.58c-1 0-1.11 0-1.33.1-.2.1-.21.38-.25.76-.01.07-.03.1-.13.1-.11 0-.13-.03-.13-.1a33.88 33.88 0 0 0 0-2.83c0-.07.02-.09.12-.09.1 0 .13.02.14.1.04.34.05.57.25.68.24.12.66.1 1.33.1zm1.62 9.89h-1.6c-1 0-1.14 0-1.33.1-.22.14-.22.36-.26.78-.01.07-.03.08-.14.08-.1 0-.12-.01-.12-.1a34.13 34.13 0 0 0 0-2.81c0-.08.03-.1.12-.1.1 0 .13.02.14.1.04.37.05.59.26.69.22.12.66.12 1.33.12H6.2c.96 0 1.08 0 1.3-.1.2-.1.2-.4.25-.81 0-.07.03-.1.14-.1.12 0 .13.03.13.1-.02.47-.03.99-.03 1.43 0 .38.04 1.02.04 1.65 0 1.98-.82 2.73-1.87 2.73-.75 0-1.5-.51-1.8-1.67-.77.43-1.61.9-2.47 1.44-.36.22-.63.4-.75.59-.1.16-.12.32-.15.6-.01.07-.02.09-.13.09s-.13-.02-.13-.08c.02-.42.04-.74.04-1.06l-.01-.92c.25-.1.53-.22.78-.36l2.64-1.44-.01-.33c0-.2 0-.37.02-.62zm2 0H4.55c-.03.22-.04.46-.04.65 0 1.35.7 1.84 1.6 1.84 1.02 0 1.6-.51 1.6-1.66 0-.26 0-.58-.2-.72-.2-.13-.72-.11-1.3-.11zm1.99 11.89c0 2.26-1.56 3.88-3.8 3.88a3.73 3.73 0 0 1-3.82-3.88 3.71 3.71 0 0 1 3.8-3.87 3.7 3.7 0 0 1 3.82 3.87zm-.34 0c0-1.47-1.38-2.48-3.45-2.48-2.11 0-3.48.98-3.48 2.48 0 1.48 1.37 2.48 3.45 2.48 2.12 0 3.48-1.01 3.48-2.48zm-.9 9.36v-.14l-4.38.05c-.64.01-1.07.07-1.27.21-.2.14-.27.44-.31.75-.01.08-.03.1-.13.1s-.12-.03-.12-.1a21.99 21.99 0 0 0 0-2.38c0-.08.02-.09.1-.09.1 0 .13.01.14.08.04.28.1.56.32.7.22.15.65.23 1.27.24l3.64.05c.64.01 1.03-.03 1.22-.16.2-.14.27-.46.3-.84.02-.07.04-.09.16-.09.1 0 .14.02.14.1L8 228.1v1.22c-.4.22-.63.38-1.22.77l-3.41 2.3c-.53.34-.84.55-1.3.81h1.15l2.99-.02c.58 0 1-.1 1.23-.24.2-.12.27-.44.3-.7 0-.1.02-.13.14-.13.13 0 .15.02.15.1a20.01 20.01 0 0 0 0 2.3c0 .07-.02.1-.14.1-.11 0-.13-.03-.14-.1-.04-.28-.1-.53-.31-.65a2.51 2.51 0 0 0-1.23-.24l-3.63-.06c-.7 0-1.11 0-1.66.02-.34-.64-.35-.68-.35-.73a.1.1 0 0 1 .05-.09c.5-.32.8-.5 1.75-1.13l4.58-3.05zm.97 16.26c-.52.02-1.2.09-1.72.16-.08 0-.11 0-.14-.1-.03-.1 0-.12.08-.16.54-.27.9-.51 1.2-.88.32-.36.5-.88.5-1.44 0-1.46-1.46-2.6-3.44-2.6-2.02 0-3.47 1.1-3.47 2.74 0 .6.19 1.06.59 1.53.2.03.4.05.69.05 1 0 1.12 0 1.35-.11.2-.1.2-.34.25-.76 0-.07.02-.1.13-.1.1 0 .12.03.12.1-.02.46-.04.96-.04 1.4 0 .46.02.83.04 1.29 0 .07-.01.08-.12.08-.1 0-.12-.01-.13-.08-.04-.37-.04-.5-.25-.62a11.7 11.7 0 0 0-2.69-.05c-.04 0-.07-.04-.07-.11.03-.21.04-.4.04-.62 0-.5-.27-1.12-.27-2.17 0-2.4 1.54-3.92 3.8-3.92 2.25 0 3.82 1.65 3.82 3.95a5 5 0 0 1-.2 1.29c-.1.39-.12.68-.07 1.13zm-3.3 15.03h-.05c-.15 1.56-.78 2.42-1.81 2.42-1.01 0-2.05-.67-2.05-3.06 0-.58.05-1.24.05-1.73l-.02-1.33c0-.07.02-.08.12-.08.1 0 .12.01.13.08.04.38.04.6.26.72.22.13.66.13 1.33.13H6.2c.96 0 1.09 0 1.3-.13.2-.12.2-.34.25-.77 0-.07.02-.09.13-.09.12 0 .14.02.14.1L8 257.5c0 .47.05 1.08.05 1.63 0 2.08-.67 2.72-1.66 2.72-.73 0-1.37-.44-1.76-1.96zm1.59-1.7H4.74l-.01.34c0 1.66.72 2.07 1.58 2.07.9 0 1.4-.58 1.4-1.59 0-.32-.01-.58-.22-.7-.21-.13-.65-.12-1.28-.12zm-1.84 0h-1.8c-.54 0-1 0-1.24.14-.26.15-.3.45-.3.87 0 1.45.95 1.81 1.72 1.81.64 0 1.63-.17 1.63-2.36l-.01-.46zm1.84 10.2H2.58c-1 0-1.14-.01-1.34.1-.2.1-.21.37-.25.78-.01.07-.03.09-.13.09s-.12-.02-.12-.1l.03-1.47-.03-1.4c0-.06.02-.08.12-.08.1 0 .12.01.13.07.04.38.04.6.25.72.23.12.66.11 1.34.11H6.2c.96 0 1.08 0 1.3-.1.2-.11.2-.36.25-.78 0-.05.02-.07.14-.07.1 0 .13.02.13.08-.01.48-.04 1.01-.04 1.45 0 .47.03.98.04 1.43 0 .07-.02.09-.14.09-.11 0-.12-.03-.13-.09-.04-.38-.05-.61-.25-.72-.23-.12-.67-.11-1.3-.11zm-3.63 7.55H6.2c.92 0 1.08-.01 1.28-.11.18-.1.18-.32.18-.57 0-.46-.11-.9-.35-1.2a3.1 3.1 0 0 0-1.07-.71c-.05-.02-.08-.04-.06-.16.02-.11.05-.11.1-.11.52.08 1.23.15 1.74.19a122.77 122.77 0 0 0 0 6.6c-.51.04-1.22.1-1.73.18-.06 0-.1 0-.11-.11-.02-.13 0-.15.06-.17.37-.14.82-.4 1.07-.7.24-.28.35-.72.35-1.22 0-.25.02-.45-.2-.6-.22-.13-.67-.12-1.26-.12H2.58c-1 0-1.11-.01-1.33.09-.2.1-.21.39-.25.77-.01.07-.03.09-.13.09-.11 0-.13-.02-.13-.1a33.88 33.88 0 0 0 0-2.82c0-.07.02-.1.12-.1.1 0 .13.03.14.1.04.35.05.58.25.69.24.12.66.09 1.33.09zm0 10.44H6.2c.92 0 1.08 0 1.28-.1.18-.1.18-.33.18-.58 0-.46-.11-.9-.35-1.19a3.1 3.1 0 0 0-1.07-.72c-.05-.02-.08-.04-.06-.16.02-.1.05-.1.1-.1.52.07 1.23.14 1.74.18a122.77 122.77 0 0 0 0 6.6c-.51.04-1.22.11-1.73.18-.06 0-.1 0-.11-.1-.02-.14 0-.16.06-.18.37-.14.82-.4 1.07-.7.24-.28.35-.72.35-1.22 0-.25.02-.45-.2-.59-.22-.14-.67-.13-1.26-.13H2.58c-1 0-1.11 0-1.33.1-.2.1-.21.38-.25.76-.01.07-.03.1-.13.1-.11 0-.13-.03-.13-.1a33.88 33.88 0 0 0 0-2.83c0-.07.02-.09.12-.09.1 0 .13.02.14.1.04.34.05.57.25.68.24.12.66.1 1.33.1zm1.8 9.91h-1.8c-.42 0-.98-.01-1.21.14-.27.16-.3.52-.3.96 0 .93.22 1.4.49 1.72.26.31.65.58 1.02.8.07.03.1.06.07.16-.04.13-.08.12-.14.11-.53-.11-1.26-.32-1.77-.52a118.67 118.67 0 0 0 0-5.36c0-.07.02-.09.12-.09.1 0 .12.02.13.09.04.38.05.55.26.66.22.12.66.13 1.33.13H6.2c.96 0 1.09-.01 1.3-.12.2-.1.2-.31.25-.73 0-.07.02-.09.13-.09.12 0 .14.02.14.09a79.25 79.25 0 0 0 0 5.22c-.51.04-1.18.11-1.7.19-.06.01-.1-.01-.12-.11-.01-.11 0-.15.07-.17.4-.15.82-.42 1.03-.68.25-.28.36-.72.36-1.5 0-.36-.02-.67-.25-.8-.21-.12-.67-.1-1.21-.1H4.75l-.01.56c0 .61.08 1.08.22 1.26.17.23.4.33.68.39.06.01.09.03.09.15 0 .11-.03.12-.1.12l-1.05-.02-1.16.02c-.08 0-.11-.01-.11-.12s.03-.13.1-.15c.25-.06.58-.17.75-.4.12-.19.24-.65.24-1.25l-.01-.56zm-.18 9.64h-1.6c-1 0-1.14 0-1.33.1-.22.14-.22.36-.26.78-.01.07-.03.08-.14.08-.1 0-.12-.01-.12-.1a34.13 34.13 0 0 0 0-2.81c0-.08.03-.1.12-.1.1 0 .13.02.14.1.04.37.05.59.26.69.22.12.66.12 1.33.12H6.2c.96 0 1.08 0 1.3-.1.2-.1.2-.4.25-.81 0-.07.03-.1.14-.1.12 0 .13.03.13.1-.02.47-.03.99-.03 1.43 0 .38.04 1.02.04 1.65 0 1.98-.82 2.73-1.87 2.73-.75 0-1.5-.51-1.8-1.67-.77.43-1.61.9-2.47 1.44-.36.22-.63.4-.75.59-.1.16-.12.32-.15.6-.01.07-.02.09-.13.09s-.13-.02-.13-.08c.02-.42.04-.74.04-1.06l-.01-.92c.25-.1.53-.22.78-.36l2.64-1.44-.01-.33c0-.2 0-.37.02-.62zm2 0H4.55c-.03.22-.04.46-.04.65 0 1.35.7 1.84 1.6 1.84 1.02 0 1.6-.51 1.6-1.66 0-.26 0-.58-.2-.72-.2-.13-.72-.11-1.3-.11zM56.82 92.98v2.16c0 1.03.08 2.48.08 3.02 0 .47-.33.67-1.01.67-.47 0-.7-.18-.7-.58l.09-4.05a13.57 13.57 0 0 1-7 4.09c-.1.02-.2-.16-.11-.2 2.4-1.15 4.5-2.99 5.92-5.11h-3.1l-.18.58c-.14.34-.41.48-.92.48-.59 0-.88-.16-.88-.45 0-.1.04-.23.1-.34.4-1 .62-1.82.8-2.6.11-.48.18-.96.22-1.47.84.36.97.42 1.76.87h3.31v-2.13h-4.14c-.34 0-.68.04-1.15.15l-.2-.7c.54.1.94.14 1.35.14h9.5c.67-.7.82-.81.96-.81.18 0 .33.1.94.63.27.23.38.36.38.5 0 .13-.06.18-.47.56v.38c0 .97.05 1.7.05 1.92 0 .49-.29.69-1 .69-.5 0-.67-.18-.67-.61v-.31h-3.93v2.1h4.61c.61-.71.76-.82.9-.82.18 0 .33.1 1.03.68.3.25.41.38.41.52 0 .13-.05.18-.54.45-.12.81-.25 1.46-.38 1.98-.21.9-.46 1.43-.84 1.7-.33.25-.81.32-1.4.32-.24 0-.3-.05-.31-.27-.13-.76-.52-1.04-1.9-1.5-.08-.03-.05-.28.04-.26.94.12 1.71.21 2.16.21.38 0 .58-.18.74-.88.1-.38.18-.94.27-1.71h-4.79zm0-2.93h3.93v-2.13h-3.93v2.13zm-1.62.41h-3.54c-.13.6-.33 1.3-.56 2.1h4.1v-2.1zm3.33-5.83h-.73a8.75 8.75 0 0 1-2.43 2.32c-.08.05-.22-.05-.17-.13.63-.86 1.16-1.83 1.53-2.79.27-.7.47-1.36.56-2 1.53.38 2.07.62 2.07.85 0 .22-.2.33-.74.42-.16.32-.34.63-.54.91h3.33c.78-.93 1-1.08 1.12-1.08.16 0 .38.15 1.19.76.38.29.52.43.52.56 0 .12-.05.18-.23.18h-4.97c1.26.29 1.83.74 1.83 1.38 0 .58-.4.98-.91.98-.49 0-.65-.22-.8-1.05-.1-.56-.3-1.04-.63-1.31zm-6.66 0h-.72a9.48 9.48 0 0 1-3.1 2.84c-.06.04-.19-.09-.14-.16.85-.94 1.59-2.16 2.07-3.35.27-.68.47-1.35.56-1.96 1.8.5 2.18.68 2.18.92 0 .2-.18.3-.74.36-.18.32-.36.65-.54.93h2.32c.7-.8.92-.95 1.05-.95.16 0 .36.14 1.06.67.3.25.45.4.45.52s-.05.18-.23.18h-3.71c1.28.36 1.76.77 1.76 1.4 0 .56-.41 1-.95 1-.47 0-.58-.17-.74-1.07-.13-.68-.25-.99-.58-1.33zm-1.81 23.45h10.96c1.04-1.3 1.26-1.44 1.38-1.44.17 0 .36.15 1.4 1 .5.39.64.55.64.68 0 .12-.06.18-.24.18H50.1c-.53 0-1.05.03-1.75.1l-.2-.66c.75.1 1.33.14 1.9.14zm11.82 20.23h-2.16l.04 2.24h2.1c.87-.98 1.08-1.12 1.21-1.12.16 0 .36.14 1.15.77.36.3.5.45.5.58 0 .13-.05.18-.23.18h-4.73l.03 3.08c0 .47-.34.68-.97.68-.48 0-.74-.14-.74-.54s.06-1.38.08-3.22h-3.03c-.43 0-.86.04-1.44.1l-.2-.66c.65.11 1.16.15 1.64.15h3.04v-2.24h-2.03v.27c0 .47-.3.65-.92.65-.5 0-.72-.16-.72-.56 0-.54.07-1.1.07-3.29 0-1.3-.01-2.6-.09-3.89.83.36.96.42 1.75.85h4.03c.45-.9.88-1.98 1.2-2.88.15-.49.28-.94.33-1.26 1.64.7 2.1.95 2.1 1.2 0 .2-.12.24-.73.3a22.63 22.63 0 0 1-2.4 2.64h1c.52-.67.66-.78.8-.78.19 0 .35.11.94.58.27.22.38.34.38.49 0 .16-.1.28-.45.55v.87c0 2.3.07 3.85.07 4.37 0 .42-.36.63-.92.63-.46 0-.7-.14-.7-.52v-.22zm-2.16-5.56v2.32h2.16v-2.32h-2.16zm-1.55 0h-2.03v2.32h2.03v-2.32zm0 5.15v-2.41h-2.03v2.41h2.03zm1.55 0h2.16v-2.41h-2.16v2.41zm-8.03-4.5h-1.27a35.14 35.14 0 0 1-.53 3.2h1.59c.61-.64.75-.75.9-.75.18 0 .32.1.9.61.25.22.36.36.36.5 0 .13-.06.18-.47.56-.1 2.32-.41 4.29-.92 5.55-.2.54-.47.9-.86 1.13-.33.2-.76.29-1.32.29-.2 0-.27-.06-.3-.38-.1-.68-.34-.86-1.73-1.35-.09-.04-.09-.23 0-.23 1.12.1 1.64.16 2.03.16.62 0 .65-.04.87-.8.34-1.15.57-2.93.63-4.87H49.8c-.05.25-.1.47-.16.65-.12.3-.34.41-.86.41-.45 0-.74-.14-.74-.36a23.73 23.73 0 0 0 .88-5.54c.76.3.87.36 1.6.8h1.17v-3.29h-2.25c-.27 0-.55.04-.91.15l-.2-.7c.47.1.8.14 1.17.14h2.07c.57-.67.72-.78.86-.78.18 0 .33.11.92.58.27.23.38.36.38.5 0 .13-.06.18-.49.62v.59c0 1.55.06 2.63.06 2.97 0 .4-.3.61-.9.61-.49 0-.7-.14-.7-.43v-.54zm8.18-2.95c0 .61-.42 1.08-.92 1.08-.49 0-.52-.07-.78-1.19-.16-.72-.5-1.4-1.04-2-.05-.07.07-.2.16-.16 1.77.6 2.58 1.3 2.58 2.27zm-3.03.2c0 .55-.38.97-.84.97-.45 0-.58-.18-.8-1.12a3.15 3.15 0 0 0-1.02-1.8c-.07-.05 0-.14.09-.12 1.76.41 2.57 1.06 2.57 2.07zm12.18 53.68h-9.9c1.3 2.14 2.8 3.6 4.63 4.86a19.8 19.8 0 0 0 6.9 2.72c.14.04.14.34 0 .38-.88.27-1.26.68-1.53 1.73-.13.48-.2.65-.44.65s-.58-.14-1.22-.45a19.48 19.48 0 0 1-5-3.7 19.72 19.72 0 0 1-3.84-5.71c.1 7.07.27 10.94.27 11.8 0 .7-.55 1.05-1.53 1.05-.78 0-1.12-.27-1.12-.82 0-.81.17-4.18.34-10.16a24.7 24.7 0 0 1-10.92 8.19c-.2.1-.47-.34-.27-.48a28.54 28.54 0 0 0 9.96-10.06h-5.71c-.71 0-1.22.07-2.04.2l-.37-1.29c.98.17 1.6.24 2.44.24h6.77v-.82c0-2.2 0-2.58-.14-3.74 3.03.38 3.47.55 3.47.99 0 .24-.13.4-1.05.85v2.72h6.05c1.43-1.67 1.7-1.84 1.9-1.84.2 0 .48.17 1.98 1.33.68.58.85.78.85.99 0 .27-.14.37-.48.37zm-14.45-14.18h-3.5c0 2.69-.99 4.63-2.55 4.6-.68 0-1.2-.52-1.2-1.3 0-.61.28-.95.96-1.46a4.5 4.5 0 0 0 2.1-4.12c0-.2.45-.23.48-.03.1.51.17.99.2 1.46h14.7c.95-1.12 1.12-1.29 1.29-1.29.2 0 .58.1 2 1.43.55.47.58.68.58.95 0 .4-.3.61-1.15.58-.41 0-.62.1-.96.44-.71.71-1.42 1.3-2.27 1.9-.14.1-.38-.1-.31-.23.58-1.13.92-1.98 1.16-2.93h-4.22V166c0 1.02.37 1.3 2.31 1.3 1.67 0 2.18-.18 2.59-.59.54-.5.81-1.32 1.22-2.85.03-.17.37-.14.37.03-.03.75-.1 1.74-.1 2.18 0 .37.1.5.51.68.41.17.61.5.61.92 0 .57-.4.98-1.25 1.25-.89.24-2.15.38-4.25.38-3.3 0-4.29-.72-4.29-2.82 0-.48.07-1.33.07-2.59v-3.74h-2.79c-.17 5.75-2.75 8.67-8.8 10.3-.24.07-.38-.4-.17-.5 4.62-2.08 6.56-4.7 6.66-9.8zm-9.42 2.48c-.58 0-.78-.2-1.32-1.39a7.04 7.04 0 0 0-2.66-3.3c-.1-.07.04-.3.17-.27 3.3.51 5.14 1.84 5.14 3.5 0 .85-.65 1.46-1.33 1.46zm-2.07 8.06c-.44 0-.75-.24-1.02-.85-.85-1.97-1.4-2.75-3-3.9-.1-.08.04-.31.18-.28 3.16.4 5.16 1.87 5.16 3.47 0 .85-.6 1.56-1.32 1.56zm-.44 16.63c-.85 0-1.33-.51-1.33-1.7 0-1.09.17-2.21.17-3.2 0-2.41-.54-2.99-2.69-3.6-.2-.07-.13-.51.07-.48.51.07.99.14 1.3.14.81 0 1.25-.24 1.7-.92 1.32-2.07 3.3-5.71 5.64-10.71.07-.17.47 0 .4.17a341.89 341.89 0 0 1-4.35 11.02c-.27.71-.37 1.39-.37 2.17 0 1.67 1.22 3.23 1.22 4.97 0 1.29-.71 2.14-1.76 2.14zm18.02 20.4l.13 5.24c.07 4.22.2 7.62.2 9.05 0 .91-.3 1.5-.78 1.97-.47.47-1.22.81-2.1.81-.65 0-.79-.13-.85-.78-.17-.92-1.16-1.43-3.44-1.94-.2-.03-.2-.47 0-.47 1.77.13 3.1.24 4.08.24.44 0 .61-.17.61-.62v-5.7a31.61 31.61 0 0 1-5.88 4.14c-.03.92-.2 1.26-.47 1.26-.31 0-.45-.3-1.57-3.03-.2.1-.37.14-.61.14-.68 0-.88-.38-.95-1.8a8.84 8.84 0 0 0-1.2-3.85c-.06-.1.18-.23.28-.17 2 1.26 3.2 2.83 3.2 4.29 0 .44-.14.85-.34 1.12.44-.1.85-.2 1.19-.3a43.38 43.38 0 0 0 6.35-2.56v-8.43h-4.9c-.84 0-1.39.04-2.3.2l-.34-1.29c1.05.17 1.73.24 2.65.24h9.28l.2-4.15h-7.48c-.85 0-1.5.04-2.41.2l-.34-1.28c1.12.17 1.87.23 2.72.23h7.58l.2-3.94h-8.43c-1.05 0-1.66.07-2.48.2l-.3-1.29c.95.2 1.56.24 2.78.24h8.16c1.06-1.16 1.23-1.26 1.47-1.26.23 0 .44.1 1.42.92.51.48.65.65.65.85 0 .3-.07.44-.92 1.02l-.44 8.26h1.16c1.19-1.6 1.46-1.77 1.7-1.77.2 0 .4.17 1.66 1.36.51.48.68.72.68.92 0 .2-.1.34-.44.34h-9.08c.41 2.31 1.06 4.63 2.14 6.7.72-.78 1.53-1.84 2.11-2.89.41-.78.75-1.53.95-2.14 2.32 1.36 2.76 1.7 2.76 2.04 0 .4-.3.54-1.33.54a30.17 30.17 0 0 1-4.18 3.06c.37.61.75 1.16 1.19 1.67a16 16 0 0 0 5.98 4.38c.14.07.07.28-.06.34-.82.38-1.16.72-1.53 1.74-.2.54-.28.61-.51.61-.17 0-.48-.17-1.02-.58a19.99 19.99 0 0 1-4.12-5.17c-1.15-2.17-2-4.9-2.68-8.9zm-15.98 9.42v-7.44c-.99.2-2.15.4-3.64.68-.27.75-.44.95-.72.95-.34 0-.54-.44-1.05-3.16.75.07 1.05.07 1.53.07.75 0 1.4 0 2-.04 1.4-1.8 2.73-4.01 3.88-6.36.61-1.36 1.16-2.51 1.4-3.5 2.38 1.16 3.06 1.57 3.06 1.94 0 .27-.24.54-1.3.51a40.4 40.4 0 0 1-6.12 7.41c1.8-.07 3.6-.2 5.41-.34-.27-.92-.68-1.8-1.22-2.65-.07-.1.17-.24.27-.17 2.14 1.26 3.4 2.96 3.4 4.32 0 .81-.48 1.46-1.16 1.46-.64 0-.78-.27-1.02-1.67l-.1-.6c-.82.26-1.63.47-2.45.67v6.6c0 3.74.14 7.17.14 8.2 0 .7-.51 1.01-1.43 1.01-.75 0-1.05-.2-1.05-.85 0-.61.17-2.82.17-7.04zm-1.6-16.69c1.09.78 1.63 1.63 1.63 2.55 0 .88-.48 1.5-1.19 1.5-.58 0-.71-.17-1.16-1.43a8.6 8.6 0 0 0-2.44-3.74c-.14-.1.06-.38.23-.3.92.3 1.7.67 2.35 1.05a21.58 21.58 0 0 0 2.21-6.5c2.65.99 3.3 1.3 3.3 1.7 0 .3-.3.51-1.3.55-1.66 2.41-2.3 3.33-3.63 4.62zm12.17 13.16c-.61 0-.88-.3-1.12-1.36a8.39 8.39 0 0 0-1.6-3.74c-.1-.1.1-.3.24-.24 2.34.95 3.7 2.55 3.7 3.77 0 .96-.5 1.57-1.22 1.57zm-16.05 8.84c-.13.17-.5-.04-.44-.24.71-1.7 1.36-3.94 1.87-6.19.24-1.29.37-2.51.37-3.5 2.62.78 3.13.99 3.13 1.4 0 .27-.27.47-1.02.64-.98 3.1-2.07 5.68-3.9 7.89z" fill="#FFF"/></svg>