<svg viewBox="0 0 71 298" xmlns="http://www.w3.org/2000/svg"><path d="M65.54 6.19l3.21 1.22c.42.16.81.29 1.3.43v1.09c0 .37 0 .82.02 1.19 0 .07-.02.09-.13.09-.1 0-.13-.02-.14-.1-.04-.42-.04-.6-.25-.7-.25-.15-.67-.16-1.3-.15l-3.63.06c-1 .02-1.12.05-1.33.15-.2.1-.22.33-.26.75 0 .07-.03.09-.13.09s-.12-.02-.12-.1a37.78 37.78 0 0 0 0-2.9c0-.06.02-.08.13-.08.1 0 .11.02.12.08.04.39.04.59.26.7.22.13.66.13 1.33.12L69 8.09v-.1l-3.58-1.45L62.9 5.5c-.08-.03-.1-.06-.1-.2 0-.15.02-.16.1-.2.8-.3 1.44-.57 2.33-.95L69 2.55v-.11l-4.38-.02c-.6 0-1.07.06-1.28.19-.2.13-.27.48-.3.74-.02.09-.04.1-.13.1-.1 0-.13-.02-.13-.11a20.96 20.96 0 0 0 0-2.31c0-.07.02-.1.12-.1.1 0 .12.03.13.1.04.24.1.53.31.67.23.14.65.22 1.28.24l3.63.1c.66.02 1.07.02 1.3-.13.21-.14.21-.45.25-.8.01-.06.02-.1.14-.1.11 0 .13.04.13.09l-.03 1.15.01 1.18c-.4.12-.77.25-1.15.4l-3.34 1.4c-.5.22-.7.3-1.22.5.48.2.65.25 1.2.46zm-1.19 12.4l1.18-.42c.02-.33.04-.76.04-1.14 0-.42-.02-.82-.04-1.24l-1.05-.38c-.59-.22-.89-.2-1.12-.1-.2.08-.28.41-.32.77 0 .06-.02.1-.13.1-.1 0-.13-.04-.13-.12.02-.37.02-.88.02-1.25 0-.35 0-.72-.02-1.05 0-.09.02-.1.13-.1s.13.01.13.1c.04.27.17.44.31.6.2.2.57.38 1.17.6l3.24 1.2c1.26.47 1.57.56 2.1.72l.36.8c0 .06-.02.1-.09.12-.62.2-1.12.38-2.43.83l-3.26 1.13c-.59.2-.94.34-1.14.5-.2.17-.23.27-.26.65 0 .11-.02.13-.13.13-.1 0-.13-.02-.13-.13a67.24 67.24 0 0 0 0-2.83c0-.07.02-.08.13-.08s.13.02.13.08c.02.38.06.63.26.7.22.06.5 0 1.05-.19zm1.58-.56l1.75-.6c.66-.23.95-.3 1.31-.42l-1.29-.45-1.77-.64c-.02.33-.02.73-.02 1.11 0 .32 0 .71.02 1zm-1.3 8.49h3.62c.92 0 1.08-.01 1.28-.11.18-.1.18-.32.18-.57 0-.46-.1-.9-.35-1.19a3.1 3.1 0 0 0-1.07-.72c-.05-.02-.08-.04-.06-.16.02-.11.05-.11.11-.11.51.08 1.22.15 1.73.19a122.77 122.77 0 0 0 0 6.6c-.5.04-1.22.11-1.73.18-.06 0-.09 0-.1-.11-.03-.13 0-.15.05-.17.37-.14.82-.4 1.07-.7.24-.28.35-.72.35-1.22 0-.25.02-.45-.2-.59-.22-.14-.67-.13-1.26-.13h-3.63c-1 0-1.1-.01-1.33.09-.2.1-.2.39-.25.77 0 .07-.03.09-.13.09s-.13-.02-.13-.1a33.88 33.88 0 0 0 0-2.82c0-.07.02-.09.12-.09.11 0 .13.02.14.09.04.35.05.58.25.69.24.12.66.09 1.33.09zm5.33 14.05c-.52.04-1.2.1-1.73.17-.08 0-.12-.02-.14-.1-.02-.1 0-.12.08-.16.52-.27.94-.54 1.25-.9.32-.38.47-.84.47-1.28 0-1.45-1.36-2.57-3.44-2.57-1.84 0-3.24 1.13-3.24 2.62a2.7 2.7 0 0 0 1.4 2.46c.04.03.06.07 0 .2-.04.09-.1.1-.18.07-1.05-.58-1.8-1.45-1.8-2.94 0-2.2 1.55-3.8 3.8-3.8 2.21 0 3.8 1.62 3.8 3.84 0 .49-.07.9-.16 1.27-.1.4-.17.69-.1 1.12zm-3.58 6.24h-1.76c-1 0-1.16-.02-1.35.08-.2.12-.2.38-.25.8 0 .07-.02.1-.12.1-.1 0-.12-.03-.12-.1l.03-1.48c0-.43 0-.96-.03-1.4 0-.07.01-.08.11-.08s.12.01.13.07c.04.41.04.6.25.71.23.14.67.13 1.35.13h3.63c.96 0 1.1 0 1.31-.13.2-.09.2-.32.24-.74.01-.06.02-.08.13-.08.12 0 .14.02.14.08 0 .46-.04 1-.04 1.44 0 .46.03.97.04 1.4 0 .1-.02.12-.14.12-.1 0-.12-.03-.13-.1-.04-.38-.04-.6-.24-.72-.23-.1-.68-.1-1.3-.1h-1.43c-.03.64-.03 1.2-.03 1.8 0 .57 0 1.1.03 1.73h1.42c.96 0 1.1 0 1.31-.1.2-.1.2-.35.24-.77.01-.07.02-.08.13-.08.12 0 .14.02.14.1 0 .46-.04 1-.04 1.46 0 .43.03.94.04 1.38 0 .1-.02.12-.13.12-.12 0-.13-.02-.14-.1-.04-.4-.04-.59-.24-.7-.23-.14-.7-.14-1.3-.14h-3.64c-1 0-1.14.01-1.35.13-.2.12-.2.35-.25.78 0 .06-.03.07-.13.07s-.1-.02-.1-.09l.02-1.45-.03-1.42c0-.08.01-.09.11-.09s.12.02.13.1c.04.4.04.57.25.68.23.12.67.12 1.35.12h1.76c.04-.63.04-1.16.04-1.74 0-.59 0-1.15-.04-1.79zm-2.03 14.01l1.18-.42c.02-.33.04-.76.04-1.14 0-.42-.02-.82-.04-1.24l-1.05-.38c-.59-.22-.89-.2-1.12-.1-.2.08-.28.41-.32.77 0 .06-.02.1-.13.1-.1 0-.13-.04-.13-.12.02-.37.02-.88.02-1.25 0-.35 0-.72-.02-1.05 0-.09.02-.1.13-.1s.13.01.13.1c.04.27.17.44.31.6.2.2.57.38 1.17.6l3.24 1.2c1.26.47 1.57.56 2.1.72l.36.8c0 .06-.02.1-.09.12-.62.2-1.12.38-2.43.83L64.44 62c-.59.2-.94.34-1.14.5-.2.17-.23.27-.26.65 0 .11-.02.13-.13.13-.1 0-.13-.02-.13-.13a67.24 67.24 0 0 0 0-2.83c0-.07.02-.08.13-.08s.13.02.13.08c.02.38.06.63.26.7.22.06.5 0 1.05-.19zm1.58-.56l1.75-.6c.66-.23.95-.3 1.31-.42l-1.29-.45-1.77-.64c-.02.33-.02.73-.02 1.11 0 .32 0 .71.02 1zm4.03 19.1c-.52.03-1.2.1-1.73.16-.08.01-.12-.02-.14-.1-.02-.1 0-.12.08-.16.52-.27.94-.54 1.25-.9.32-.38.47-.84.47-1.28 0-1.45-1.36-2.57-3.44-2.57-1.84 0-3.24 1.13-3.24 2.62a2.7 2.7 0 0 0 1.4 2.46c.04.03.06.07 0 .2-.04.1-.1.11-.18.07-1.05-.58-1.8-1.45-1.8-2.94 0-2.2 1.55-3.79 3.8-3.79 2.21 0 3.8 1.61 3.8 3.83 0 .5-.07.9-.16 1.27-.1.4-.17.7-.1 1.12zm-3.58 6.24h-1.76c-1 0-1.16-.02-1.35.08-.2.12-.2.38-.25.8 0 .07-.02.1-.12.1-.1 0-.12-.03-.12-.1l.03-1.48c0-.43 0-.96-.03-1.4 0-.07.01-.08.11-.08s.12.01.13.07c.04.41.04.6.25.71.23.14.67.13 1.35.13h3.63c.96 0 1.1 0 1.31-.13.2-.09.2-.32.24-.74.01-.06.02-.08.13-.08.12 0 .14.02.14.08 0 .46-.04 1-.04 1.44 0 .46.03.97.04 1.4 0 .1-.02.12-.14.12-.1 0-.12-.03-.13-.1-.04-.38-.04-.6-.24-.72-.23-.1-.68-.1-1.3-.1h-1.43c-.03.64-.03 1.2-.03 1.8 0 .57 0 1.1.03 1.73h1.42c.96 0 1.1 0 1.31-.1.2-.1.2-.35.24-.77.01-.07.02-.08.13-.08.12 0 .14.02.14.1 0 .46-.04 1-.04 1.46 0 .43.03.94.04 1.38 0 .1-.02.12-.13.12-.12 0-.13-.02-.14-.1-.04-.4-.04-.59-.24-.7-.23-.14-.7-.14-1.3-.14h-3.64c-1 0-1.14.01-1.35.13-.2.12-.2.35-.25.78 0 .06-.03.07-.13.07s-.1-.02-.1-.09l.02-1.45-.03-1.42c0-.08.01-.09.11-.09s.12.02.13.1c.04.4.04.57.25.68.23.12.67.12 1.35.12h1.76a26 26 0 0 0 .04-1.74c0-.59 0-1.15-.04-1.79zm.05 11.74h-1.8c-.43 0-.99-.01-1.22.14-.27.16-.29.52-.29.96 0 .93.21 1.4.48 1.72.26.3.65.58 1.02.8.07.03.1.06.07.16-.04.13-.08.12-.14.1-.53-.1-1.26-.31-1.77-.51a118.67 118.67 0 0 0 0-5.36c0-.07.02-.1.12-.1.1 0 .12.03.13.1.04.38.05.55.26.66.22.12.66.13 1.33.13h3.63c.96 0 1.1-.01 1.31-.12.2-.1.2-.31.24-.73.01-.07.02-.1.13-.1.12 0 .14.03.14.1a79.25 79.25 0 0 0 0 5.22c-.5.04-1.18.1-1.7.19-.06 0-.1-.01-.12-.11 0-.11.01-.15.07-.17.4-.15.82-.42 1.03-.68.25-.28.36-.72.36-1.5 0-.36-.02-.67-.25-.8-.2-.12-.67-.1-1.2-.1h-1.47v.56c0 .6.07 1.08.21 1.26.17.23.41.33.68.39.06 0 .1.03.1.15 0 .1-.04.12-.1.12l-1.06-.02c-.37 0-.8 0-1.16.02-.08 0-.1-.01-.1-.12s.02-.13.1-.15c.24-.06.57-.17.74-.4.12-.2.24-.65.24-1.25v-.56zm0 9.66h-1.8c-.43 0-.99-.01-1.22.14-.27.16-.29.52-.29.96 0 .93.21 1.4.48 1.72.26.3.65.58 1.02.8.07.03.1.06.07.16-.04.13-.08.12-.14.1-.53-.1-1.26-.31-1.77-.51a118.67 118.67 0 0 0 0-5.36c0-.07.02-.1.12-.1.1 0 .12.03.13.1.04.38.05.55.26.66.22.12.66.13 1.33.13h3.63c.96 0 1.1-.01 1.31-.12.2-.1.2-.31.24-.73.01-.07.02-.1.13-.1.12 0 .14.03.14.1a79.25 79.25 0 0 0 0 5.22c-.5.04-1.18.1-1.7.19-.06 0-.1-.01-.12-.11 0-.11.01-.15.07-.17.4-.15.82-.42 1.03-.68.25-.28.36-.72.36-1.5 0-.36-.02-.67-.25-.8-.2-.12-.67-.1-1.2-.1h-1.47v.56c0 .6.07 1.08.21 1.26.17.23.41.33.68.39.06 0 .1.03.1.15 0 .1-.04.12-.1.12l-1.06-.02c-.37 0-.8 0-1.16.02-.08 0-.1-.01-.1-.12s.02-.13.1-.15c.24-.06.57-.17.74-.4.12-.2.24-.65.24-1.25V107zm-.38 9.9l.26-.5c.6-1.19 1.1-1.59 2.12-1.59s1.8.9 1.8 2.24c0 .44-.07.73-.14 1.01-.08.31-.08.66-.03 1-.5 0-1.16.06-1.69.1-.05 0-.08 0-.1-.1-.02-.1.01-.13.06-.15.92-.39 1.58-1 1.58-1.8 0-.69-.49-1.2-1.26-1.2-.45 0-.87.26-1.28 1.1l-.26.54c-.69 1.42-1.14 1.92-2.33 1.92-1.35 0-2.16-.99-2.16-2.67 0-.7.15-1.36.35-1.92a14.7 14.7 0 0 1 1.67-.35c.07 0 .14 0 .16.11.02.11 0 .15-.06.17-1 .45-1.8 1.23-1.8 2.1 0 .85.6 1.45 1.44 1.45.76 0 1.15-.45 1.67-1.46zm.38 8.73h-1.8c-.43 0-.99-.01-1.22.14-.27.16-.29.52-.29.96 0 .93.21 1.4.48 1.72.26.3.65.58 1.02.8.07.03.1.06.07.16-.04.13-.08.12-.14.1-.53-.1-1.26-.31-1.77-.51a118.67 118.67 0 0 0 0-5.36c0-.07.02-.1.12-.1.1 0 .12.03.13.1.04.38.05.55.26.66.22.12.66.13 1.33.13h3.63c.96 0 1.1-.01 1.31-.12.2-.1.2-.31.24-.73.01-.07.02-.1.13-.1.12 0 .14.03.14.1a79.25 79.25 0 0 0 0 5.22c-.5.04-1.18.1-1.7.19-.06 0-.1-.01-.12-.11 0-.11.01-.15.07-.17.4-.15.82-.42 1.03-.68.25-.28.36-.72.36-1.5 0-.36-.02-.67-.25-.8-.2-.12-.67-.1-1.2-.1h-1.47v.56c0 .6.07 1.08.21 1.26.17.23.41.33.68.39.06 0 .1.03.1.15 0 .1-.04.12-.1.12l-1.06-.02c-.37 0-.8 0-1.16.02-.08 0-.1-.01-.1-.12s.02-.13.1-.15c.24-.06.57-.17.74-.4.12-.2.24-.65.24-1.25v-.56zm-1.8 16.6h3.62c.92 0 1.08 0 1.28-.1.18-.1.18-.33.18-.58 0-.46-.1-.9-.35-1.19a3.1 3.1 0 0 0-1.07-.72c-.05-.02-.08-.04-.06-.16.02-.1.05-.1.11-.1.51.07 1.22.14 1.73.18a122.77 122.77 0 0 0 0 6.6c-.5.04-1.22.11-1.73.18-.06 0-.09 0-.1-.1-.03-.14 0-.16.05-.18.37-.14.82-.4 1.07-.7.24-.28.35-.72.35-1.22 0-.25.02-.45-.2-.59-.22-.14-.67-.13-1.26-.13h-3.63c-1 0-1.1 0-1.33.1-.2.1-.2.38-.25.76 0 .07-.03.1-.13.1s-.13-.03-.13-.1a33.88 33.88 0 0 0 0-2.83c0-.07.02-.09.12-.09.11 0 .13.02.14.1.04.34.05.57.25.68.24.12.66.1 1.33.1zm-.28 11.63l1.18-.42c.02-.33.04-.76.04-1.14 0-.42-.02-.82-.04-1.24l-1.05-.38c-.59-.22-.89-.2-1.12-.11-.2.09-.28.42-.32.78 0 .06-.02.09-.13.09-.1 0-.13-.03-.13-.11.02-.37.02-.88.02-1.25 0-.35 0-.72-.02-1.05 0-.09.02-.11.13-.11s.13.02.13.11c.04.27.17.44.31.59.2.2.57.39 1.17.61l3.24 1.2c1.26.47 1.57.56 2.1.72l.36.79c0 .07-.02.11-.09.13-.62.2-1.12.38-2.43.83l-3.26 1.13c-.59.2-.94.34-1.14.5-.2.17-.23.27-.26.65 0 .11-.02.13-.13.13-.1 0-.13-.02-.13-.13a67.24 67.24 0 0 0 0-2.83c0-.07.02-.08.13-.08s.13.02.13.08c.02.38.06.63.26.69.22.07.5.01 1.05-.18zm1.58-.56l1.75-.6c.66-.23.95-.31 1.31-.42l-1.29-.45-1.77-.64c-.02.33-.02.73-.02 1.11 0 .32 0 .71.02 1zm.31 8.53h-1.6c-1 0-1.15 0-1.34.1-.22.14-.22.36-.26.78 0 .07-.03.08-.14.08-.09 0-.12-.01-.12-.1a34.13 34.13 0 0 0 0-2.81c0-.08.03-.1.12-.1.11 0 .13.02.14.1.04.37.05.59.26.69.22.12.66.12 1.33.12h3.62c.96 0 1.08 0 1.3-.1.2-.1.21-.4.25-.81.01-.07.03-.1.14-.1.12 0 .13.03.13.1-.02.47-.03.99-.03 1.43 0 .38.04 1.02.04 1.65 0 1.98-.82 2.73-1.87 2.73-.75 0-1.49-.51-1.79-1.67-.78.43-1.62.9-2.48 1.44-.36.22-.63.4-.75.59-.1.16-.12.32-.15.6 0 .07-.02.09-.13.09-.1 0-.13-.02-.13-.08.02-.42.04-.74.04-1.06v-.92c.24-.1.52-.22.77-.36l2.64-1.44v-.33l.01-.62zm2.01 0h-1.67c-.03.22-.04.46-.04.65 0 1.35.71 1.84 1.61 1.84 1.01 0 1.6-.51 1.6-1.66 0-.26 0-.58-.2-.72-.2-.13-.73-.11-1.3-.11zm-3.63 10.74h3.63c.92 0 1.08 0 1.28-.1.18-.1.18-.33.18-.58 0-.46-.1-.9-.35-1.19a3.1 3.1 0 0 0-1.07-.72c-.05-.02-.08-.04-.06-.16.02-.1.05-.1.11-.1.51.07 1.22.14 1.73.18a122.77 122.77 0 0 0 0 6.6c-.5.04-1.22.11-1.73.18-.06 0-.09 0-.1-.1-.03-.14 0-.16.05-.18.37-.14.82-.4 1.07-.7.24-.28.35-.72.35-1.22 0-.25.02-.45-.2-.59-.22-.14-.67-.13-1.26-.13h-3.63c-1 0-1.1 0-1.33.1-.2.1-.2.38-.25.76 0 .07-.03.1-.13.1s-.13-.03-.13-.1a33.88 33.88 0 0 0 0-2.83c0-.07.02-.09.12-.09.11 0 .13.02.14.1.04.34.05.57.25.68.24.12.66.1 1.33.1zm3.63 16.36h-3.63c-.42 0-.98-.01-1.2.13-.28.17-.3.53-.3.96 0 .94.28 1.4.51 1.7.24.3.64.58 1 .79.07.04.1.06.06.17-.04.1-.08.1-.14.1-.53-.11-1.26-.33-1.77-.52a120.25 120.25 0 0 0 0-5.36c0-.07.02-.1.12-.1.1 0 .12.03.13.1.04.38.05.57.26.69.22.13.66.13 1.33.13h3.63c.96 0 1.1-.01 1.31-.12.2-.1.2-.32.24-.72.01-.08.02-.1.13-.1.12 0 .14.02.14.1 0 .43-.04.96-.04 1.42 0 .46.03.99.04 1.42 0 .08-.02.1-.14.1-.1 0-.12-.02-.13-.08-.04-.38-.04-.6-.24-.7-.23-.12-.68-.11-1.3-.11zm0 9.52h-3.63c-1 0-1.14 0-1.34.1-.2.1-.2.37-.25.78 0 .07-.03.1-.13.1s-.12-.03-.12-.1l.03-1.48-.03-1.4c0-.06.02-.08.12-.08.1 0 .12.01.13.07.04.38.04.6.25.72.23.12.66.11 1.34.11h3.63c.96 0 1.08 0 1.3-.1.2-.1.21-.36.25-.78 0-.05.02-.07.14-.07.11 0 .13.02.13.08 0 .48-.04 1.01-.04 1.45 0 .47.03.98.04 1.43 0 .07-.02.1-.14.1-.1 0-.12-.04-.13-.1-.04-.38-.05-.6-.25-.72-.23-.12-.67-.1-1.3-.1zm1.71 11.3c-.52.01-1.2.08-1.72.15-.08.01-.1 0-.14-.09-.03-.1 0-.13.08-.17.54-.27.91-.5 1.21-.88.31-.36.5-.88.5-1.44 0-1.46-1.47-2.6-3.45-2.6-2.02 0-3.47 1.11-3.47 2.74 0 .6.2 1.06.6 1.53.2.03.4.05.68.05 1.01 0 1.12.01 1.35-.1.2-.1.21-.35.25-.77.01-.07.02-.09.13-.09s.12.02.12.1c-.02.45-.04.95-.04 1.4 0 .45.02.82.04 1.28 0 .07 0 .08-.12.08-.1 0-.12 0-.13-.08-.04-.37-.04-.5-.25-.62-.24-.1-.67-.1-1.2-.1-.69 0-1.09 0-1.49.05-.04 0-.07-.04-.07-.1.03-.22.04-.4.04-.63 0-.5-.27-1.12-.27-2.17 0-2.39 1.54-3.92 3.81-3.92 2.24 0 3.81 1.65 3.81 3.95a5 5 0 0 1-.19 1.3c-.1.38-.13.67-.08 1.12zm-3.58 6.9h-1.76c-1 0-1.16-.02-1.35.08-.2.12-.2.38-.25.8 0 .07-.02.09-.12.09-.1 0-.12-.02-.12-.1l.03-1.47c0-.43 0-.96-.03-1.41 0-.06.01-.07.11-.07s.12 0 .13.07c.04.4.04.6.25.7.23.15.67.14 1.35.14h3.63c.96 0 1.1-.01 1.31-.13.2-.1.2-.32.24-.74.01-.06.02-.08.13-.08.12 0 .14.02.14.08 0 .46-.04 1-.04 1.44 0 .46.03.97.04 1.4 0 .09-.02.12-.14.12-.1 0-.12-.03-.13-.1-.04-.38-.04-.6-.24-.72-.23-.11-.68-.1-1.3-.1h-1.43c-.03.64-.03 1.2-.03 1.79 0 .58 0 1.1.03 1.74h1.42c.96 0 1.1 0 1.31-.1.2-.1.2-.35.24-.77.01-.07.02-.08.13-.08.12 0 .14.02.14.09 0 .47-.04 1-.04 1.47 0 .43.03.94.04 1.38 0 .1-.02.12-.13.12-.12 0-.13-.02-.14-.11-.04-.4-.04-.58-.24-.7-.23-.13-.7-.13-1.3-.13h-3.64c-1 0-1.14 0-1.35.13-.2.12-.2.35-.25.78 0 .06-.03.07-.13.07s-.1-.02-.1-.1l.02-1.44-.03-1.42c0-.08.01-.1.11-.1s.12.03.13.1c.04.4.04.58.25.69.23.12.67.12 1.35.12h1.76c.04-.63.04-1.16.04-1.74 0-.6 0-1.15-.04-1.8zm-1.76 12.28h3.63c.92 0 1.08-.01 1.28-.11.18-.1.18-.32.18-.57 0-.46-.1-.9-.35-1.2a3.1 3.1 0 0 0-1.07-.71c-.05-.02-.08-.04-.06-.16.02-.11.05-.11.11-.11.51.08 1.22.15 1.73.19a122.77 122.77 0 0 0 0 6.6c-.5.04-1.22.1-1.73.18-.06 0-.09 0-.1-.11-.03-.13 0-.15.05-.17.37-.14.82-.4 1.07-.7.24-.28.35-.72.35-1.22 0-.25.02-.45-.2-.6-.22-.13-.67-.12-1.26-.12h-3.63c-1 0-1.1-.01-1.33.09-.2.1-.2.39-.25.77 0 .07-.03.09-.13.09s-.13-.02-.13-.1a33.88 33.88 0 0 0 0-2.82c0-.07.02-.1.12-.1.11 0 .13.03.14.1.04.35.05.58.25.69.24.12.66.09 1.33.09zm2.05 18h-.06c-.15 1.56-.78 2.42-1.8 2.42s-2.06-.67-2.06-3.06c0-.58.05-1.24.05-1.73 0-.43 0-.91-.02-1.33 0-.07.02-.08.12-.08.1 0 .12 0 .13.08.04.38.04.59.26.72s.66.13 1.33.13h3.63c.96 0 1.1 0 1.31-.13.2-.12.2-.34.24-.77.01-.07.02-.1.13-.1.12 0 .14.03.14.1-.02.46-.03.9-.03 1.36 0 .47.05 1.08.05 1.63 0 2.08-.67 2.72-1.66 2.72-.73 0-1.37-.44-1.76-1.96zm1.58-1.7h-1.47v.34c0 1.66.71 2.07 1.57 2.07.91 0 1.4-.58 1.4-1.6 0-.31 0-.57-.22-.7-.2-.12-.65-.11-1.28-.11zm-1.84 0h-1.79c-.55 0-1-.01-1.25.14-.26.15-.29.45-.29.87 0 1.45.94 1.8 1.71 1.8.64 0 1.63-.16 1.63-2.35v-.46zm1.84 10.2h-3.63c-1 0-1.14-.01-1.34.1-.2.1-.2.37-.25.78 0 .07-.03.09-.13.09s-.12-.02-.12-.1l.03-1.47-.03-1.4c0-.06.02-.08.12-.08.1 0 .12 0 .13.07.04.38.04.6.25.72.23.12.66.1 1.34.1h3.63c.96 0 1.08 0 1.3-.1.2-.1.21-.35.25-.77 0-.05.02-.07.14-.07.11 0 .13.02.13.08 0 .48-.04 1-.04 1.45 0 .47.03.98.04 1.43 0 .07-.02.09-.14.09-.1 0-.12-.03-.13-.1-.04-.37-.05-.6-.25-.71-.23-.12-.67-.11-1.3-.11zm-3.63 7.54h3.63c.92 0 1.08 0 1.28-.1.18-.1.18-.33.18-.58 0-.46-.1-.9-.35-1.19a3.1 3.1 0 0 0-1.07-.72c-.05-.02-.08-.04-.06-.16.02-.1.05-.1.11-.1.51.07 1.22.14 1.73.18a122.77 122.77 0 0 0 0 6.6c-.5.04-1.22.11-1.73.18-.06 0-.09 0-.1-.1-.03-.14 0-.16.05-.18.37-.14.82-.4 1.07-.7.24-.28.35-.72.35-1.22 0-.25.02-.45-.2-.59-.22-.14-.67-.13-1.26-.13h-3.63c-1 0-1.1 0-1.33.1-.2.1-.2.38-.25.76 0 .07-.03.1-.13.1s-.13-.03-.13-.1a33.88 33.88 0 0 0 0-2.83c0-.07.02-.09.12-.09.11 0 .13.02.14.1.04.34.05.57.25.68.24.12.66.1 1.33.1zm0 10.45h3.63c.92 0 1.08-.01 1.28-.11.18-.1.18-.32.18-.57 0-.46-.1-.9-.35-1.19a3.1 3.1 0 0 0-1.07-.72c-.05-.02-.08-.04-.06-.16.02-.11.05-.11.11-.11.51.08 1.22.15 1.73.19a122.77 122.77 0 0 0 0 6.6c-.5.04-1.22.11-1.73.18-.06 0-.09 0-.1-.11-.03-.13 0-.15.05-.17.37-.14.82-.4 1.07-.7.24-.28.35-.72.35-1.22 0-.25.02-.45-.2-.59-.22-.14-.67-.13-1.26-.13h-3.63c-1 0-1.1-.01-1.33.09-.2.1-.2.39-.25.77 0 .07-.03.09-.13.09s-.13-.02-.13-.1a33.88 33.88 0 0 0 0-2.82c0-.07.02-.09.12-.09.11 0 .13.02.14.09.04.35.05.58.25.69.24.12.66.09 1.33.09zm1.81 9.9h-1.8c-.43 0-.99 0-1.22.15-.27.16-.29.52-.29.96 0 .93.21 1.4.48 1.72.26.3.65.58 1.02.8.07.03.1.06.07.16-.04.13-.08.12-.14.1-.53-.1-1.26-.31-1.77-.51a118.67 118.67 0 0 0 0-5.36c0-.07.02-.1.12-.1.1 0 .12.03.13.1.04.38.05.55.26.66.22.12.66.13 1.33.13h3.63c.96 0 1.1-.01 1.31-.12.2-.1.2-.31.24-.73.01-.07.02-.1.13-.1.12 0 .14.03.14.1a79.25 79.25 0 0 0 0 5.22c-.5.04-1.18.1-1.7.19-.06 0-.1-.01-.12-.11 0-.11.01-.15.07-.17.4-.15.82-.42 1.03-.68.25-.28.36-.72.36-1.5 0-.36-.02-.67-.25-.8-.2-.12-.67-.1-1.2-.1h-1.47v.56c0 .6.07 1.08.21 1.26.17.23.41.33.68.39.06 0 .1.03.1.15 0 .1-.04.12-.1.12l-1.06-.02c-.37 0-.8 0-1.16.02-.08 0-.1-.01-.1-.12s.02-.13.1-.15c.24-.06.57-.17.74-.4.12-.2.24-.65.24-1.25v-.56zm-.19 9.64h-1.6c-1 0-1.15.01-1.34.11-.22.13-.22.35-.26.77 0 .07-.03.08-.14.08-.09 0-.12 0-.12-.1a34.13 34.13 0 0 0 0-2.8c0-.09.03-.1.12-.1.11 0 .13.01.14.1.04.36.05.58.26.68.22.12.66.12 1.33.12h3.62c.96 0 1.08 0 1.3-.1.2-.1.21-.4.25-.8.01-.08.03-.1.14-.1.12 0 .13.02.13.1-.02.46-.03.98-.03 1.42 0 .38.04 1.02.04 1.65 0 1.98-.82 2.73-1.87 2.73-.75 0-1.49-.5-1.79-1.67-.78.43-1.62.91-2.48 1.44-.36.22-.63.4-.75.6-.1.15-.12.31-.15.6 0 .06-.02.08-.13.08-.1 0-.13-.02-.13-.08.02-.42.04-.74.04-1.06v-.92c.24-.09.52-.22.77-.36l2.64-1.44v-.33l.01-.62zm2.01 0h-1.67c-.03.22-.04.46-.04.65 0 1.35.71 1.84 1.61 1.84 1.01 0 1.6-.5 1.6-1.66 0-.26 0-.58-.2-.72-.2-.13-.73-.1-1.3-.1zM17.87 92.98v2.16c0 1.03.07 2.48.07 3.02 0 .47-.32.67-1 .67-.47 0-.7-.18-.7-.58l.08-4.05a13.57 13.57 0 0 1-7 4.09c-.09.02-.2-.16-.1-.2 2.39-1.15 4.5-2.99 5.92-5.11h-3.1c-.05.18-.13.38-.18.58-.14.34-.41.48-.92.48-.6 0-.88-.16-.88-.45 0-.1.04-.23.09-.34.41-1 .63-1.82.8-2.6.12-.48.19-.96.23-1.47.84.36.97.42 1.76.87h3.31v-2.13h-4.14c-.34 0-.68.04-1.15.15l-.2-.7c.54.1.94.14 1.35.14h9.49c.68-.7.83-.81.97-.81.18 0 .32.1.94.63.27.23.37.36.37.5 0 .13-.05.18-.46.56v.38c0 .97.05 1.7.05 1.92 0 .49-.29.69-1 .69-.5 0-.67-.18-.67-.61v-.31h-3.93v2.1h4.6c.62-.71.77-.82.9-.82.19 0 .33.1 1.04.68.3.25.4.38.4.52 0 .13-.04.18-.53.45-.13.81-.25 1.46-.38 1.98-.21.9-.47 1.43-.84 1.7-.33.25-.81.32-1.4.32-.24 0-.3-.05-.31-.27-.13-.76-.53-1.04-1.9-1.5-.08-.03-.05-.28.04-.26.94.12 1.71.21 2.16.21.38 0 .58-.18.74-.88.09-.38.18-.94.27-1.71h-4.79zm0-2.93h3.93v-2.13h-3.93v2.13zm-1.62.41h-3.54c-.13.6-.33 1.3-.56 2.1h4.1v-2.1zm3.33-5.83h-.74a8.75 8.75 0 0 1-2.43 2.32c-.07.05-.21-.05-.16-.13.63-.86 1.15-1.83 1.53-2.79.27-.7.47-1.36.56-2 1.53.38 2.07.62 2.07.85 0 .22-.2.33-.74.42-.16.32-.34.63-.54.91h3.33c.78-.93 1-1.08 1.12-1.08.16 0 .38.15 1.19.76.37.29.52.43.52.56 0 .12-.06.18-.24.18H20.1c1.26.29 1.83.74 1.83 1.38 0 .58-.4.98-.92.98-.48 0-.64-.22-.79-1.05-.1-.56-.3-1.04-.63-1.31zm-6.66 0h-.72a9.48 9.48 0 0 1-3.1 2.84c-.07.04-.2-.09-.14-.16.85-.94 1.59-2.16 2.07-3.35.27-.68.47-1.35.56-1.96 1.8.5 2.18.68 2.18.92 0 .2-.18.3-.74.36-.18.32-.36.65-.54.93h2.32c.7-.8.92-.95 1.05-.95.16 0 .36.14 1.06.67.3.25.45.4.45.52s-.06.18-.24.18h-3.7c1.27.36 1.76.77 1.76 1.4 0 .56-.41 1-.95 1-.47 0-.58-.17-.74-1.07-.13-.68-.25-.99-.58-1.33zm.1 18.7h7.23c.93-1.19 1.15-1.33 1.28-1.33.16 0 .36.14 1.3.92.42.36.57.52.57.64 0 .13-.06.18-.24.18h-10.1c-.46 0-.93.04-1.54.11l-.2-.66c.68.1 1.19.14 1.7.14zm-1.93 10.1h11.05c1.04-1.26 1.26-1.4 1.38-1.4.17 0 .36.14 1.37.97.45.37.6.54.6.66 0 .13-.06.18-.24.18h-14.1c-.53 0-1.05.04-1.77.11l-.2-.67c.75.11 1.33.15 1.9.15zm11.84 14.88h-2.16l.04 2.24h2.1c.87-.98 1.08-1.12 1.2-1.12.17 0 .37.14 1.16.77.36.3.5.45.5.58 0 .13-.05.18-.23.18H20.8l.03 3.08c0 .47-.34.68-.97.68-.49 0-.74-.14-.74-.54s.06-1.38.07-3.22h-3.02c-.43 0-.86.04-1.44.1l-.2-.66c.65.11 1.15.15 1.64.15h3.04v-2.24H17.2v.27c0 .47-.3.65-.92.65-.5 0-.72-.16-.72-.56 0-.54.07-1.1.07-3.29 0-1.3-.02-2.6-.09-3.89.83.36.96.42 1.75.85h4.03c.45-.9.88-1.98 1.19-2.88.16-.49.29-.94.34-1.26 1.64.7 2.09.95 2.09 1.2 0 .2-.11.24-.72.3a22.63 22.63 0 0 1-2.4 2.64h1c.52-.67.66-.78.8-.78.18 0 .35.11.94.58.27.22.38.34.38.49 0 .16-.11.28-.45.55v.87c0 2.3.07 3.85.07 4.37 0 .42-.36.63-.92.63-.47 0-.7-.14-.7-.52v-.22zm-2.16-5.56v2.32h2.16v-2.32h-2.16zm-1.55 0H17.2v2.32h2.03v-2.32zm0 5.15v-2.41H17.2v2.41h2.03zm1.55 0h2.16v-2.41h-2.16v2.41zm-8.03-4.5h-1.28a35.14 35.14 0 0 1-.52 3.2h1.59c.6-.64.75-.75.9-.75.18 0 .32.1.9.61.25.22.36.36.36.5 0 .13-.06.18-.47.56-.11 2.32-.42 4.29-.92 5.55-.2.54-.47.9-.86 1.13-.33.2-.76.29-1.32.29-.2 0-.27-.06-.3-.38-.11-.68-.35-.86-1.73-1.35-.1-.04-.1-.23 0-.23 1.11.1 1.64.16 2.03.16.61 0 .65-.04.87-.8.34-1.15.57-2.93.63-4.87h-1.77c-.05.25-.1.47-.16.65-.13.3-.34.41-.86.41-.45 0-.74-.14-.74-.36 0-.14.03-.29.09-.43a23.73 23.73 0 0 0 .79-5.11c.76.3.86.36 1.6.8h1.17v-3.29H10.5c-.27 0-.56.04-.92.15l-.2-.7c.47.1.82.14 1.18.14h2.07c.57-.67.72-.78.86-.78.18 0 .32.11.92.58.27.23.38.36.38.5 0 .13-.06.18-.5.62v.59c0 1.55.06 2.63.06 2.97 0 .4-.3.61-.9.61-.48 0-.7-.14-.7-.43v-.54zm8.17-2.95c0 .61-.41 1.08-.91 1.08s-.53-.07-.78-1.19c-.16-.72-.5-1.4-1.04-2-.06-.07.07-.2.16-.16 1.76.6 2.57 1.3 2.57 2.27zm-3.02.2c0 .55-.38.97-.85.97-.45 0-.57-.18-.79-1.12a3.15 3.15 0 0 0-1.02-1.8c-.08-.05 0-.14.09-.12 1.76.41 2.57 1.06 2.57 2.07zm3.55 51.88v5.14c0 3.53.1 4.72.1 5.57 0 .85-.3 1.4-.7 1.84-.45.48-1.33.85-2.25.85-.34 0-.48-.14-.55-.68-.17-.99-.74-1.33-3.57-1.97-.2-.04-.17-.48.04-.44 1.9.17 2.99.17 3.94.17.38 0 .58-.14.58-.55v-9.93h-4.35v.28c0 .71-.48 1.02-1.4 1.02-.78 0-1.05-.24-1.05-.82 0-.68.14-1.63.14-5.4 0-1.8-.04-2.76-.17-4.15 1.22.5 1.7.74 2.75 1.42h10.68c1.02-1.12 1.22-1.25 1.42-1.25.24 0 .45.13 1.47.98.5.41.64.65.64.85 0 .24-.1.38-.85.89v1.53c0 3.12.07 4.48.07 4.93 0 .71-.51 1.02-1.43 1.02-.71 0-1.02-.24-1.02-.82v-.48h-4.49zm4.5-.85v-5.95H14.67v5.95h11.25zm-4.63-11.15h6.32c1.43-1.77 1.67-1.9 1.87-1.9.24 0 .48.13 1.97 1.43.65.57.85.78.85.98 0 .24-.1.34-.44.34H12.71c-.82 0-1.43.07-2.38.2l-.34-1.29c1.05.17 1.76.24 2.72.24h6.15v-3.26c0-.61 0-1.2-.14-2.35 3.34.3 3.71.58 3.71.92 0 .24-.27.48-1.12.88v3.81zm8.2 22.95c-.72 0-1.06-.34-1.44-1.56a14.68 14.68 0 0 0-4.28-6.4c-.14-.13.07-.44.27-.37 4.35 1.77 6.9 4.46 6.9 6.6 0 .98-.6 1.73-1.46 1.73zM7.73 160.74c-.68 0-.92-.34-1.43-1.53a8.28 8.28 0 0 0-2.78-3.37c-.1-.07.03-.3.17-.27 3.12.44 5.23 1.94 5.23 3.67 0 .95-.58 1.5-1.19 1.5zm-2.38 7.75c-.58 0-.85-.38-1.29-1.36a7.7 7.7 0 0 0-2.79-3.33c-.1-.07.04-.28.17-.28 3.13.38 5.2 1.84 5.2 3.5 0 .86-.57 1.47-1.29 1.47zm2.76 15.57c-.17.1-.48-.24-.34-.37 2-1.87 3.67-4.25 4.72-6.36.48-.92.85-1.77.99-2.48 2.82 1.15 3.3 1.39 3.3 1.73 0 .3-.38.51-1.36.58-2.11 2.92-4.12 5-7.31 6.9zm-3.27 1.4c-.92 0-1.43-.62-1.43-1.84 0-1.2.24-2.25.24-3.47 0-1.87-.47-2.41-2.65-3.13-.2-.07-.1-.5.1-.47.82.13 1.23.2 1.53.2.68 0 1.12-.3 1.57-.99 1.22-2.1 3.33-6.18 5.5-11.15.07-.17.51 0 .45.2a315.79 315.79 0 0 1-4.32 11.6 5.68 5.68 0 0 0-.44 2.07c0 1.5 1.19 3.2 1.19 4.8 0 1.32-.75 2.17-1.74 2.17z"/></svg>