<svg viewBox="0 0 215 27" xmlns="http://www.w3.org/2000/svg"><path d="M17.12 2.47c.82.49 1.4 1.12 1.4 1.49 0 .6-.21.82-.94.94-.31.06-.61.15-.95.24a64.91 64.91 0 0 1-6.67 2c-2.78.7-5.49 1.15-6.28 1.15-.25 0-.5-.12-.5-.36 0-.18.2-.33.62-.42 2.47-.58 4.08-1.1 6.03-1.76 2.1-.76 3.81-1.49 4.94-2.16.4-.24.58-.36.58-.51 0-.15-.42-.52-.97-.79-.31-.15-.34-.18-.34-.27 0-.16.43-.34.73-.34.55 0 1.59.34 2.35.8zm2.25 8.3c.46-.02.73-.17 1-.32.25-.15.59-.28 1.02-.28.42 0 1.28.25 1.95.6.55.31.94.74.94 1.13 0 .4-.43.67-.85.67-.49 0-.8-.03-1.44-.1-1.06-.08-2.16-.14-2.98-.14-.88 0-2.8.09-4.76.2-.27 3.5-.97 6.2-2.4 8.47a14.5 14.5 0 0 1-6.2 5.55c-.27.12-.48.2-.7.2-.23 0-.42-.11-.42-.32 0-.22.19-.37.61-.64a15.26 15.26 0 0 0 5.1-5.6 17.46 17.46 0 0 0 1.88-7.5c-2.25.21-4.42.48-6.86.94-.49.1-.76.18-1.03.37a1.8 1.8 0 0 1-.89.27c-.52 0-1.28-.52-1.98-1.24-.49-.52-.73-1.04-.73-1.4 0-.49.1-.67.21-.67.16 0 .22.1.43.3.67.61 1.25.92 1.98.92.4 0 1.22-.1 2.07-.19l6.83-.7c.03-.72.03-1.3.03-1.66 0-.6-.09-.8-.4-.97-.3-.18-.73-.3-1.15-.37-.25-.03-.34-.09-.34-.24 0-.12.12-.24.34-.36.33-.18.91-.34 1.28-.34.52 0 1.37.28 2.1.58.6.24.76.58.76.88 0 .24-.12.45-.27.7-.1.15-.18.36-.18.57-.03.4-.03.73-.07 1.1l5.12-.4zm23.7 5.4c-.61 0-1.35-.66-2.14-1.75-.4-.55-.7-1.12-.7-1.58 0-.4.06-.76.27-.76.16 0 .28.16.5.37 1.06 1.03 1.49 1.24 2.19 1.24.64 0 1.8-.06 3.87-.18 4.14-.24 8.26-.4 10.85-.49a4 4 0 0 0 1.86-.36c.24-.12.6-.21.94-.21.3 0 .73.09 1.25.27 1.43.55 1.62.88 1.62 1.43 0 .6-.4.9-1.07.9-1.16 0-2.8-.12-4.3-.12-2.71 0-8.1.19-12.1.52-.97.09-1.8.27-2.1.45-.21.16-.52.28-.95.28zM101 .33c.83.21 1.59.57 2.44 1.18.73.52 1.4 1.21 1.4 1.91 0 .6-.36.97-.82.97-.4 0-.64-.15-.98-.73a9.26 9.26 0 0 0-2.8-2.85c-.12-.06-.21-.18-.21-.3 0-.15.12-.3.3-.3.16 0 .4.06.67.12zm-2.65 2.03c.82.24 1.74.7 2.65 1.52.73.63 1.16 1.18 1.16 1.82 0 .48-.3.9-.85.9-.4 0-.73-.27-1.01-.81a10.46 10.46 0 0 0-2.56-2.91c-.12-.1-.21-.22-.21-.3 0-.16.12-.31.33-.31.19 0 .4.06.49.1zm1.7 16.92c1.08 1.03 1.9 2.03 1.9 2.85 0 .82-.52 1.27-1.25 1.27-.43 0-.82-.27-1.31-.93a22.16 22.16 0 0 0-7.23-6.74c-1.82 2-3.8 3.73-5.94 5.13a28.87 28.87 0 0 1-5.94 3.1c-.3.11-.61.2-.83.2-.18 0-.33-.2-.33-.36 0-.15.12-.33.3-.43a38.4 38.4 0 0 0 9.88-7.42 37.94 37.94 0 0 0 5.76-7.7c.09-.16.12-.22.12-.28 0-.06-.06-.06-.24-.06-1.4.1-4.88.55-7.96 1.15-.6.12-1 .24-1.25.4-.27.15-.45.3-.88.3-.52 0-1.25-.52-1.89-1.4-.58-.78-.82-1.2-.82-1.72 0-.3.15-.64.3-.64.12 0 .34.18.52.36.8.76 1.34 1.16 2.01 1.16.49 0 1.53-.1 2.4-.19 2.39-.24 4.92-.48 7.14-.78.52-.06.76-.22 1.04-.46a.98.98 0 0 1 .73-.33c.46 0 .8.15 1.43.73.82.75 1.07 1.09 1.07 1.45 0 .3-.15.42-.76.67-.43.15-.92.54-1.28 1.12a49.28 49.28 0 0 1-3.9 5.27c2.8 1.16 5.42 2.55 7.22 4.28zM136 6.09c.36-.06.67-.18.94-.45.25-.25.46-.34.61-.34.34 0 .7.18 1.4.73.8.6 1.13 1 1.13 1.42 0 .43-.24.61-.64.82-.33.19-.7.55-1.1 1.19a68.93 68.93 0 0 1-3.47 5.27c2.07 1.43 2.84 2.61 2.84 3.46 0 .58-.43 1.15-1.01 1.15-.46 0-.8-.21-1.34-.88-.61-.85-1.1-1.42-1.8-2.09-3.23 4-7.62 7.52-12.53 9.34-.15.06-.33.12-.45.12-.22 0-.43-.15-.43-.36 0-.22.12-.37.4-.52a36.4 36.4 0 0 0 11.6-9.85 19.75 19.75 0 0 0-3.65-2.16c-.21-.09-.33-.24-.33-.33 0-.15.12-.33.3-.33.15 0 .46.03.7.09 1.07.21 2.29.63 4.02 1.36a49.53 49.53 0 0 0 3.6-5.94c.06-.15.1-.28.1-.37 0-.09-.04-.18-.22-.18-.52.03-1.9.3-2.99.52-.73.12-1.25.24-1.67.24-.5 0-.95-.12-1.56-.33a60.49 60.49 0 0 1-3.75 4.58 24.21 24.21 0 0 1-4.42 3.94.8.8 0 0 1-.45.15c-.22 0-.5-.12-.5-.4 0-.12.07-.3.25-.48 1.5-1.42 3.02-3.1 4.42-4.88.76-1 2.32-3.16 3.2-4.8.52-.96.7-1.54.7-1.84 0-.18-.06-.34-.24-.52-.3-.27-.64-.45-.98-.57-.2-.1-.27-.15-.27-.3 0-.16.49-.46 1-.46.55 0 1.29.24 2.02.73.94.6 1.3 1.12 1.3 1.54 0 .43-.15.6-.42.82-.3.21-.46.36-.6.58-.22.3-.47.63-.71 1 1.52-.1 3.38-.37 5-.67zm35.79.15c.76.46 1.19.82 1.19 1.37 0 .27-.12.54-.34.76-.12.12-.27.51-.27.93-.1 3.16-.12 5.89-.15 9.31 0 .25.09.37.15.37.09 0 .24-.03.52-.16a46.54 46.54 0 0 0 10.66-6.57c.22-.19.34-.3.52-.3.15 0 .4.23.4.42 0 .12-.12.3-.22.4-2.68 3.11-6.1 5.63-10.79 8.27-.3.18-.45.4-.6.64-.19.33-.34.45-.64.45-.43 0-.83-.27-1.38-.94-.42-.54-.73-1.03-.73-1.49 0-.14.03-.33.1-.5.05-.22.14-.62.14-1.16.04-2.76.04-5.8 0-8.86 0-1.09 0-1.54-.2-1.97-.19-.4-.68-.76-1.47-1.03-.18-.06-.3-.12-.3-.27 0-.3.76-.58 1.27-.58.28 0 1.13.3 2.14.91zm-7.13 3.43a4.2 4.2 0 0 0-1.16-.64c-.15-.06-.25-.15-.25-.27 0-.24.55-.43 1.01-.43.64 0 1.43.34 2.47 1.03.64.43 1.1.91 1.1 1.37 0 .27-.13.51-.4.76-.28.27-.37.54-.52 1.03a21.22 21.22 0 0 1-2.83 5.88 18.76 18.76 0 0 1-5.3 5.07c-.19.09-.37.2-.55.2-.16 0-.37-.2-.37-.39 0-.15.06-.24.3-.45a21.88 21.88 0 0 0 6.56-10.4c.21-.8.33-1.4.33-1.85 0-.4-.12-.67-.4-.91zm41.85 7.76c0 1.76.1 5.4.1 7.34 0 .9-.4 1.21-.86 1.21-.36 0-.67-.12-.97-.6a5.05 5.05 0 0 1-.67-2.25c0-.27.15-.57.2-.82.04-.15.13-.48.16-1.42.06-1.64.1-2.94.12-5.8.03-2.93.03-5.72.03-8.51 0-1-.03-1.91-.15-2.34a1.21 1.21 0 0 0-.6-.64 5.31 5.31 0 0 0-1.17-.45c-.2-.06-.3-.15-.3-.27 0-.13.15-.25.3-.34.25-.15.67-.3.95-.3.7 0 1.46.24 2.47.73.73.36 1.22.85 1.22 1.4 0 .33-.16.6-.43.93-.15.21-.24.43-.28 1.06-.06 1.15-.12 2.91-.12 5.1 1.53.12 3.48.51 5.06 1.15 2.14.88 2.99 1.88 2.99 2.94 0 .82-.49 1.28-.98 1.28-.51.02-.85-.19-1.52-.95a12.9 12.9 0 0 0-5.55-3.48v5.03z" fill-rule="evenodd"/></svg>