<svg viewBox="0 0 100 74" xmlns="http://www.w3.org/2000/svg"><path d="M82.39 65.25c-2.35-4.73-5.97-9.23-10.82-13.32-.32-.24.24-.97.65-.8 11.22 4.65 17.75 10.6 17.75 15.65 0 2.33-1.13 3.7-3.07 3.7-1.93 0-2.42-.57-4.51-5.23zM63.34 46c0 15.41.33 22.96.33 25.28 0 1.69-1.21 2.65-3.71 2.65-2.03 0-2.75-.72-2.75-2.24 0-1.85.4-7.96.4-22.88V46H42.7c-1.7 0-2.99.08-5.24.48l-.9-3.05c2.5.4 4.13.56 6.22.56h14.85c0-6.42-.17-8.83-.49-11.8 7.91 1.13 8.72 1.37 8.72 2.41 0 .56-.49 1.12-2.5 1.92v7.47H73.6c2.58-3.37 3.23-3.77 3.71-3.77s1.21.4 4.36 2.97c1.37 1.04 1.78 1.52 1.78 2 0 .56-.25.8-1.05.8H63.34zM27.6 71.35a50.64 50.64 0 0 0 12.43-14.13 28.1 28.1 0 0 0 3.06-6.98c6.54 2.33 8 3.13 8 4.1 0 .8-.66 1.36-3.24 1.52a44.77 44.77 0 0 1-19.44 16.3c-.4.16-1.21-.48-.8-.8zM74.48 12.6c.07 3.05.16 4.82.16 5.46 0 1.6-1.13 2.33-3.47 2.33-1.86 0-2.5-.56-2.5-1.92 0-.49.08-1.93.08-5.87H52.54c.07 2.97.15 4.74.15 5.38 0 1.6-1.13 2.33-3.46 2.33-1.78 0-2.43-.56-2.43-2.09 0-.48.17-2.17.25-5.62H7.08c-1.77 0-3.23.17-5.33.48l-.8-3.04c2.41.48 4.03.56 6.13.56h39.97V9.54c0-4.81 0-5.85-.48-8.67 7.82.8 8.78 1.2 8.78 2.17 0 .56-.48 1.13-2.81 1.85v5.7h16.21c0-5.78 0-6.99-.32-9.72 7.42.8 8.55 1.2 8.55 2.17 0 .56-.4 1.05-2.5 1.85v5.7h12.67c3.22-3.85 3.79-4.26 4.27-4.26.57 0 1.2.4 4.84 3.3 1.62 1.28 2.02 1.76 2.02 2.24 0 .48-.32.72-1.13.72H74.48zm2.42 19.35a64.91 64.91 0 0 0 22.19 6.99c.4.07.32.8-.08.88-2.03.32-2.99 1.28-3.96 4.33-.32 1.05-.73 1.45-1.45 1.45-.56 0-1.7-.32-3.14-.97-4.53-1.76-10.42-5.05-15.34-8.5-5.32-3.94-10.17-8.76-13.55-13.81-8.48 11-21.3 19.66-35.98 24.24-.57.16-1.05-1.05-.57-1.28 9.04-4.1 19.12-11.56 25.9-19.27 2.9-3.3 5.08-6.58 6.05-9.71 7.1 2.4 8.55 3.13 8.55 3.93 0 .64-.24.88-2.66 1.13a48.6 48.6 0 0 0 14.04 10.6z" fill-rule="evenodd"/></svg>